<?xml version="1.0" encoding="utf-8" ?>
<svg baseProfile="full" height="200mm" version="1.1" viewBox="0,0,200,200" width="200mm" xmlns="http://www.w3.org/2000/svg" xmlns:ev="http://www.w3.org/2001/xml-events" xmlns:xlink="http://www.w3.org/1999/xlink"><defs /><rect fill="#1a1a1a" height="200" width="200" x="0" y="0" /><text alignment-baseline="middle" fill="#e1ed5e" style="dominant-baseline: central; font-size:9.0px; font-family:Arial;" text-anchor="middle" x="100.0" y="100.0">2022</text><line stroke="#e1ed5e" stroke-width="0.3" x1="100.0" x2="100.0" y1="15.0" y2="10.0" /><path d="M 100.0 14.0 a86.0,86.0 0 0,1 42.46469731375804,11.215312516191453" fill="none" id="id37" stroke="none" /><text fill="#e1ed5e" style="font-size:6.75px; font-family:Arial;" text-anchor="middle"><textPath startOffset="22.20632615414155" xlink:href="#id37">January</textPath></text><path d="M 105.01212808612495 79.60689891045804 l 0.5180880166955917 -2.1079711284716973 a23.1707043722059,23.1707043722059 0 0,0 0.386499608785274,0.09852735605213812 l -0.5542965141658908 2.0987407762506916" fill="#ff1702" stroke="none" /><path d="M 107.4271985657038 80.35727306442388 l 0.42390619561241377 -1.121105565315463 a22.19857171302342,22.19857171302342 0 0,0 0.3562520181071939,0.13822024831841595 l -0.4431413787192747 1.1136426131065003" fill="#ff0901" stroke="none" /><path d="M 107.76421540070413 80.48803036053334 l 0.7487686012891611 -1.8817033610395524 a23.02520664556091,23.02520664556091 0 0,0 0.36699562239666156,0.1497067290868975 l -0.7810480932742101 1.8685357457690757" fill="#ff1402" stroke="none" /><line stroke="#e1ed5e" stroke-width="0.3" x1="143.23703022742887" x2="145.7803849466894" y1="26.81831364943548" y2="22.513508569990506" /><path d="M 143.74570117128098 25.957352633546492 a86.0,86.0 0 0,1 28.547481713284135,27.462654790039103" fill="none" id="id38" stroke="none" /><text fill="#e1ed5e" style="font-size:6.75px; font-family:Arial;" text-anchor="middle"><textPath startOffset="19.985693538727396" xlink:href="#id38">February</textPath></text><path d="M 114.94478906791727 85.2469230424477 l 0.4325815305693386 -0.42703236438482634 a21.60785147924621,21.60785147924621 0 0,0 0.25902230485342426,0.266945253854852 l -0.43986809912587194 0.41952291497985994" fill="#ff0000" stroke="none" /><path d="M 115.19652480421416 85.50635884689758 l 0.5769642917738373 -0.5502780083512856 a21.797304007551162,21.797304007551162 0 0,0 0.2566193258862302,0.2737436045903705 l -0.5863509396305305 0.5402649868828603" fill="#ff0300" stroke="none" /><line stroke="#e1ed5e" stroke-width="0.3" x1="172.23445277983987" x2="176.4835382374775" y1="55.19839476539836" y2="52.563006222186495" /><path d="M 173.08426987136738 54.67131705675599 a86.0,86.0 0 0,1 12.851231095245387,41.99856678651699" fill="none" id="id39" stroke="none" /><text fill="#e1ed5e" style="font-size:6.75px; font-family:Arial;" text-anchor="middle"><textPath startOffset="22.20632615414155" xlink:href="#id39">March</textPath></text><path d="M 117.84615892207809 88.93136811851018 l 1.7870226309729098 -1.1083559074249971 a23.102832066793074,23.102832066793074 0 0,0 0.20669796000937352,0.3397570986862167 l -1.8058363892685074 1.077431035531699" fill="#ff1602" stroke="none" /><path d="M 119.196687751892 91.48605970444005 l 5.373265103462832 -2.3831016514080368 a26.878022741792954,26.878022741792954 0 0,0 0.18393436043120712,0.4245458635844508 l -5.41349017373672 2.2902566432369835" fill="#ff4b07" stroke="none" /><path d="M 119.34039704204932 91.81776055985345 l 7.896167621127684 -3.3405898542377135 a29.573739188660987,29.573739188660987 0 0,0 0.19431117360566666,0.47053991951015883 l -7.9525004816195475 3.204175364274252" fill="#ff700a" stroke="none" /><path d="M 119.47837535516314 92.15188598940014 l 8.232314645760539 -3.316916464182109 a29.875412061260356,29.875412061260356 0 0,0 0.18808200830669822,0.4786481960552158 l -8.288190203948936 3.174719263231109" fill="#ff740a" stroke="none" /><path d="M 120.18372546131832 94.20196356495316 l 7.152055128593767 -2.054520425405242 a28.44130007060942,28.44130007060942 0 0,0 0.1311187671012773,0.47170396812681076 l -7.1863606662614075 1.931105153859479" fill="#ff6008" stroke="none" /><path d="M 120.28053869075195 94.5502522615342 l 7.342936988412627 -1.9731800449929187 a28.60343100881152,28.60343100881152 0 0,0 0.12368078365213402,0.47659251197857155 l -7.375814103935063 1.8464911074654968" fill="#ff6209" stroke="none" /><path d="M 120.45610955862082 95.25157060432595 l 12.899686122599194 -2.9943743019163036 a34.24266512155144,34.24266512155144 0 0,0 0.12833761662265014,0.5753123708415899 l -12.949318126223883 2.77188376152475" fill="#ffad10" stroke="none" /><path d="M 120.67395015179393 96.31383870115 l 15.942065720412947 -2.842467223285344 a37.19348879486496,37.19348879486496 0 0,0 0.10695455009001613,0.6312518089812149 l -15.988632132023186 2.567629625988291" fill="#ffd313" stroke="none" /><path d="M 120.73433829027371 96.67025291283417 l 13.149584819924883 -2.111704320562954 a34.318065778253356,34.318065778253356 0 0,0 0.08864537223965195,0.5840622461968885 l -13.183986085603834 1.8850429619739835" fill="#ffae10" stroke="none" /><path d="M 120.83666639777658 97.38593545837742 l 18.438175579203964 -2.313161811668278 a39.58270799040102,39.58270799040102 0 0,0 0.0789951104304632,0.6767818646672558 l -18.475261042638014 1.9954362086761694" fill="#fff016" stroke="none" /><path d="M 120.91429891909075 98.10471618934814 l 18.43342244322929 -1.6704632207235404 a39.50895757038573,39.50895757038573 0 0,0 0.05554868409615807,0.6778346456304164 l -18.45944561114494 1.352914657885355" fill="#ffef16" stroke="none" /><line stroke="#e1ed5e" stroke-width="0.3" x1="184.98032266829074" x2="189.97916517819016" y1="98.17113171792111" y2="98.06355123074" /><path d="M 185.9800911702706 98.14961562048488 a86.0,86.0 0 0,1 -9.607161424134198,41.387399972396054" fill="none" id="id40" stroke="none" /><text fill="#e1ed5e" style="font-size:6.75px; font-family:Arial;" text-anchor="middle"><textPath startOffset="21.466115282336823" xlink:href="#id40">April</textPath></text><path d="M 120.99513854157772 99.54816195383933 l 28.944156704403802 -0.622909498176773 a49.950858770889724,49.950858770889724 0 0,0 0.011100966778463717,0.8597821106866265 l -28.95059067829998 0.12459112942968378" fill="#96ff23" stroke="none" /><path d="M 120.99980553446 99.90962569577887 l 29.287282337513894 -0.12604010829706344 a50.28755354798609,50.28755354798609 0 0,0 -0.0037253563504221106,0.8656416177105543 l -29.28511268387397 -0.3781109876171755" fill="#92ff23" stroke="none" /><path d="M 120.95626037817324 101.35467743843564 l 29.160344502399592 1.8850147918354403 a50.22120757710168,50.22120757710168 0 0,0 -0.06319129201046031,0.8621949737674811 l -29.123576651724797 -2.386682902099692" fill="#93ff23" stroke="none" /><path d="M 120.89721153311464 102.0752229133903 l 29.708484768951756 2.950237079092555 a50.85461381578886,50.85461381578886 0 0,0 -0.09400281268484445,0.8703492978344295 l -29.65329965476586 -3.461182698811776" fill="#8cff24" stroke="none" /><path d="M 120.81339534386255 102.79330883721812 l 58.73017472855393 7.882016046411626 a80.25672620557404,80.25672620557404 0 0,0 -0.1955434075528093,1.367630136985391 l -58.585797269984525 -8.891791655377427" fill="#48f4ff" stroke="none" /><path d="M 120.70491114924044 103.5080841355445 l 13.078273461945873 2.2158841118160537 a34.26466656732978,34.26466656732978 0 0,0 -0.103534047417073,0.5806739211281453 l -13.038192972189611 -2.440676783677417" fill="#ffae10" stroke="none" /><path d="M 120.64145759157962 103.86396538481128 l 26.516606969108718 4.963760480416769 a47.97720080477462,47.97720080477462 0 0,0 -0.15894176550610437,0.8104406380570733 l -26.427235270626948 -5.419464845541788" fill="#acff21" stroke="none" /><path d="M 120.49622156327973 104.57218783832717 l 28.80386645014495 6.425412970559195 a50.5118392229291,50.5118392229291 0 0,0 -0.19660995961376804,0.8469905602554021 l -28.688995924600633 -6.920272188163162" fill="#90ff24" stroke="none" /><path d="M 120.32669344350535 105.2749913415812 l 30.164461015233112 7.827995788939229 a52.16363628351429,52.16363628351429 0 0,0 -0.2330271935602068,0.8671808754813232 l -30.025245745331127 -8.3460675975961" fill="#7eff26" stroke="none" /><path d="M 120.23288151984713 105.62410040840565 l 31.4888044211418 8.752890567338605 a53.682684974719024,53.682684974719024 0 0,0 -0.2551393920095675,0.888173694728982 l -31.333472392246136 -9.29362173757217" fill="#6eff28" stroke="none" /><path d="M 120.02730092923936 106.31721596034902 l 17.651980237856716 5.567968029458733 a39.509313177283445,39.509313177283445 0 0,0 -0.21016649709183163,0.6468259681653257 l -17.553521489748636 -5.8709928976018535" fill="#ffef16" stroke="none" /><path d="M 119.9155931802556 106.66101706037122 l 12.533789672077852 4.192081354603353 a34.21625626368899,34.21625626368899 0 0,0 -0.19162597463837794,0.5569547804295525 l -12.459772866496243 -4.407208838122206" fill="#ffad10" stroke="none" /><path d="M 119.79798401119884 107.00284435728193 l 12.476595107913122 4.413159117621189 a34.234099851680305,34.234099851680305 0 0,0 -0.20128956085748018,0.5538624210533554 l -12.398781286050415 -4.627269335680675" fill="#ffad10" stroke="none" /><path d="M 119.54520255179757 107.68017299344265 l 27.29052670853408 10.723652806782104 a50.32182766386873,50.32182766386873 0 0,0 -0.323730826818033,0.8034733631904848 l -27.101893267458653 -11.191825537815403" fill="#92ff23" stroke="none" /><path d="M 118.81262510543309 109.33194174019688 l 19.938925038530012 9.890639173369703 a43.25725668068539,43.25725668068539 0 0,0 -0.3366265918168765,0.6641962014277377 l -19.765719776926865 -10.232389586500135" fill="#e2ff1b" stroke="none" /><line stroke="#e1ed5e" stroke-width="0.3" x1="174.80103733775053" x2="179.2010983576182" y1="140.37084112569926" y2="142.7455964860345" /><path d="M 175.68104954172406 140.8457921977663 a86.0,86.0 0 0,1 -30.038265399797805,32.042727171017184" fill="none" id="id41" stroke="none" /><text fill="#e1ed5e" style="font-size:6.75px; font-family:Arial;" text-anchor="middle"><textPath startOffset="22.206326154141568" xlink:href="#id41">May</textPath></text><line stroke="#e1ed5e" stroke-width="0.3" x1="143.8653032363475" x2="146.44561519142675" y1="172.8068346515853" y2="177.08958963109032" /><path d="M 144.38136562736335 173.6633856474863 a86.0,86.0 0 0,1 -40.68145358897372,12.25698825130547" fill="none" id="id42" stroke="none" /><text fill="#e1ed5e" style="font-size:6.75px; font-family:Arial;" text-anchor="middle"><textPath startOffset="21.466115282336833" xlink:href="#id42">June</textPath></text><path d="M 107.93186726928326 119.44442032107085 l 0.4376863273944772 1.0729575558584794 a22.158795597964485,22.158795597964485 0 0,0 -0.3544129724596448,0.1410282359918506 l -0.41915227889296613 -1.080332636256399" fill="#ff0801" stroke="none" /><path d="M 106.2309692047433 120.05430185196036 l 6.616955169631076 21.29659318676377 a43.30087390842387,43.30087390842387 0 0,0 -0.7136912423006144,0.2150293168066429 l -6.249388952890216 -21.407337872676138" fill="#e1ff1b" stroke="none" /><path d="M 105.88484417918355 120.15858648285463 l 2.313214329712567 7.923936420243309 a29.254679214072823,29.254679214072823 0 0,0 -0.4846090993178087,0.1369553720966688 l -2.1764740622901524 -7.962580585678497" fill="#ff6b09" stroke="none" /><path d="M 105.53697534728816 120.25689768951611 l 2.1360188246383074 7.814576023852183 a29.101245265499287,29.101245265499287 0 0,0 -0.48434111173231725,0.12791888971636686 l -2.001187270094493 -7.850186262872134" fill="#ff6909" stroke="none" /><path d="M 105.18746579009965 120.34920634021253 l 5.4984737876414105 21.569217453830284 a43.259028630288356,43.259028630288356 0 0,0 -0.7231399955172435,0.17773021698945865 l -5.126380507380956 -21.660668929133774" fill="#e2ff1b" stroke="none" /><path d="M 104.48393922423573 120.51570834832081 l 4.751719519983805 21.740903912814897 a43.254117402019006,43.254117402019006 0 0,0 -0.7287464792938311,0.1527159102053213 l -4.376781579260596 -21.81947580374676" fill="#e2ff1b" stroke="none" /><path d="M 104.13013068566511 120.58985236759428 l 1.6648539426777003 8.299760831374488 a29.46509116953076,29.46509116953076 0 0,0 -0.4981457907038435,0.09547082638536593 l -1.5217405374021524 -8.327188856108322" fill="#ff6e0a" stroke="none" /><path d="M 103.7750983002368 120.6578951692458 l 5.390209700469592 29.496023169931153 a50.98449171582123,50.98449171582123 0 0,0 -0.8646751982649752,0.15033486668703025 l -4.881685530732567 -29.58443661513919" fill="#8bff24" stroke="none" /><path d="M 103.41894727170886 120.7198165907248 l 0.193751435808298 1.1741901512657715 a22.190068119986126,22.190068119986126 0 0,0 -0.37740459602585813,0.058942836181707266 l -0.17351097617392275 -1.1773512947945846" fill="#ff0801" stroke="none" /><path d="M 102.34483914955558 120.86867818915974 l 3.278215689476639 29.175574056458572 a50.3591692598859,50.3591692598859 0 0,0 -0.8622626537083871,0.08937704963615739 l -2.7755204391626496 -29.22768047455049" fill="#91ff23" stroke="none" /><path d="M 101.26447882468166 120.96189622390904 l 1.4492104969012656 24.02428530212184 a45.06795577821424,45.06795577821424 0 0,0 -0.7747652270547146,0.040046512554953215 l -1.0354572014330714 -24.045671621438995" fill="#cdff1d" stroke="none" /><line stroke="#e1ed5e" stroke-width="0.3" x1="102.19456741930631" x2="102.32365962044197" y1="184.97166512339345" y2="189.96999836594603" /><path d="M 102.22038585953345 185.97133177190398 a86.0,86.0 0 0,1 -42.740103519485714,-10.115201625700543" fill="none" id="id43" stroke="none" /><text fill="#e1ed5e" style="font-size:6.75px; font-family:Arial;" text-anchor="middle"><textPath startOffset="22.20632615414155" xlink:href="#id43">July</textPath></text><path d="M 100.54218724476979 120.99299961872073 l 0.5765330108778354 22.322836610951907 a43.33028044319835,43.33028044319835 0 0,0 -0.7457766666870131,0.012839221645627884 l -0.19219665429815425 -22.329453309876694" fill="#e1ff1b" stroke="none" /><path d="M 100.18074693466247 120.99922214144158 l 0.12127168754697627 14.089373692683301 a35.08989559486786,35.08989559486786 0 0,0 -0.6040372444188538,0.0 l 0.12127168754696657 -14.089373692683301" fill="#ffb811" stroke="none" /><path d="M 99.81925306533755 120.99922214144158 l -0.10122918311818067 11.760830729800386 a32.761266377500846,32.761266377500846 0 0,0 -0.5638686799520389,-0.00970751068559532 l 0.3036575529628875 -11.757345741835632" fill="#ff9a0e" stroke="none" /><path d="M 98.73552117531835 120.96189622390904 l -1.3445943335182344 22.290010977100724 a43.33052895210949,43.33052895210949 0 0,0 -0.7441239207274956,-0.05131914228685707 l 1.7280810150246602 -22.26356349029758" fill="#e1ff1b" stroke="none" /><path d="M 97.65516085044442 120.86867818915974 l -1.4841442826521767 13.208637115607589 a34.291756042883705,34.291756042883705 0 0,0 -0.5860176599620365,-0.07095857752013542 l 1.7112893656656025 -13.181133009362105" fill="#ffae10" stroke="none" /><path d="M 96.93821686468263 120.77559828337769 l -1.9379439697724876 13.14983577617563 a34.29186998771678,34.29186998771678 0 0,0 -0.5832298156862797,-0.09108850248322978 l 2.1640096490672844 -13.114528966345294" fill="#ffae10" stroke="none" /><path d="M 96.58105272829116 120.7198165907248 l -5.756600400939916 34.886675638595605 a56.358430186996166,56.358430186996166 0 0,0 -0.9558148989199692,-0.1661806718811161 l 6.356264271331935 -34.78241638819348" fill="#53ff2b" stroke="none" /><path d="M 95.51606077576429 120.51570834832081 l -6.624350952834601 30.308897009735997 a52.024365642074045,52.024365642074045 0 0,0 -0.8732162204499689,-0.19874116882647364 l 7.145087322677433 -30.19037910733184" fill="#80ff26" stroke="none" /><path d="M 95.16358092515715 120.4354850818985 l -1.8169749925117251 7.677325884929126 a28.889406242982787,28.889406242982787 0 0,0 -0.4829300555865759,-0.11869245803330297 l 1.9488583328415114 -7.644912168581794" fill="#ff6609" stroke="none" /><path d="M 94.46302465271185 120.25689768951611 l -10.88640757592276 39.82767316813991 a62.28870814032912,62.28870814032912 0 0,0 -1.0318238162404247,-0.29160371707906774 l 11.570362560267798 -39.634380657722325" fill="#32ff4b" stroke="none" /><path d="M 93.76903079525671 120.05430185196036 l -1.0646602741081466 3.426596698712984 a24.588184281066784,24.588184281066784 0 0,0 -0.40310414337817885,-0.12906121710040672 l 1.1234857625772658 -3.4077626349528707" fill="#ff2b04" stroke="none" /><path d="M 92.7421414339146 119.70592522655815 l -5.507254994871094 14.952834110000166 a36.93477660652063,36.93477660652063 0 0,0 -0.5947022790586232,-0.2248655152887738 l 5.76382749469 -14.85582034460476" fill="#ffd013" stroke="none" /><path d="M 92.06813273071674 119.44442032107085 l -0.5864465338524446 1.4376328439359334 a22.552645397710265,22.552645397710265 0 0,0 -0.35818813828426566,-0.14972267085274174 l 0.6111061316341725 -1.4273251300632184" fill="#ff0e01" stroke="none" /><path d="M 91.40352486487194 119.15986991738527 l -1.5581783149977129 3.4728761910159407 a24.806414152382068,24.806414152382068 0 0,0 -0.38808099806216817,-0.17814895203938186 l 1.6177273088273003 -3.4455401686424842" fill="#ff2e04" stroke="none" /><path d="M 91.07499286063937 119.00905698771935 l -6.771403329772521 14.422172416514107 a36.93270097209242,36.93270097209242 0 0,0 -0.5731380658733365,-0.2751411011621102 l 7.0186540636461 -14.303477038852435" fill="#ffd013" stroke="none" /><path d="M 90.7491055286396 118.85261126421891 l -1.623381459138144 3.3083265274964577 a24.685158310630666,24.685158310630666 0 0,0 -0.3798529736339395,-0.19046616659843674 l 1.680088340454844 -3.279892519988719" fill="#ff2c04" stroke="none" /><path d="M 90.10565033884886 118.52300852407294 l -12.531537180031147 23.46003304460216 a47.59722870053059,47.59722870053059 0 0,0 -0.7193464098961733,-0.39224501795024724 l 12.933506401795961 -23.240847374892144" fill="#b0ff20" stroke="none" /><line stroke="#e1ed5e" stroke-width="0.3" x1="58.666819895761336" x2="56.23545636021788" y1="174.27360380694188" y2="178.64263932499728" /><path d="M 58.180547188652646 175.14741091055294 a86.0,86.0 0 0,1 -31.652253787137756,-30.449443065178592" fill="none" id="id44" stroke="none" /><text fill="#e1ed5e" style="font-size:6.75px; font-family:Arial;" text-anchor="middle"><textPath startOffset="22.20632615414155" xlink:href="#id44">August</textPath></text><path d="M 89.7882731507175 118.34994917583269 l -1.7366973012755351 3.120755938987051 a24.571447206242965,24.571447206242965 0 0,0 -0.36781260608633015,-0.20885359705517503 l 1.7901586742830726 -3.090399176137243" fill="#ff2a04" stroke="none" /><path d="M 89.4739219176387 118.17145234162733 l -21.3367862296458 36.83426923701126 a63.56784980280584,63.56784980280584 0 0,0 -0.9421122489654906,-0.5566165227598301 l 21.96766634963967 -36.461534141957685" fill="#34ff5a" stroke="none" /><path d="M 88.8546689885994 117.79835938074946 l -23.141610392561056 36.95562724828648 a64.60335442228481,64.60335442228481 0 0,0 -0.937419892442026,-0.5983057278436322 l 23.774312087050006 -36.55180709161905" fill="#35ff66" stroke="none" /><path d="M 87.65650970185807 116.9893568818739 l -2.143226278206366 2.949897900801964 a24.64627433207516,24.64627433207516 0 0,0 -0.34107513067086676,-0.2523192277155529 l 2.1936863792957966 -2.9125687243466447" fill="#ff2c04" stroke="none" /><path d="M 87.36589467227662 116.77436683061367 l -32.182226365313205 42.72850799280834 a74.49225260838944,74.49225260838944 0 0,0 -1.0176041534834788,-0.7802554720239712 l 32.91295924729017 -42.168213178957" fill="#41ffd1" stroke="none" /><path d="M 86.79598089348748 116.32954008644616 l -2.291883348922505 2.8343946428576023 a24.645068212877245,24.645068212877245 0 0,0 -0.32757974867941914,-0.2695758316474115 l 2.3403332261466128 -2.79452369235301" fill="#ff2c04" stroke="none" /><path d="M 86.51685102203217 116.09983520530335 l -38.24817035252676 45.671025410034524 a80.57151246459944,80.57151246459944 0 0,0 -1.055619270638729,-0.8996216436093342 l 39.02865509974255 -45.00587937620224" fill="#49f2ff" stroke="none" /><path d="M 86.24171649860922 115.8653595955263 l -2.853848391655099 3.290914230699315 a25.355980614783732,25.355980614783732 0 0,0 -0.3272824973899739,-0.28878875146317723 l 2.910073241951661 -3.241302337463849" fill="#ff3605" stroke="none" /><path d="M 85.97065885151581 115.62618273729859 l -18.707233545590356 20.836520175739054 a49.00216348718866,49.00216348718866 0 0,0 -0.6227952148490238,-0.5689086624325604 l 19.063128309906233 -20.51141874671992" fill="#a0ff22" stroke="none" /><path d="M 85.44109423537348 115.13401014063109 l -32.566745638300205 33.85319382552046 a67.97479806936909,67.97479806936909 0 0,0 -0.8362520151651083,-0.8184486045570992 l 33.14464760584111 -33.287595118040784" fill="#39ff8c" stroke="none" /><path d="M 84.9287848128048 114.62390073753433 l -45.21364556158558 43.871702212602976 a84.0,84.0 0 0,0 -0.99797379448417,-1.0463715336699995 l 45.9621259074487 -43.08692356235048" fill="#4dd2ff" stroke="none" /><path d="M 83.28015986056508 112.70617746262583 l -13.588697569597421 10.326677848912293 a38.06730725783065,38.06730725783065 0 0,0 -0.3919822048458236,-0.5251242202073991 l 13.764441041138332 -10.091240749195586" fill="#ffde14" stroke="none" /><path d="M 82.85270091963577 112.12312394758628 l -3.2922106082151807 2.327589731647888 a25.03191327383381,25.03191327383381 0 0,0 -0.24571694734591623,-0.3539735890877073 l 3.331788462723231 -2.2705748803731685" fill="#ff3104" stroke="none" /><path d="M 82.6465618267979 111.8261652097733 l -39.8880628344357 27.183248430060893 a69.2699342437329,69.2699342437329 0 0,0 -0.6630019843520581,-0.9910980093158032 l 40.350067924198484 -26.492613506539268" fill="#3bff9a" stroke="none" /><line stroke="#e1ed5e" stroke-width="0.3" x1="26.63291911575756" x2="22.317208475507996" y1="142.92168965132927" y2="145.44649492493687" /><path d="M 25.769776987707644 143.4266507060508 a86.0,86.0 0 0,1 -11.730757126820373,-40.83630448921669" fill="none" id="id45" stroke="none" /><text fill="#e1ed5e" style="font-size:6.75px; font-family:Arial;" text-anchor="middle"><textPath startOffset="21.46611528233685" xlink:href="#id45">September</textPath></text><path d="M 81.18737489456691 109.33194174019688 l -13.09876627343868 6.49760057658745 a35.621781394175066,35.621781394175066 0 0,0 -0.2677515326977586,-0.5516474627417175 l 13.208671062751156 -6.271164157880448" fill="#ffbf11" stroke="none" /><path d="M 80.45479744820244 107.68017299344265 l -20.13660712496724 7.912561960454842 a42.63542426862294,42.63542426862294 0 0,0 -0.262524011899556,-0.6853673548169882 l 20.269825416460307 -7.564771038804696" fill="#e9ff1a" stroke="none" /><path d="M 80.0844068197444 106.66101706037122 l -18.90067994454441 6.321566745400388 a40.92982459738809,40.92982459738809 0 0,0 -0.21772278914637969,-0.6700818438236946 l 19.006694984707043 -5.99528600159889" fill="#fdff18" stroke="none" /><path d="M 79.86692584326677 105.97154293290107 l -24.058775255188323 7.135920139713357 a46.09474094347317,46.09474094347317 0 0,0 -0.2190759308088663,-0.7626320552077133 l 24.178043822883296 -6.7207306090010475" fill="#c1ff1e" stroke="none" /><path d="M 79.67330655649465 105.27499134158121 l -25.909733782293152 6.72384919584349 a47.76797438503235,47.76797438503235 0 0,0 -0.19968989000234763,-0.7976618469147303 l 26.021634986590556 -6.276859509531368" fill="#aeff20" stroke="none" /><path d="M 79.4281124754447 104.21870165774334 l -26.143608738409327 5.361301212271961 a47.687671845924314,47.687671845924314 0 0,0 -0.15798259650263707,-0.8055498559728387 l 26.23202126788763 -4.910487629231167" fill="#afff20" stroke="none" /><path d="M 79.23777060512086 103.15116336523772 l -28.99580192779934 4.400804318398799 a50.3278640218651,50.3278640218651 0 0,0 -0.12262252014220439,-0.857621620275196 l 29.067258498958143 -3.9010372261432025" fill="#92ff23" stroke="none" /><path d="M 79.10278846688536 102.07522291339032 l -28.48905306662416 2.8291399362525036 a49.629184015822496,49.629184015822496 0 0,0 -0.07710343642645373,-0.8508299960401957 l 28.53353109932769 -2.338328551663742" fill="#99ff23" stroke="none" /><path d="M 79.04373962182676 101.35467743843564 l -40.54678222550175 2.621069317274754 a61.63141091825663,61.63141091825663 0 0,0 -0.059323605457523396,-1.0592628267881778 l 40.5858921818468 -1.9227347741511382" fill="#31ff43" stroke="none" /><line stroke="#e1ed5e" stroke-width="0.3" x1="15.007084014347285" x2="10.007500721073583" y1="101.09737516637583" y2="101.16192664675087" /><path d="M 14.007167355692545 101.11028546245083 a86.0,86.0 0 0,1 10.666146001902534,-42.60595125391555" fill="none" id="id46" stroke="none" /><text fill="#e1ed5e" style="font-size:6.75px; font-family:Arial;" text-anchor="middle"><textPath startOffset="22.20632615414155" xlink:href="#id46">October</textPath></text><path d="M 79.00175016825051 100.2711162175752 l -60.87783938633182 0.7860164385518196 a81.88291345024224,81.88291345024224 0 0,0 -0.006065974780853906,-1.4095189099681598 l 60.88234965840218 0.2620119496200155" fill="#4ae5ff" stroke="none" /><path d="M 79.03285615573316 98.82574320788736 l -28.437076332707864 -1.5926074757501414 a49.48163810113577,49.48163810113577 0 0,0 0.05494678841199986,-0.8500024967094069 l 28.40544895329145 2.08186903671256" fill="#9bff22" stroke="none" /><path d="M 79.05617556472873 98.46500227214037 l -4.120397461182497 -0.301988815860307 a25.131449198891822,25.131449198891822 0 0,0 0.035334238569588935,-0.4311672088933548 l 4.114588738793411 0.3728699419614402" fill="#ff3204" stroke="none" /><path d="M 79.16333360222342 97.38593545837743 l -59.58261924285352 -7.474939094689421 a81.04967302415704,81.04967302415704 0 0,0 0.18558059781218214,-1.3827910107720114 l 59.4451226459835 8.499448447526092" fill="#49edff" stroke="none" /><path d="M 79.21141760316559 97.0276538004421 l -7.034028743474776 -1.005723632527825 a28.10556404439889,28.10556404439889 0 0,0 0.07259815290347092,-0.4783311207709079 l 7.0156746971320025 1.1266538656908247" fill="#ff5c08" stroke="none" /><path d="M 79.32604984820605 96.31383870115002 l -18.529966905155515 -3.3038895021631016 a39.8222038919108,39.8222038919108 0 0,0 0.12613071734211134,-0.6737953355500556 l 18.470350463903543 3.6223629151757297" fill="#fff316" stroke="none" /><path d="M 79.46518482838121 95.60439243477599 l -44.05563916377589 -9.430389276973782 a66.05365228307342,66.05365228307342 0 0,0 0.24756158065207395,-1.1097700241154513 l 43.88678319612178 10.187337470639193" fill="#37ff76" stroke="none" /><path d="M 79.62865764111835 94.90015583598534 l -48.98320766317403 -12.262654141043546 a71.4948246809164,71.4948246809164 0 0,0 0.30914249206269007,-1.1912521290766647 l 48.76486883924103 13.104002695669076" fill="#3effb2" stroke="none" /><path d="M 80.14247586403 93.16781622104843 l -39.98479020204745 -13.757175021047296 a63.28526116818338,63.28526116818338 0 0,0 0.36327825066529046,-1.0270365342061294 l 39.74205887057235 14.443409181680035" fill="#33ff57" stroke="none" /><path d="M 80.803312248108 91.48605970444005 l -32.45546455102048 -14.394352349916005 a56.5042893013799,56.5042893013799 0 0,0 0.4019814239646969,-0.8857127830492714 l 32.202880810092424 14.950887141807348" fill="#51ff2b" stroke="none" /><path d="M 80.95270993114464 91.15688171328213 l -26.667523571877272 -12.380977268023493 a50.401452541803856,50.401452541803856 0 0,0 0.37211105881335776,-0.7837607900123726 l 26.450454319222164 12.838180473676397" fill="#91ff24" stroke="none" /><line stroke="#e1ed5e" stroke-width="0.3" x1="26.266209847984243" x2="21.928928074336255" y1="57.711370442889674" y2="55.22380399835377" /><path d="M 25.398753493254645 57.213857153982495 a86.0,86.0 0 0,1 29.58750427330803,-30.492523968695096" fill="none" id="id47" stroke="none" /><text fill="#e1ed5e" style="font-size:6.75px; font-family:Arial;" text-anchor="middle"><textPath startOffset="21.46611528233685" xlink:href="#id47">November</textPath></text><path d="M 82.95767976084542 87.72973835380427 l -19.268331179345164 -13.872962233917324 a44.74294985002119,44.74294985002119 0 0,0 0.4553924385417642,-0.6211547743906558 l 19.026676128289765 14.20257945197948" fill="#d0ff1d" stroke="none" /><path d="M 84.07557802195018 86.31012108654704 l -6.46794851093644 -5.560354533132761 a29.529472461662266,29.529472461662266 0 0,0 0.33467879572045833,-0.38259571858818503 l 6.371277851638138 5.670865807923889" fill="#ff6f0a" stroke="none" /><path d="M 85.57189188830299 84.74124197986013 l -18.8570144943982 -19.942643825840392 a48.44623905758809,48.44623905758809 0 0,0 0.6108658172494783,-0.5677332025716056 l 18.510940793353864 20.26428161448665" fill="#a6ff21" stroke="none" /><path d="M 86.10567301691215 84.25364557470407 l -20.790892835943772 -23.562189648451795 a52.42352631302393,52.42352631302393 0 0,0 0.6817709587090895,-0.5912250571099319 l 20.38222807858791 23.91657969898141" fill="#7bff26" stroke="none" /><path d="M 86.65592168130627 83.78471172551755 l -19.92965875818714 -24.217870598327206 a52.363937165718,52.363937165718 0 0,0 0.7009202273840653,-0.5667620781434138 l 19.509835132238575 24.557338773734752" fill="#7cff26" stroke="none" /><path d="M 87.22198572758235 83.33499621200491 l -19.874902383922397 -25.920719483703632 a53.663365462292724,53.663365462292724 0 0,0 0.7378811037860096,-0.5557567494920556 l 19.425775126377996 26.25899282270154" fill="#6eff28" stroke="none" /><path d="M 88.70189139769569 82.29822771554957 l -16.443652088062205 -25.76376232816855 a51.564115287303665,51.564115287303665 0 0,0 0.7522979689952152,-0.4710889191688575 l 15.997734966694747 26.04299558866034" fill="#85ff25" stroke="none" /><line stroke="#e1ed5e" stroke-width="0.3" x1="56.762969772571076" x2="54.21961505331055" y1="26.818313649435495" y2="22.513508569990535" /><path d="M 56.25429882871897 25.957352633546506 a86.0,86.0 0 0,1 42.265352541879196,-11.944610805530505" fill="none" id="id48" stroke="none" /><text fill="#e1ed5e" style="font-size:6.75px; font-family:Arial;" text-anchor="middle"><textPath startOffset="22.20632615414155" xlink:href="#id48">December</textPath></text><path d="M 89.3179101791058 81.91981866633112 l -16.440761604932344 -27.827134583662826 a53.32101578365849,53.32101578365849 0 0,0 0.7942375221617435,-0.46007363732088535 l 15.959327350305282 28.10601237837376" fill="#72ff27" stroke="none" /><path d="M 89.94658935756843 81.56283822128135 l -0.3812835784388871 -0.6992439948266412 a21.796441668603723,21.796441668603723 0 0,0 0.330947780671007,-0.17678084298699615 l 0.3691907512395748 0.7057035643153868" fill="#ff0300" stroke="none" /><path d="M 90.26544431104013 81.39251694778311 l -0.3461566560171513 -0.6616741755924394 a21.746751059691857,21.746751059691857 0 0,0 0.33318043249875207,-0.17066795832406745 l 0.3347157359296355 0.667534659229012" fill="#ff0200" stroke="none" /></svg>