<?xml version="1.0" encoding="utf-8" ?>
<svg baseProfile="full" height="200mm" version="1.1" viewBox="0,0,200,200" width="200mm" xmlns="http://www.w3.org/2000/svg" xmlns:ev="http://www.w3.org/2001/xml-events" xmlns:xlink="http://www.w3.org/1999/xlink"><defs /><rect fill="#1a1a1a" height="200" width="200" x="0" y="0" /><text alignment-baseline="middle" fill="#e1ed5e" style="dominant-baseline: central; font-size:9.0px; font-family:Arial;" text-anchor="middle" x="100.0" y="100.0">2021</text><line stroke="#e1ed5e" stroke-width="0.3" x1="100.0" x2="100.0" y1="15.0" y2="10.0" /><path d="M 100.0 14.0 a86.0,86.0 0 0,1 42.46469731375804,11.215312516191453" fill="none" id="id25" stroke="none" /><text fill="#e1ed5e" style="font-size:6.75px; font-family:Arial;" text-anchor="middle"><textPath startOffset="22.20632615414155" xlink:href="#id25">January</textPath></text><path d="M 101.44485096284872 79.0497635885617 l 0.06050962525560499 -0.8773852714698267 a21.87946934531043,21.87946934531043 0 0,0 0.37550359064741873,0.029146305637647002 l -0.07560340526536488 0.8762137036437152" fill="#ff0000" stroke="none" /><path d="M 101.80526077348638 79.07773832637324 l 0.4854539520433001 -5.626220191740534 a26.647124860095033,26.647124860095033 0 0,0 0.4566490796398616,0.04336433249189551 l -0.582228158773406 5.61703031473346" fill="#ff4406" stroke="none" /><path d="M 102.52436894288641 79.15227682838746 l 0.6665860200126216 -5.5050593355027875 a26.545269624597406,26.545269624597406 0 0,0 0.45314705658124893,0.05883149335185099 l -0.7612478051017166 5.492769518986799" fill="#ff4306" stroke="none" /><path d="M 103.2404852339499 79.25152402106235 l 0.6529454354139084 -4.180738903021922 a25.231420035504488,25.231420035504488 0 0,0 0.4285386006812798,0.07071254097283178 l -0.7248132422340633 4.168880099109466" fill="#ff3004" stroke="none" /><path d="M 103.59715602781102 79.31037775812273 l 0.47507499982347534 -2.7324703757398354 a23.77346184573595,23.77346184573595 0 0,0 0.4025694771722733,0.07356699879389209 l -0.5220395980986495 2.7238878955952046" fill="#ff1b02" stroke="none" /><path d="M 104.307194497241 79.44645832069477 l 1.5495387626930934 -7.394258504720944 a28.554874533155825,28.554874533155825 0 0,0 0.4802077001079577,0.1049548036916957 l -1.676589186954579 7.366490202933377" fill="#ff5f08" stroke="none" /><path d="M 105.36241919743992 79.69619591428918 l 3.0653920742180816 -11.606537614688582 a33.0045134832637,33.0045134832637 0 0,0 0.5480354055599308,0.14979877849690934 l -3.2647253690017233 11.55205229536538" fill="#ff9a0e" stroke="none" /><path d="M 106.0581310904928 79.89281104454417 l 2.2178104066904947 -7.361004945020872 a28.68785254805569,28.68785254805569 0 0,0 0.47159363452890085,0.1465264378483139 l -2.344189413930114 7.321738372290038" fill="#ff6008" stroke="none" /><path d="M 106.40334571778207 80.00007090966166 l 1.6049705903233205 -5.012894729298347 a26.26355812761956,26.26355812761956 0 0,0 0.4293681263926936,0.14155592057934882 l -1.6910215389584315 4.984525084459762" fill="#ff3f05" stroke="none" /><path d="M 106.74666289553966 80.11325718540242 l 2.4811883488998956 -7.3136534807111335 a28.72307081792176,28.72307081792176 0 0,0 0.466842903272463,0.1628723222510661 l -2.6067132562356323 7.269860305287859" fill="#ff6108" stroke="none" /><path d="M 107.4271985657038 80.35727306442388 l 3.510932807635717 -9.285371034510492 a30.926971563788186,30.926971563788186 0 0,0 0.49632905107491393,0.19256796088261383 l -3.6702450237102977 9.223560369737331" fill="#ff7f0b" stroke="none" /><path d="M 107.76421540070413 80.48803036053334 l 1.5670073463655267 -3.9379896343850143 a25.238310321824883,25.238310321824883 0 0,0 0.4022699794785088,0.16409602502694254 l -1.634561195432423 3.9104327231744924" fill="#ff3004" stroke="none" /><path d="M 108.43124777332544 80.76684994638697 l 4.188091144735642 -9.553768029419228 a31.43142324884606,31.43142324884606 0 0,0 0.4936497823575428,0.22148626779805977 l -4.351923045559966 9.480261431104637" fill="#ff850c" stroke="none" /><path d="M 109.08828744355905 81.06846463323043 l 4.511434486241927 -9.39763206891993 a31.42441987001892,31.42441987001892 0 0,0 0.4856251031118786,0.23829412905033176 l -4.672530856364237 9.318582779734768" fill="#ff850c" stroke="none" /><path d="M 109.41281617654863 81.2277094730956 l 1.8970891792568614 -3.7834276756814824 a25.232407391918464,25.232407391918464 0 0,0 0.38658392624941557,0.1980233020261084 l -1.9619335930950323 3.7502118483428735" fill="#ff3004" stroke="none" /><path d="M 110.36928655335952 81.73862282372117 l 5.202580526617152 -9.16227792506499 a31.536326727663166,31.536326727663166 0 0,0 0.46974600221209706,0.27210720448769665 l -5.359523261294577 9.071366563187242" fill="#ff870c" stroke="none" /><line stroke="#e1ed5e" stroke-width="0.3" x1="143.23703022742887" x2="145.7803849466894" y1="26.81831364943548" y2="22.513508569990506" /><path d="M 143.74570117128098 25.957352633546492 a86.0,86.0 0 0,1 28.547481713284135,27.462654790039103" fill="none" id="id26" stroke="none" /><text fill="#e1ed5e" style="font-size:6.75px; font-family:Arial;" text-anchor="middle"><textPath startOffset="19.985693538727396" xlink:href="#id26">February</textPath></text><path d="M 112.77801427241765 83.33499621200491 l 6.396382558095105 -8.342120871645605 a31.512121121193786,31.512121121193786 0 0,0 0.4276156494006258,0.3337607970842278 l -6.539030762655161 8.230781685338153" fill="#ff870c" stroke="none" /><path d="M 113.34407831869373 83.78471172551755 l 7.183163895039278 -8.728746227286697 a32.30437323531772,32.30437323531772 0 0,0 0.4263292174013295,0.35703845900168196 l -7.332350649399724 8.603806610891196" fill="#ff910d" stroke="none" /><path d="M 113.89432698308785 84.25364557470407 l 7.480310617001042 -8.477389536749314 a32.30580294736315,32.30580294736315 0 0,0 0.41380504903475085,0.3715182587758073 l -7.625126653631782 8.34737226920421" fill="#ff910d" stroke="none" /><path d="M 114.16331599549186 84.49514656593476 l 2.9108326578449994 -3.1865442912763284 a25.315902140021567,25.315902140021567 0 0,0 0.319211966728518,0.29667273409726197 l -2.9652525083683643 3.135966971104426" fill="#ff3104" stroke="none" /><path d="M 114.42810811169701 84.74124197986012 l 7.173714436680064 -7.586716972694657 a31.441285995642737,31.441285995642737 0 0,0 0.3900467544875783,0.37522466878341176 l -7.30324443478006 7.462109217148943" fill="#ff860c" stroke="none" /><path d="M 115.4437574822437 85.77008943001954 l 7.81300947554472 -7.198923335026313 a31.62391708592165,31.62391708592165 0 0,0 0.3654164090252426,0.4035019256567425 l -7.935769525185998 7.063368622100022" fill="#ff880c" stroke="none" /><path d="M 115.9244219780498 86.31012108654704 l 7.832676160322535 -6.73358118435373 a31.32917864105213,31.32917864105213 0 0,0 0.3480364221487411,0.411965347485595 l -7.947423195958393 6.5977568872390275" fill="#ff840c" stroke="none" /><path d="M 116.38621287248628 86.86637796730983 l 9.768919875657396 -7.829832452008888 a33.51950764860766,33.51950764860766 0 0,0 0.3569762431481197,0.45332357729304196 l -9.902250199399479 7.660516480762808" fill="#ffa10e" stroke="none" /><path d="M 116.60985879189232 87.15038557335679 l 3.1957514882258016 -2.4722771542836472 a25.04041853055971,25.04041853055971 0 0,0 0.26080676188054086,0.3431911272097982 l -3.237834190330456 2.4169012511928156" fill="#ff2d04" stroke="none" /><path d="M 116.82858285166822 87.43820079747576 l 6.491580132977293 -4.845679927794561 a29.10069296946234,29.10069296946234 0 0,0 0.29618600425409336,0.4039973769420569 l -6.574028749745013 4.73322010718101" fill="#ff6609" stroke="none" /><path d="M 117.2510076193507 88.02491185347247 l 8.632722123653952 -5.99255479194585 a31.508786999397103,31.508786999397103 0 0,0 0.30544848331106345,0.44820795889579146 l -8.734595072633748 5.843068809779653" fill="#ff860c" stroke="none" /><path d="M 117.45458315368197 88.32363383020206 l 3.505716220915161 -2.345173523904569 a25.217805718476214,25.217805718476214 0 0,0 0.23825226206837347,0.36287454067828695 l -3.545565118341459 2.2844809192486077" fill="#ff3004" stroke="none" /><path d="M 117.65298651832404 88.62581576622439 l 7.122193921221764 -4.588976812765618 a29.472564808816085,29.472564808816085 0 0,0 0.27110886613885044,0.4288291192966315 l -7.20013038360657 4.46570004575478" fill="#ff6b09" stroke="none" /><line stroke="#e1ed5e" stroke-width="0.3" x1="172.23445277983987" x2="176.4835382374775" y1="55.19839476539836" y2="52.563006222186495" /><path d="M 173.08426987136738 54.67131705675599 a86.0,86.0 0 0,1 12.851231095245387,41.99856678651699" fill="none" id="id27" stroke="none" /><text fill="#e1ed5e" style="font-size:6.75px; font-family:Arial;" text-anchor="middle"><textPath startOffset="22.20632615414155" xlink:href="#id27">March</textPath></text><path d="M 117.84615892207809 88.93136811851018 l 3.913392178307089 -2.4271832173362062 a25.604981727624295,25.604981727624295 0 0,0 0.22908435960907209,0.3765544535206763 l -3.954592336202385 2.3594609906084485" fill="#ff3505" stroke="none" /><path d="M 118.03404312379186 89.2402003453031 l 5.107193138555933 -3.0471466986905007 a26.94714425231583,26.94714425231583 0 0,0 0.23423526113870383,0.40038398976152084 l -5.158888074164963 2.9587832965750844" fill="#ff4806" stroke="none" /><path d="M 118.73160827565052 90.50648371742162 l 4.4418342879961825 -2.251201579547355 a25.979738988518882,25.979738988518882 0 0,0 0.19873261593283387,0.4006328268919919 l -4.479926916882425 2.174409164156413" fill="#ff3b05" stroke="none" /><path d="M 119.7369772167798 92.82701384747503 l 7.709181213223463 -2.8017385581589926 a29.20251265933753,29.20251265933753 0 0,0 0.1676320444616988,0.4739183632670984 l -7.756266338494972 2.66862256846528" fill="#ff6709" stroke="none" /><path d="M 119.85752413597 93.16781622104841 l 11.066840118660844 -3.8076592542573695 a32.70355583609242,32.70355583609242 0 0,0 0.1785656293072562,0.5338885033664006 l -11.13074304173987 3.616597647968655" fill="#ff960d" stroke="none" /><path d="M 120.18372546131832 94.20196356495316 l 23.92042896767726 -6.871452892199814 a45.887824068154586,45.887824068154586 0 0,0 0.2115499257009817,0.7610576396970481 l -24.035165663944607 6.458683949083814" fill="#c5ff1e" stroke="none" /><path d="M 120.37134235888165 94.90015583598534 l 23.754403154930714 -5.946773274197485 a45.4874617227203,45.4874617227203 0 0,0 0.1836116549275315,0.7611888487472088 l -23.853247610119066 5.53699919379087" fill="#caff1d" stroke="none" /><path d="M 120.45610955862082 95.25157060432595 l 29.786711339311456 -6.914320404802339 a51.578685371868616,51.578685371868616 0 0,0 0.19331104999152174,0.866575532624247 l -29.901316776305016 6.4005667026281285" fill="#86ff25" stroke="none" /><path d="M 120.6074358757038 95.95851677861258 l 6.695831751419142 -1.3131712183803879 a27.823384899893554,27.823384899893554 0 0,0 0.08812630023779866,0.4707742197204418 l -6.7174437755668 1.1977189211973833" fill="#ff5407" stroke="none" /><path d="M 120.67395015179393 96.31383870115 l 4.425163150609789 -0.7890057307436953 a25.49495260850002,25.49495260850002 0 0,0 0.0733139394598786,0.4327030207563623 l -4.438088951589891 0.7127169216714951" fill="#ff3404" stroke="none" /><path d="M 120.73433829027371 96.67025291283417 l 9.02805297945809 -1.449823606149552 a30.143726214670394,30.143726214670394 0 0,0 0.07786283318691192,0.5130187859492029 l -9.051671706084301 1.2942057078082667" fill="#ff740a" stroke="none" /><path d="M 120.78858239683441 97.02765380044208 l 26.042005448140127 -3.7234792851691876 a47.30684978761319,47.30684978761319 0 0,0 0.10831917189325686,0.8071036463620921 l -26.10224061909122 3.274657296742431" fill="#b5ff20" stroke="none" /><path d="M 120.87857604477298 97.74499172005257 l 11.078698596251181 -1.1965642202808573 a32.143129206817726,32.143129206817726 0 0,0 0.054678331658811155,0.550603337877204 l -11.09765405359222 1.0056853516992184" fill="#ff8f0d" stroke="none" /><path d="M 120.91429891909075 98.10471618934814 l 2.9179661088394777 -0.264430280331611 a23.92992313644779,23.92992313644779 0 0,0 0.03364492060778267,0.41055325087380756 l -2.9220855132667554 0.2141631122500347" fill="#ff1e03" stroke="none" /><path d="M 120.94382443527127 98.46500227214037 l 4.4796339280924204 -0.3283176824995061 a25.49164921051929,25.49164921051929 0 0,0 0.02830715209105085,0.43789911380648117 l -4.484621671187886 0.2511595044399897" fill="#ff3404" stroke="none" /><path d="M 120.96714384426684 98.82574320788733 l 8.21340216014048 -0.45998841542430713 a29.226272812551557,29.226272812551557 0 0,0 0.023807432028867512,0.5025372622580262 l -8.220103200402846 0.3185400465432812" fill="#ff6809" stroke="none" /><path d="M 120.98425023603335 99.18683210126433 l 7.82027162862515 -0.30304603577741895 a28.826141146521692,28.826141146521692 0 0,0 0.014946087260382386,0.495987872894231 l -7.824329410341178 0.16838801545818888" fill="#ff6209" stroke="none" /><line stroke="#e1ed5e" stroke-width="0.3" x1="184.98032266829074" x2="189.97916517819016" y1="98.17113171792111" y2="98.06355123074" /><path d="M 185.9800911702706 98.14961562048488 a86.0,86.0 0 0,1 -9.607161424134198,41.387399972396054" fill="none" id="id28" stroke="none" /><text fill="#e1ed5e" style="font-size:6.75px; font-family:Arial;" text-anchor="middle"><textPath startOffset="21.466115282336823" xlink:href="#id28">April</textPath></text><path d="M 120.99513854157772 99.54816195383933 l 8.819996860373655 -0.18981585382932073 a29.82203914496904,29.82203914496904 0 0,0 0.006627583067846605,0.5133136124575175 l -8.821957450559216 0.03796598331134048" fill="#ff700a" stroke="none" /><path d="M 120.99824983174949 100.27111621757518 l 26.283266772047632 0.3393530379842807 a47.2854574374313,47.2854574374313 0 0,0 -0.017513491612337555,0.8137831372814633 l -26.273531217750286 -0.7917259910558588" fill="#b5ff1f" stroke="none" /><path d="M 120.9904718944345 100.63252640178507 l 4.584268920059176 0.13814225518145645 a25.586349835554103,25.586349835554103 0 0,0 -0.017054967896225015,0.4401129393553135 l -4.581211819311748 -0.21703244155077614" fill="#ff3505" stroke="none" /><path d="M 120.9764740272857 100.99374915477107 l 30.715870137902783 1.4551477978564904 a51.750319241304055,51.750319241304055 0 0,0 -0.049812514028669576,0.8894359001360852 l -30.686271272986584 -1.983655414327999" fill="#84ff25" stroke="none" /><path d="M 120.89721153311464 102.0752229133903 l 34.811877629018554 3.457035691072944 a55.98310906462024,55.98310906462024 0 0,0 -0.1034826404144837,0.9581207290547328 l -34.747212687103016 -4.055752742012468" fill="#58ff2a" stroke="none" /><path d="M 120.76222939487914 103.15116336523771 l 26.021852385818008 3.9494365645549383 a47.31985658712345,47.31985658712345 0 0,0 -0.1291567220690165,0.8042590316134844 l -25.950013909387703 -4.396774825861628" fill="#b5ff20" stroke="none" /><path d="M 120.64145759157962 103.86396538481128 l 5.826537786604634 1.0906952777365542 a26.92774482983271,26.92774482983271 0 0,0 -0.0892078577440798,0.45486894473334627 l -5.80689999588489 -1.1908279495378453" fill="#ff4806" stroke="none" /><path d="M 120.49622156327973 104.57218783832717 l 25.689580663153837 5.730694699857722 a47.32100713102872,47.32100713102872 0 0,0 -0.18419011154697912,0.793486179841299 l -25.587129985676302 -6.172049537047586" fill="#b5ff20" stroke="none" /><path d="M 120.23288151984713 105.62410040840565 l 8.772493413290551 2.438475396597692 a30.105097635173298,30.105097635173298 0 0,0 -0.14308144815491292,0.4980852915497928 l -8.729219328249538 -2.589118163652067" fill="#ff740a" stroke="none" /><path d="M 120.13307415673323 105.97154293290107 l 8.764902680896778 2.599701975675209 a30.142317505311283,30.142317505311283 0 0,0 -0.1518214384134128,0.4961612450646703 l -8.718854469977233 -2.750190193291936" fill="#ff740a" stroke="none" /><path d="M 120.02730092923936 106.31721596034902 l 8.477699378587522 2.674122589493047 a29.88944983547015,29.88944983547015 0 0,0 -0.1589944361658656,0.48933455869014975 l -8.43041269140541 -2.819656048160992" fill="#ff710a" stroke="none" /><path d="M 119.9155931802556 106.66101706037122 l 33.56450719802051 11.226065578132978 a56.39209928515844,56.39209928515844 0 0,0 -0.3158203780140149,0.9179218507507384 l -33.36629598906326 -11.802160131973016" fill="#54ff2b" stroke="none" /><path d="M 119.67450827220406 107.3425965602758 l 6.235559979959834 2.3271331932057135 a27.655656027965726,27.655656027965726 0 0,0 -0.17028735838144218,0.4445665580385778 l -6.194578341984885 -2.434123318077435" fill="#ff5207" stroke="none" /><path d="M 119.41010516605496 108.01547362559984 l 32.51040391857611 13.425289710571292 a56.173353078171836,56.173353078171836 0 0,0 -0.37676007924754745,0.890549534212973 l -32.274492858136256 -13.982913770450427" fill="#56ff2b" stroke="none" /><line stroke="#e1ed5e" stroke-width="0.3" x1="174.80103733775053" x2="179.2010983576182" y1="140.37084112569926" y2="142.7455964860345" /><path d="M 175.68104954172406 140.8457921977663 a86.0,86.0 0 0,1 -30.038265399797805,32.042727171017184" fill="none" id="id29" stroke="none" /><text fill="#e1ed5e" style="font-size:6.75px; font-family:Arial;" text-anchor="middle"><textPath startOffset="22.206326154141568" xlink:href="#id29">May</textPath></text><path d="M 118.12598468904814 110.60418214915192 l 3.648489462138189 2.1344631748007075 a25.226985734529244,25.226985734529244 0 0,0 -0.2225009622153724,0.37292441090439904 l -3.6112076242245896 -2.196949679591211" fill="#ff3004" stroke="none" /><path d="M 117.75023020441432 111.22182372390056 l 22.21408444056181 14.043904609069926 a47.28111116754894,47.28111116754894 0 0,0 -0.44082912479691033,0.6841765912157475 l -21.969050452387847 -14.424202800207127" fill="#b5ff1f" stroke="none" /><path d="M 116.93607887273984 112.41649034213515 l 19.26482647441341 14.123784711907554 a44.88754557667182,44.88754557667182 0 0,0 -0.4622107617459923,0.6192068487619259 l -19.018854445972327 -14.453304440178796" fill="#d1ff1d" stroke="none" /><path d="M 116.27256486870786 113.27417163493432 l 5.118946913515708 4.175726473875809 a27.60608122021061,27.60608122021061 0 0,0 -0.3035406943338267,0.3656343203145013 l -5.046310219288338 -4.26322205130408" fill="#ff5107" stroke="none" /><path d="M 114.55890576462653 115.13401014063108 l 17.86430352027036 18.56997737343473 a46.76775892300729,46.76775892300729 0 0,0 -0.5849625892820748,0.5531186396900895 l -17.54200509659748 -18.87473064987074" fill="#bbff1f" stroke="none" /><path d="M 114.29624159901734 115.38237550388516 l 17.9562213198538 19.320416282825335 a47.37620839751678,47.37620839751678 0 0,0 -0.6021300650404272,0.5500315380483839 l -17.62099170534651 -19.626640587460304" fill="#b4ff20" stroke="none" /><path d="M 114.0293411484842 115.62618273729858 l 23.099285118776347 25.72848193986358 a55.57646245538153,55.57646245538153 0 0,0 -0.7173535784252898,0.6329811276899286 l -22.65298918744447 -26.122286209325797" fill="#5cff2a" stroke="none" /><path d="M 113.75828350139079 115.86535959552629 l 23.466915972667483 27.060865584484656 a56.818802205682175,56.818802205682175 0 0,0 -0.7444197174439705,0.6344106330466239 l -22.997630778646464 -27.460800607754226" fill="#4fff2b" stroke="none" /><path d="M 113.20401910651253 116.32954008644616 l 16.089172731019968 19.897637904762124 a46.588619997131985,46.588619997131985 0 0,0 -0.6279314197536567,0.4988666966979804 l -15.74428381854896 -20.17163851546523" fill="#bdff1f" stroke="none" /><path d="M 112.92097659922987 116.55440617244103 l 37.3233493910524 47.81882242339464 a81.66030157958929,81.66030157958929 0 0,0 -1.1155235497972162,0.8553358896200857 l -36.4946971127617 -48.454197654842105" fill="#4ae7ff" stroke="none" /><path d="M 112.34349029814194 116.9893568818739 l 13.397398243923288 18.439936724288255 a43.793015292015085,43.793015292015085 0 0,0 -0.6136708395969495,0.4378378500810676 l -13.078000076477453 -18.66781883621354" fill="#ddff1b" stroke="none" /><path d="M 112.04921762599082 117.19931262002967 l 15.099084983748075 21.552758940273836 a47.31546665525809,47.31546665525809 0 0,0 -0.6710755235297217,0.4615718642770658 l -14.72585257559547 -21.809471593915998" fill="#b5ff20" stroke="none" /><path d="M 111.7513745106137 117.40417183066458 l 16.508944919511595 24.45028995226462 a50.501897245859965,50.501897245859965 0 0,0 -0.7246428286577205,0.4802537532686253 l -16.08562739211391 -24.73084172662456" fill="#92ff23" stroke="none" /><path d="M 111.1453310114006 117.79835938074945 l 2.2878420798442822 3.6535330805175144 a25.310745336103956,25.310745336103956 0 0,0 -0.3712493347017298,0.22805166336955748 l -2.224613545210244 -3.69237321071545" fill="#ff3104" stroke="none" /><line stroke="#e1ed5e" stroke-width="0.3" x1="143.8653032363475" x2="146.44561519142675" y1="172.8068346515853" y2="177.08958963109032" /><path d="M 144.38136562736335 173.6633856474863 a86.0,86.0 0 0,1 -40.68145358897372,12.25698825130547" fill="none" id="id30" stroke="none" /><text fill="#e1ed5e" style="font-size:6.75px; font-family:Arial;" text-anchor="middle"><textPath startOffset="21.466115282336833" xlink:href="#id30">June</textPath></text><path d="M 110.21172684928248 118.3499491758327 l 4.311742367091206 7.747979794520987 a29.866922416288233,29.866922416288233 0 0,0 -0.4513847549818468,0.2461309584430639 l -4.17773480024071 -7.821051404723821" fill="#ff700a" stroke="none" /><path d="M 109.57404056367764 118.69057910512821 l 2.013273325191532 3.9303410189733388 a25.41597667649549,25.41597667649549 0 0,0 -0.39109874025883895,0.19610502744244687 l -1.9453206772499323 -3.9644138873250876" fill="#ff3304" stroke="none" /><path d="M 109.2508944713604 118.85261126421891 l 11.63477792045293 23.710782342062572 a47.411536428820746,47.411536428820746 0 0,0 -0.735753291085627,0.35320629137496795 l -11.22491196136707 -23.9075429099371" fill="#b4ff20" stroke="none" /><path d="M 107.93186726928326 119.44442032107085 l 9.928218551534743 24.33833648516649 a47.28543601449717,47.28543601449717 0 0,0 -0.7562943508304997,0.3009451303320221 l -9.507803124662377 -24.50562845990458" fill="#b5ff1f" stroke="none" /><path d="M 107.59598834532513 119.57807347666477 l 8.030544730260617 20.69810900690053 a43.201382054418445,43.201382054418445 0 0,0 -0.6956035131862636,0.2630177282604472 l -7.673070996314079 -20.833274985267607" fill="#e4ff1a" stroke="none" /><path d="M 106.91757812671514 119.82793768551818 l 20.752734380145416 59.48381305655456 a84.0,84.0 0 0,0 -1.3693210682510921,0.46454805240750785 l -19.725743578957097 -59.83222409586019" fill="#4dd2ff" stroke="none" /><path d="M 105.53697534728816 120.25689768951611 l 5.446825141161528 19.92708522194023 a41.65808871993869,41.65808871993869 0 0,0 -0.6933285781821488,0.18311437906329187 l -5.103006120167882 -20.01789095030711" fill="#f7ff19" stroke="none" /><path d="M 104.83641907484287 120.43548508189849 l 6.031420259213992 25.484764000487786 a47.18876145417754,47.18876145417754 0 0,0 -0.7920517898906841,0.1802684086798848 l -5.591848319930445 -25.584809142745353" fill="#b6ff1f" stroke="none" /><path d="M 104.48393922423573 120.51570834832081 l 6.565068666922381 30.037658255779732 a51.746724054643906,51.746724054643906 0 0,0 -0.8718301339805148,0.18270048122123203 l -6.0470470715124875 -30.146214717727503" fill="#84ff25" stroke="none" /><path d="M 102.34483914955558 120.86867818915974 l 3.3703092910563437 29.995191783760585 a51.1839446537718,51.1839446537718 0 0,0 -0.8763846702209178,0.09084085438912301 l -2.853492024229823 -30.048762006605468" fill="#8aff24" stroke="none" /><path d="M 101.98527174616119 120.90594882070398 l 0.4006370933933204 4.218917932193403 a25.23789789862683,25.23789789862683 0 0,0 -0.4328367779261551,0.03734697848164658 l -0.32795599772562356 -4.225189162953712" fill="#ff3004" stroke="none" /><line stroke="#e1ed5e" stroke-width="0.3" x1="102.19456741930631" x2="102.32365962044197" y1="184.97166512339345" y2="189.96999836594603" /><path d="M 102.22038585953345 185.97133177190398 a86.0,86.0 0 0,1 -42.740103519485714,-10.115201625700543" fill="none" id="id31" stroke="none" /><text fill="#e1ed5e" style="font-size:6.75px; font-family:Arial;" text-anchor="middle"><textPath startOffset="22.20632615414155" xlink:href="#id31">July</textPath></text><path d="M 99.81925306533755 120.99922214144158 l -0.06012253173182636 6.985050130450667 a27.98530887246446,27.98530887246446 0 0,0 -0.48166755796728694,-0.008292343824221185 l 0.18034977959178125 -6.982980309347286" fill="#ff5708" stroke="none" /><path d="M 99.45781275523022 120.99299961872073 l -0.5715540445785599 22.130055540149748 a43.137435087109495,43.137435087109495 0 0,0 -0.7421274941870872,-0.025560371436676096 l 0.9524018904402901 -22.116938370286977" fill="#e5ff1a" stroke="none" /><path d="M 98.73552117531835 120.96189622390904 l -1.3400457894984033 22.21460749397985 a43.254988403266765,43.254988403266765 0 0,0 -0.7428266476330249,-0.05122967473895865 l 1.7222351979103583 -22.188249474724607" fill="#e4ff1a" stroke="none" /><path d="M 98.01472825383883 120.90594882070398 l -0.3968121739459181 4.178639531835734 a25.197438294771235,25.197438294771235 0 0,0 -0.4314370218972228,-0.04472021135919634 l 0.46868179244873426 -4.171189952020778" fill="#ff3004" stroke="none" /><path d="M 97.65516085044442 120.86867818915974 l -0.13047302061744742 1.1611881694099 a22.168495260532346,22.168495260532346 0 0,0 -0.3788411914866812,-0.04587239240481184 l 0.15044163515551795 -1.1587702482797395" fill="#ff0400" stroke="none" /><path d="M 97.2962882734958 120.8252237178851 l -0.20161113683309861 1.5529011423104129 a22.56593390929634,22.56593390929634 0 0,0 -0.38477217838507627,-0.05332591787209484 l 0.22831190640500595 -1.5492006589457132" fill="#ff0a01" stroke="none" /><path d="M 96.93821686468263 120.77559828337769 l -3.8342141067111912 26.01689554516237 a47.297909643619825,47.297909643619825 0 0,0 -0.8044341452850411,-0.12563606946975064 l 4.28148411560475 -25.947041168345514" fill="#b5ff20" stroke="none" /><path d="M 96.58105272829116 120.7198165907248 l -4.264746558996336 25.845606698743453 a47.19510352792299,47.19510352792299 0 0,0 -0.8004087934739456,-0.13916132844272702 l 4.709004323942332 -25.76836679177972" fill="#b6ff1f" stroke="none" /><path d="M 94.81253420990036 120.34920634021253 l -6.477868012405425 25.411150292437583 a47.22383139762373,47.22383139762373 0 0,0 -0.7859609714537313,-0.20757943604903822 l 6.914319426670646 -25.295879507084962" fill="#b6ff1f" stroke="none" /><path d="M 94.46302465271185 120.25689768951611 l -5.844862342304137 21.383295220078715 a43.16771820168973,43.16771820168973 0 0,0 -0.7150811288767145,-0.20208906977289484 l 6.212074639285465 -21.279517356967297" fill="#e5ff1a" stroke="none" /><path d="M 94.11515582081647 120.15858648285463 l -7.24607919452924 24.82150922894906 a46.857551780789166,46.857551780789166 0 0,0 -0.7723129194187216,-0.23269154724137853 l 7.672267088388208 -24.693102312601958" fill="#baff1f" stroke="none" /><path d="M 93.42475214034765 119.94407469862007 l -3.352276824139582 10.16814283174834 a31.70648815216729,31.70648815216729 0 0,0 -0.5168614550835292,-0.17534746809251234 l 3.526808012160337 -10.108932376757705" fill="#ff890c" stroke="none" /><path d="M 92.06813273071674 119.44442032107085 l -4.918132341056374 12.056458988476452 a34.02099186179606,34.02099186179606 0 0,0 -0.540331988672074,-0.22585881508714956 l 5.12493578922591 -11.97001513036933" fill="#ffa80f" stroke="none" /><path d="M 91.07499286063937 119.00905698771935 l -16.38156796930783 34.89052212669472 a59.54483497702936,59.54483497702936 0 0,0 -0.9240432097633318,-0.44359689469978675 l 16.979723847071405 -34.60337095549537" fill="#34ff2f" stroke="none" /><path d="M 90.7491055286396 118.85261126421891 l -15.085123161391397 30.742320509116723 a55.24399525580515,55.24399525580515 0 0,0 -0.850089580519312,-0.42625256324258953 l 15.61206664959347 -30.47810010496483" fill="#5fff29" stroke="none" /><path d="M 90.10565033884886 118.52300852407294 l -16.2517525797496 30.42457178846086 a55.493101200451754,55.493101200451754 0 0,0 -0.838678305699445,-0.4573142821704541 l 16.773053697317685 -30.14031685453064" fill="#5dff2a" stroke="none" /><line stroke="#e1ed5e" stroke-width="0.3" x1="58.666819895761336" x2="56.23545636021788" y1="174.27360380694188" y2="178.64263932499728" /><path d="M 58.180547188652646 175.14741091055294 a86.0,86.0 0 0,1 -31.652253787137756,-30.449443065178592" fill="none" id="id32" stroke="none" /><text fill="#e1ed5e" style="font-size:6.75px; font-family:Arial;" text-anchor="middle"><textPath startOffset="22.20632615414155" xlink:href="#id32">August</textPath></text><path d="M 89.7882731507175 118.34994917583269 l -2.0132197518990487 3.6176525941570534 a25.140104353932124,25.140104353932124 0 0,0 -0.3763248953994328,-0.21368709708425926 l 2.075193414219689 -3.582462331278161" fill="#ff2f04" stroke="none" /><path d="M 89.4739219176387 118.17145234162733 l -12.730363249378172 21.976769245643485 a46.397648216663285,46.397648216663285 0 0,0 -0.687639944464205,-0.4062697998234482 l 13.10677106487076 -21.754380873526287" fill="#bfff1e" stroke="none" /><path d="M 88.8546689885994 117.79835938074946 l -3.531504635565099 5.639580250624741 a27.654050675660233,27.654050675660233 0 0,0 -0.40127107085667835,-0.25611018290434495 l 3.628057508468701 -5.577955638896592" fill="#ff5207" stroke="none" /><path d="M 88.24862548938628 117.40417183066458 l -5.816560984502406 8.614517965229293 a31.39433987609092,31.39433987609092 0 0,0 -0.44526609494774977,-0.30625808025808166 l 5.963983964073046 -8.513119095606111" fill="#ff850c" stroke="none" /><path d="M 87.95078237400918 117.19931262002967 l -21.409088380930225 30.55979362337932 a58.31286710514239,58.31286710514239 0 0,0 -0.8171372963725234,-0.5830057646209579 l 21.931953005151637 -30.186743596914145" fill="#41ff2d" stroke="none" /><path d="M 87.65650970185807 116.9893568818739 l -15.395585148879377 21.19020505399208 a47.19253390389381,47.19253390389381 0 0,0 -0.6530885541191908,-0.48313929919516324 l 15.758058673417132 -20.922055806057152" fill="#b6ff1f" stroke="none" /><path d="M 87.36589467227662 116.77436683061367 l -15.76804556058044 20.93531544767227 a47.20913378374199,47.20913378374199 0 0,0 -0.6449021064411027,-0.49448343518246585 l 16.126076395515028 -20.66079267066244" fill="#b6ff1f" stroke="none" /><path d="M 87.07902340077011 116.55440617244103 l -23.91049925874518 30.634225940685464 a59.86087716183746,59.86087716183746 0 0,0 -0.8068177504773673,-0.6409848167429548 l 24.434274501939903 -30.21810720993738" fill="#31ff2f" stroke="none" /><path d="M 86.51685102203217 116.09983520530335 l -22.83288245241452 27.264079433270588 a56.56220674296615,56.56220674296615 0 0,0 -0.7410578950464756,-0.6315456150663082 l 23.298805824038052 -26.867009427981326" fill="#52ff2b" stroke="none" /><path d="M 85.70375840098266 115.38237550388516 l -23.444888690930206 25.226076307738655 a55.43860815442402,55.43860815442402 0 0,0 -0.693415988257916,-0.6556680977415964 l 23.875640513578936 -24.818773573251125" fill="#5dff2a" stroke="none" /><path d="M 85.44109423537348 115.13401014063109 l -18.100171292899454 18.81516237020078 a47.10797839453145,47.10797839453145 0 0,0 -0.5795404029384408,-0.5672022613610995 l 18.42136164821369 -18.50081000591711" fill="#b7ff1f" stroke="none" /><path d="M 84.9287848128048 114.62390073753433 l -23.44386468591359 22.74804956419646 a53.666321347629044,53.666321347629044 0 0,0 -0.6375902660869068,-0.668510844939829 l 23.831961503379453 -22.34113160267413" fill="#70ff27" stroke="none" /><path d="M 84.67929136418377 114.36230785411682 l -23.25840505800848 21.803454499353123 a52.88015109668956,52.88015109668956 0 0,0 -0.6168182360410809,-0.6694343721414403 l 23.630269702045293 -21.399868872410337" fill="#78ff26" stroke="none" /><path d="M 83.95833913139862 113.55231037782056 l -26.177034811749596 22.114873481350084 a55.26813068481663,55.26813068481663 0 0,0 -0.6076967835014736,-0.7320099233498696 l 26.553827595144604 -21.66100230088645" fill="#5fff29" stroke="none" /><path d="M 82.44556493220864 111.52570212397912 l -12.664661473813407 8.31522718244746 a36.15046709979619,36.15046709979619 0 0,0 -0.33705169737086715,-0.5231117192561137 l 12.805918034561321 -8.095993863269898" fill="#ffc312" stroke="none" /><path d="M 82.24976979558568 111.22182372390057 l -22.486731529744368 14.216274067854794 a47.60367537133094,47.60367537133094 0 0,0 -0.4319134971431521,-0.6963820816461849 l 22.728109666555476 -13.827095654843346" fill="#b2ff20" stroke="none" /><path d="M 82.05923443525364 110.91462005526583 l -29.767714090978124 18.109778428588612 a55.8436633684633,55.8436633684633 0 0,0 -0.49253878223378567,-0.8255233298016488 l 30.075033748910144 -17.59469300490085" fill="#59ff2a" stroke="none" /><line stroke="#e1ed5e" stroke-width="0.3" x1="26.63291911575756" x2="22.317208475507996" y1="142.92168965132927" y2="145.44649492493687" /><path d="M 25.769776987707644 143.4266507060508 a86.0,86.0 0 0,1 -11.730757126820373,-40.83630448921669" fill="none" id="id33" stroke="none" /><text fill="#e1ed5e" style="font-size:6.75px; font-family:Arial;" text-anchor="middle"><textPath startOffset="21.46611528233685" xlink:href="#id33">September</textPath></text><path d="M 81.35079622478065 109.6543875284942 l -32.729440347450854 16.943495524720205 a57.855098779593,57.855098779593 0 0,0 -0.4502265334384774,-0.8883396634764235 l 33.0162455506756 -16.3776016495411" fill="#45ff2d" stroke="none" /><path d="M 81.18737489456691 109.33194174019688 l -28.944190246966713 14.357671807527897 a53.30957890139214,53.30957890139214 0 0,0 -0.4007020676583542,-0.825564943408227 l 29.187045571239786 -13.857317908154386" fill="#73ff27" stroke="none" /><path d="M 80.73074385275274 108.34839909993369 l -8.459392847531776 3.6650292618798694 a30.21920641049475,30.21920641049475 0 0,0 -0.2026831224793021,-0.47908302991458185 l 8.521226951203385 -3.518871706299129" fill="#ff750a" stroke="none" /><path d="M 80.20201598880116 107.00284435728193 l -25.255318687189085 8.933185614247272 a47.78867162085639,47.78867162085639 0 0,0 -0.2676374266502781,-0.7778796401481224 l 25.40534694478259 -8.497133271009853" fill="#b0ff20" stroke="none" /><path d="M 79.97269907076064 106.31721596034903 l -30.453598404867467 9.605985278446367 a52.932688721350644,52.932688721350644 0 0,0 -0.2666124440945528,-0.8713048933937786 l 30.614437621468152 -9.08035341250054" fill="#77ff26" stroke="none" /><path d="M 79.76711848015287 105.62410040840567 l -25.63924007927141 7.126896900947748 a47.61133764543331,47.61133764543331 0 0,0 -0.21269100821235087,-0.7915023645553122 l 25.758119163825533 -6.684503603216897" fill="#b1ff20" stroke="none" /><path d="M 79.58551787078972 104.9243191809786 l -31.327671450524747 7.556765459089432 a53.226195908231404,53.226195908231404 0 0,0 -0.20717519672420168,-0.892505325209207 l 31.453107213179504 -7.01639147653165" fill="#74ff27" stroke="none" /><path d="M 79.4281124754447 104.21870165774334 l -4.585946875874186 0.9404456282623754 a25.68138299309702,25.68138299309702 0 0,0 -0.08507883505273045,-0.43381514698626894 l 4.601455643902583 -0.8613667542081517" fill="#ff3705" stroke="none" /><path d="M 79.23777060512086 103.15116336523772 l -31.84824674089163 4.83373083247516 a53.212975246467614,53.212975246467614 0 0,0 -0.12965201793884484,-0.9067859114925378 l 31.92673280984707 -4.284799449002222" fill="#75ff27" stroke="none" /><path d="M 79.1416061653843 102.43462659150553 l -5.945764739654572 0.6939995982804634 a26.98613011734067,26.98613011734067 0 0,0 -0.049882831549919696,-0.4618530677270521 l 5.956829872705543 -0.5915502086686292" fill="#ff4906" stroke="none" /><path d="M 79.10278846688536 102.07522291339032 l -34.76442117185763 3.4523229700894715 a55.93541918031198,55.93541918031198 0 0,0 -0.08690074443660487,-0.9589424735357056 l 34.81869651257131 -2.8533991080051995" fill="#58ff2a" stroke="none" /><path d="M 79.04373962182676 101.35467743843564 l -2.206624939256993 0.14264305588674123 a23.211230576838073,23.211230576838073 0 0,0 -0.022342079540419123,-0.3989328387543131 l 2.2087533696849437 -0.10463850079699047" fill="#ff1302" stroke="none" /><path d="M 79.0095281055655 100.63252640178507 l -35.05815292613424 1.0564415814528796 a56.074066707572385,56.074066707572385 0 0,0 -0.020768598849914686,-0.9650351799133495 l 35.07114358766916 -0.45281658574940126" fill="#57ff2a" stroke="none" /><line stroke="#e1ed5e" stroke-width="0.3" x1="15.007084014347285" x2="10.007500721073583" y1="101.09737516637583" y2="101.16192664675087" /><path d="M 14.007167355692545 101.11028546245083 a86.0,86.0 0 0,1 10.666146001902534,-42.60595125391555" fill="none" id="id34" stroke="none" /><text fill="#e1ed5e" style="font-size:6.75px; font-family:Arial;" text-anchor="middle"><textPath startOffset="22.20632615414155" xlink:href="#id34">October</textPath></text><path d="M 79.00019446554 99.90962569577889 l -20.22251447128725 -0.08702917138661574 a41.2227017388403,41.2227017388403 0 0,0 0.00916124074303345,-0.709548191589443 l 20.2180202234265 0.43511362103653073" fill="#fcff18" stroke="none" /><path d="M 79.00486145842228 99.54816195383935 l -26.375586852688222 -0.5676311021362553 a47.381694162654,47.381694162654 0 0,0 0.024566969678674073,-0.8152581222164653 l 26.3619081885539 1.0215593717777152" fill="#b4ff20" stroke="none" /><path d="M 79.01574976396665 99.18683210126434 l -15.681352740392025 -0.6076734938730695 a36.693122405810655,36.693122405810655 0 0,0 0.029889853667141898,-0.6309275697171733 l 15.668569278491384 0.8775121702132519" fill="#ffca12" stroke="none" /><path d="M 79.05617556472873 98.46500227214037 l -3.039504316385879 -0.22276887556479563 a24.047656880498327,24.047656880498327 0 0,0 0.03381045153944456,-0.41257314751457896 l 3.035219381026937 0.27505594028715297" fill="#ff1f03" stroke="none" /><path d="M 79.08570108090925 98.10471618934814 l -20.233132888149605 -1.8335555664585808 a41.31604273683269,41.31604273683269 0 0,0 0.07028227628550206,-0.7077329308047723 l 20.198573486181875 2.1815640279677835" fill="#fbff18" stroke="none" /><path d="M 79.16333360222342 97.38593545837743 l -20.130430809277804 -2.525463736931291 a41.288228401062426,41.288228401062426 0 0,0 0.09453824825414554,-0.7044197583212221 l 20.083976561965827 2.871601837317172" fill="#fbff18" stroke="none" /><path d="M 79.26566170972629 96.67025291283419 l -11.754991200004397 -1.887745206039931 a32.90560372577164,32.90560372577164 0 0,0 0.09462419783583634,-0.5584773719958407 l 11.720755140648338 2.0898083663515994" fill="#ff990e" stroke="none" /><path d="M 79.32604984820605 96.31383870115002 l -25.818732685749847 -4.6034750259522035 a47.22592114326536,47.22592114326536 0 0,0 0.14958085512067884,-0.7990669092488564 l 25.735666106719304 5.047220012663632" fill="#b6ff1f" stroke="none" /><path d="M 79.3925641242962 95.95851677861259 l -19.899980374411264 -3.9027386655097445 a41.27906772988389,41.27906772988389 0 0,0 0.1427483315484188,-0.6960915606681715 l 19.82985274694785 4.244705882341318" fill="#fbff18" stroke="none" /><path d="M 79.54389044137918 95.25157060432595 l -15.046425411076696 -3.4926919274180195 a36.446482271085074,36.446482271085074 0 0,0 0.14711744011732103,-0.6098967678153935 l 14.98407517069856 3.7511739268928097" fill="#ffc712" stroke="none" /><path d="M 79.81627453868168 94.20196356495316 l -14.998907372187038 -4.308630316860891 a36.605496389632066,36.605496389632066 0 0,0 0.17918234105489897,-0.604113777723911 l 14.922519134020432 4.566173481331342" fill="#ffc912" stroke="none" /><path d="M 80.38941819471856 92.48833698450439 l -29.09701322600121 -11.145358168429079 a52.15854918600444,52.15854918600444 0 0,0 0.3283665062477551,-0.8356569417535459 l 28.900853169871766 11.644564115078387" fill="#80ff26" stroke="none" /><path d="M 80.52162464483688 92.15188598940014 l -2.501862882977228 -1.0080360803442832 a23.697305067005768,23.697305067005768 0 0,0 0.15570067516612227,-0.37704153498153453 l 2.4841405209249054 1.0509521857791289" fill="#ff1a02" stroke="none" /><path d="M 80.65960295795068 91.81776055985345 l -25.955043464457187 -10.980662901794098 a49.18225042477444,49.18225042477444 0 0,0 0.33656887128018326,-0.7768473589073225 l 25.762183883334323 11.42580940528802" fill="#a0ff22" stroke="none" /><path d="M 80.803312248108 91.48605970444005 l -14.344413491156436 -6.36190376261622 a36.69190931308428,36.69190931308428 0 0,0 0.26103267797931484,-0.5751509047347615 l 14.232778496213768 6.607876676193052" fill="#ffca12" stroke="none" /><path d="M 81.10775173730289 90.83032412892265 l -14.107864971633267 -6.847493597584893 a36.68183734856356,36.68183734856356 0 0,0 0.28059856554848905,-0.5656695857891898 l 13.987906393131366 7.089322771873044" fill="#ffca12" stroke="none" /><path d="M 81.26839172434947 90.50648371742162 l -30.784773130721312 -15.602277213531709 a55.51279923387658,55.51279923387658 0 0,0 0.4393192176927017,-0.8486248960838062 l 30.511644479868497 16.12987483187585" fill="#5dff2a" stroke="none" /><path d="M 81.6062741919709 89.86733742301443 l -16.473894785590847 -9.075073692698483 a39.80814110789861,39.80814110789861 0 0,0 0.33579561960080534,-0.5973429381877059 l 16.315241524697612 9.357300140820973" fill="#fff116" stroke="none" /><line stroke="#e1ed5e" stroke-width="0.3" x1="26.266209847984243" x2="21.928928074336255" y1="57.711370442889674" y2="55.22380399835377" /><path d="M 25.398753493254645 57.213857153982495 a86.0,86.0 0 0,1 29.58750427330803,-30.492523968695096" fill="none" id="id35" stroke="none" /><text fill="#e1ed5e" style="font-size:6.75px; font-family:Arial;" text-anchor="middle"><textPath startOffset="21.46611528233685" xlink:href="#id35">November</textPath></text><path d="M 82.95767976084542 87.72973835380427 l -14.06100365362802 -10.123750253309922 a38.32634245704307,38.32634245704307 0 0,0 0.39008439565124753,-0.5320746772826451 l 13.88465664546314 10.364287374264066" fill="#ffde14" stroke="none" /><path d="M 84.07557802195018 86.31012108654704 l -19.755462810817864 -16.983341318894162 a47.05210535107797,47.05210535107797 0 0,0 0.5332754242547163,-0.6096259959013606 l 19.460195522985305 17.320882870998464" fill="#b8ff1f" stroke="none" /><path d="M 87.51073957382395 83.11751280151077 l -13.012616042544597 -17.589938576080918 a42.87999349590828,42.87999349590828 0 0,0 0.5971645205998931,-0.433865420431757 l 12.707906205590922 17.811323231329343" fill="#e8ff1a" stroke="none" /><path d="M 88.09926311788651 82.69761687909137 l -3.3894718909783714 -4.927925204648615 a26.981050620279316,26.981050620279316 0 0,0 0.3849236240864385,-0.25990214924520044 l 3.304143572485393 4.98553926619248" fill="#ff4906" stroke="none" /><line stroke="#e1ed5e" stroke-width="0.3" x1="56.762969772571076" x2="54.21961505331055" y1="26.818313649435495" y2="22.513508569990535" /><path d="M 56.25429882871897 25.957352633546506 a86.0,86.0 0 0,1 42.265352541879196,-11.944610805530505" fill="none" id="id36" stroke="none" /><text fill="#e1ed5e" style="font-size:6.75px; font-family:Arial;" text-anchor="middle"><textPath startOffset="22.20632615414155" xlink:href="#id36">December</textPath></text><path d="M 94.28887869178378 79.79150937346287 l -4.257612331689168 -15.06532854985749 a36.65539482357768,36.65539482357768 0 0,0 0.6086577879199702,-0.16636916561967016 l 3.997656654545475 15.136384256303456" fill="#ffc912" stroke="none" /><path d="M 94.63758080256005 79.69619591428918 l -5.571457325184194 -21.09528812227946 a42.818623184984276,42.818623184984276 0 0,0 0.7142372904974472,-0.1820749885044545 l 5.207511146001747 21.188066106952775" fill="#e9ff1a" stroke="none" /><path d="M 97.83486435360386 79.11191278185805 l -1.930627846680288 -18.625679603195156 a39.72547101045144,39.72547101045144 0 0,0 0.6807713729127006,-0.06464744479334088 l 1.6097313466773508 18.656152592503677" fill="#fff016" stroke="none" /><path d="M 99.63851952072746 79.00311137660856 l -0.4915201548354604 -28.550349296873485 a49.554579966024605,49.554579966024605 0 0,0 0.8530006341079891,-0.007342045759678519 l 6.993854991277834e-15 28.554579966024605" fill="#9cff22" stroke="none" /></svg>