<?xml version="1.0" encoding="utf-8" ?>
<svg baseProfile="full" height="200mm" version="1.1" viewBox="0,0,200,200" width="200mm" xmlns="http://www.w3.org/2000/svg" xmlns:ev="http://www.w3.org/2001/xml-events" xmlns:xlink="http://www.w3.org/1999/xlink"><defs /><rect fill="#1a1a1a" height="200" width="200" x="0" y="0" /><text alignment-baseline="middle" fill="#e1ed5e" style="dominant-baseline: central; font-size:9.0px; font-family:Arial;" text-anchor="middle" x="100.0" y="100.0">2023</text><line stroke="#e1ed5e" stroke-width="0.3" x1="100.0" x2="100.0" y1="15.0" y2="10.0" /><path d="M 100.0 14.0 a86.0,86.0 0 0,1 42.46469731375804,11.215312516191453" fill="none" id="id49" stroke="none" /><text fill="#e1ed5e" style="font-size:6.75px; font-family:Arial;" text-anchor="middle"><textPath startOffset="22.20632615414155" xlink:href="#id49">January</textPath></text><path d="M 106.74666289553966 80.11325718540242 l 5.176642672286258 -15.258886216901084 a37.113076613014314,37.113076613014314 0 0,0 0.6032076634571539,0.21044730948724974 l -5.438532339806685 15.167518054241626" fill="#ffbf11" stroke="none" /><path d="M 109.08828744355905 81.06846463323043 l 8.170935616444602 -17.020627655427756 a39.880305999448076,39.880305999448076 0 0,0 0.6163002465351028,0.3024158544121909 l -8.462707129990136 16.87745664088073" fill="#ffe315" stroke="none" /><path d="M 109.73455568895987 81.39251694778311 l 10.252578186769052 -19.597676663167558 a43.1175109374874,43.1175109374874 0 0,0 0.6546777116089324,0.34970616061654286 l -10.588400944906295 19.41829177604926" fill="#f3ff19" stroke="none" /><path d="M 110.36928655335952 81.73862282372117 l 12.391839262548432 -21.82329994611847 a46.09609732303195,46.09609732303195 0 0,0 0.6866195172971726,0.3977343426417646 l -12.765655512310932 21.606761446086658" fill="#cfff1d" stroke="none" /><line stroke="#e1ed5e" stroke-width="0.3" x1="143.23703022742887" x2="145.7803849466894" y1="26.81831364943548" y2="22.513508569990506" /><path d="M 143.74570117128098 25.957352633546492 a86.0,86.0 0 0,1 28.547481713284135,27.462654790039103" fill="none" id="id50" stroke="none" /><text fill="#e1ed5e" style="font-size:6.75px; font-family:Arial;" text-anchor="middle"><textPath startOffset="19.985693538727396" xlink:href="#id50">February</textPath></text><path d="M 110.99172775467656 82.1063720568725 l 3.9769088174828595 -6.474080174839212 a28.59799433092833,28.59799433092833 0 0,0 0.41723227350300157,0.26127081139061725 l -4.087760243358124 6.404665022125651" fill="#ff4a06" stroke="none" /><path d="M 111.2981086023043 82.29822771554956 l 17.44446810649945 -27.33183162902427 a53.42435022812343,53.42435022812343 0 0,0 0.7709209402462149,0.5014284240972045 l -17.912356072529946 27.027504280767534" fill="#7bff26" stroke="none" /><path d="M 113.6212207817346 84.01681056812373 l 20.366213770349262 -23.89778845212477 a52.39883686129268,52.39883686129268 0 0,0 0.6814498709769311,0.5909466129926583 l -20.77455743997296 23.54367684571244" fill="#86ff25" stroke="none" /><path d="M 114.42810811169701 84.74124197986012 l 21.54017550305195 -22.78027882574247 a52.35155919696579,52.35155919696579 0 0,0 0.649450399706,0.6247707699582947 l -21.929109146370372 22.40612496902187" fill="#87ff25" stroke="none" /><path d="M 114.94478906791727 85.2469230424477 l 24.488039596519457 -24.173906440914877 a55.40990897829883,55.40990897829883 0 0,0 0.6642216302283698,0.6845387766799952 l -24.900525490450935 23.748803468684766" fill="#66ff29" stroke="none" /><path d="M 115.19652480421416 85.50635884689758 l 17.24782451701457 -16.45006226370703 a44.8346805946622,44.8346805946622 0 0,0 0.5278380072389168,0.5630607836817344 l -17.52842984622395 16.150732063147238" fill="#deff1b" stroke="none" /><path d="M 116.38621287248628 86.86637796730983 l 25.261928470917514 -20.247547309175424 a53.37480814008092,53.37480814008092 0 0,0 0.5684313352194843,0.7218500706228697 l -25.60671388673096 19.809704844599516" fill="#7cff26" stroke="none" /><path d="M 116.82858285166822 87.43820079747576 l 15.327498569578953 -11.441305605180053 a40.12683158161773,40.12683158161773 0 0,0 0.4084097214457468,0.5570704010719221 l -15.522170903538326 11.175772760436637" fill="#ffe615" stroke="none" /><path d="M 117.45458315368197 88.32363383020206 l 27.16526862068436 -18.17239751435268 a53.68314321869287,53.68314321869287 0 0,0 0.507186487578622,0.7724798166470673 l -27.474051743620905 17.70209963372794" fill="#78ff26" stroke="none" /><path d="M 117.65298651832404 88.62581576622439 l 29.3536997844862 -18.913195732921412 a55.91917329877015,55.91917329877015 0 0,0 0.5143829105744001,0.8136302352055319 l -29.674910291306556 18.405117850001677" fill="#60ff29" stroke="none" /><line stroke="#e1ed5e" stroke-width="0.3" x1="172.23445277983987" x2="176.4835382374775" y1="55.19839476539836" y2="52.563006222186495" /><path d="M 173.08426987136738 54.67131705675599 a86.0,86.0 0 0,1 12.851231095245387,41.99856678651699" fill="none" id="id51" stroke="none" /><text fill="#e1ed5e" style="font-size:6.75px; font-family:Arial;" text-anchor="middle"><textPath startOffset="22.20632615414155" xlink:href="#id51">March</textPath></text><path d="M 118.3937258080291 89.86733742301442 l 32.21666214368613 -17.74738681361778 a57.781558672690764,57.781558672690764 0 0,0 0.4724107446968608,0.8753053631654394 l -32.517380987601456 17.190200467119883" fill="#4dff2c" stroke="none" /><path d="M 118.56541770881063 90.18545643968196 l 33.90205233048868 -17.922202161056525 a59.347809357523566,59.347809357523566 0 0,0 0.469668860849152,0.9072507465646583 l -34.205530624497946 17.335978692231524" fill="#3dff2e" stroke="none" /><path d="M 119.04729006885535 91.15688171328212 l 28.999690875199196 -13.463736613480938 a52.97271140291825,52.97271140291825 0 0,0 0.37685715941739406,0.8303547964667516 l -29.227150351579937 12.962559808172124" fill="#80ff25" stroke="none" /><path d="M 119.34039704204932 91.81776055985345 l 14.20850290848819 -6.011116143608925 a36.42773710537204,36.42773710537204 0 0,0 0.2393446531596337,0.5795920622736467 l -14.309869248534023 5.765649510881975" fill="#ffb610" stroke="none" /><path d="M 119.47837535516314 92.15188598940014 l 2.373383638667083 -0.956269968491712 a23.558789195876,23.558789195876 0 0,0 0.14831542327010072,0.3774465746858535 l -2.389492611818884 0.9152743889100741" fill="#ff0000" stroke="none" /><path d="M 119.7369772167798 92.82701384747503 l 8.853159170882261 -3.217493106535533 a30.419696873869157,30.419696873869157 0 0,0 0.17461908289735212,0.49367166180940486 l -8.907231334589422 3.0646238182995136" fill="#ff6409" stroke="none" /><path d="M 120.18372546131832 94.20196356495316 l 16.38238925837115 -4.706053399071151 a38.044929345928765,38.044929345928765 0 0,0 0.17539297493113842,0.630981850162457 l -16.46096900386865 4.423360245489742" fill="#ffcb12" stroke="none" /><path d="M 120.28053869075195 94.5502522615342 l 33.1599992514925 -8.910691855081508 a55.336365266218834,55.336365266218834 0 0,0 0.23927356891130688,0.9220186668468766 l -33.308469152274114 8.338576762685781" fill="#67ff28" stroke="none" /><path d="M 120.37134235888165 94.90015583598534 l 3.6524505450913396 -0.9143692285263214 a24.76516481318067,24.76516481318067 0 0,0 0.09996541296631488,0.41442117408288154 l -3.667648758318474 0.8513628227840337" fill="#ff1202" stroke="none" /><path d="M 120.45610955862082 95.25157060432595 l 31.1598518232549 -7.2330643291865 a52.98833514325733,52.98833514325733 0 0,0 0.19859425710435918,0.8902591141782871 l -31.279740467361297 6.69562704545825" fill="#80ff25" stroke="none" /><path d="M 120.53481517161879 95.60439243477599 l 61.60444551485638 -13.186822695672053 a84.0,84.0 0 0,0 0.2904828163400124,1.4164973753463528 l -61.822307627111385 12.124449664162288" fill="#4dd2ff" stroke="none" /><path d="M 120.91429891909075 98.10471618934814 l 35.06135729954822 -3.1773105628062455 a56.20502915918553,56.20502915918553 0 0,0 0.07902297608882389,0.9642804661421946 l -35.11085475945654 2.573316179456282" fill="#5dff2a" stroke="none" /><path d="M 120.94382443527127 98.46500227214037 l 36.28610008971823 -2.6594513033065015 a57.383426734650875,57.383426734650875 0 0,0 0.06372131417111815,0.9857405265059691 l -36.32650199489376 2.0344517125474972" fill="#51ff2b" stroke="none" /><path d="M 120.96714384426684 98.82574320788733 l 28.971167815715308 -1.6225190629548616 a50.01656652183353,50.01656652183353 0 0,0 0.04074299913037471,0.8600203169469518 l -28.99480442307918 1.12358763938491" fill="#a1ff22" stroke="none" /><path d="M 120.98425023603335 99.18683210126433 l 31.324153302834752 -1.213853039037863 a52.34766369827064,52.34766369827064 0 0,0 0.02714177889904323,0.9007035050829456 l -31.34040677618944 0.6744793865299182" fill="#87ff25" stroke="none" /><line stroke="#e1ed5e" stroke-width="0.3" x1="184.98032266829074" x2="189.97916517819016" y1="98.17113171792111" y2="98.06355123074" /><path d="M 185.9800911702706 98.14961562048488 a86.0,86.0 0 0,1 -9.607161424134198,41.387399972396054" fill="none" id="id52" stroke="none" /><text fill="#e1ed5e" style="font-size:6.75px; font-family:Arial;" text-anchor="middle"><textPath startOffset="21.466115282336823" xlink:href="#id52">April</textPath></text><path d="M 120.99980553446 99.90962569577887 l 3.931962492166704 -0.016921507862062406 a24.93199890351385,24.93199890351385 0 0,0 -0.0018469894415383047,0.42917529966935153 l -3.9316712054356624 -0.050763270010973846" fill="#ff1402" stroke="none" /><path d="M 120.99824983174949 100.27111621757518 l 8.275707121179964 0.10685073424842674 a29.27639688723047,29.27639688723047 0 0,0 -0.010843332371320069,0.5038470472388415 l -8.272641726123636 -0.24928759727738312" fill="#ff5407" stroke="none" /><path d="M 120.9764740272857 100.99374915477107 l 29.364599512813726 1.3911320800670037 a50.397533110996434,50.397533110996434 0 0,0 -0.048510383354276466,0.8661854822228865 l -29.336302778571923 -1.8963892786253136" fill="#9dff22" stroke="none" /><path d="M 120.95626037817324 101.35467743843564 l 16.862582473192333 1.0900494467031043 a37.89777782613652,37.89777782613652 0 0,0 -0.04768522424480394,0.6506269987332975 l -16.84132069028319 -1.3801495819331722" fill="#ffc912" stroke="none" /><path d="M 120.92983693683757 101.71520430193887 l 12.266290267616746 1.0052249283804546 a33.30741053536717,33.30741053536717 0 0,0 -0.05174608169912134,0.5710136996183619 l -12.24716958964055 -1.216220016547387" fill="#ff8c0c" stroke="none" /><path d="M 120.89721153311464 102.0752229133903 l 8.257203851649527 0.8199916341146284 a29.297819094660582,29.297819094660582 0 0,0 -0.05415590039491712,0.5014163782559525 l -8.241865649753558 -0.9620043342553724" fill="#ff5407" stroke="none" /><path d="M 120.8583938346157 102.4346265915055 l 3.8713245677543515 0.45186747415621253 a24.897606717345752,24.897606717345752 0 0,0 -0.053350225030766425,0.42525378524984836 l -3.8629728334767366 -0.5184390136934558" fill="#ff1402" stroke="none" /><path d="M 120.70491114924044 103.5080841355445 l 21.706628225628332 3.677807529122515 a43.01599366703476,43.01599366703476 0 0,0 -0.12997703973753733,0.7289802649845857 l -21.640104743551607 -4.050906544840319" fill="#f4ff19" stroke="none" /><path d="M 120.64145759157962 103.86396538481128 l 7.90958655286173 1.480630353395875 a29.046976182430782,29.046976182430782 0 0,0 -0.09622857523171417,0.4906674319476985 l -7.882928044654351 -1.6165615124115182" fill="#ff5007" stroke="none" /><path d="M 120.5718875245553 104.21870165774334 l 8.019534451484848 1.6445755521668048 a29.18642544492632,29.18642544492632 0 0,0 -0.10516280654703447,0.4912856216867498 l -7.990037606213369 -1.7823749932697235" fill="#ff5207" stroke="none" /><path d="M 119.79798401119884 107.00284435728193 l 3.6549312916618395 1.292804103568795 a24.87683700933805,24.87683700933805 0 0,0 -0.14627075398002576,0.4024742941639053 l -3.632136276676587 -1.3555261947388313" fill="#ff1402" stroke="none" /><path d="M 119.26925614724726 108.34839909993367 l 36.79713090441738 15.94234526621644 a61.10220960725334,61.10220960725334 0 0,0 -0.42643207431244984,0.9614917527947309 l -36.517257745373655 -16.57338535550386" fill="#30ff34" stroke="none" /><path d="M 118.81262510543309 109.33194174019688 l 3.307526260062949 1.6406876865985442 a24.692097783911212,24.692097783911212 0 0,0 -0.19215311741020422,0.37913633022130505 l -3.278794472866476 -1.6973782285225436" fill="#ff1101" stroke="none" /><path d="M 118.64920377521936 109.65438752849418 l 3.645318931834242 1.8871219413478841 a25.104823910511357,25.104823910511357 0 0,0 -0.20197128719698215,0.38205356050981076 l -3.6122951364123668 -1.9495905169438292" fill="#ff1702" stroke="none" /><line stroke="#e1ed5e" stroke-width="0.3" x1="174.80103733775053" x2="179.2010983576182" y1="140.37084112569926" y2="142.7455964860345" /><path d="M 175.68104954172406 140.8457921977663 a86.0,86.0 0 0,1 -30.038265399797805,32.042727171017184" fill="none" id="id53" stroke="none" /><text fill="#e1ed5e" style="font-size:6.75px; font-family:Arial;" text-anchor="middle"><textPath startOffset="22.206326154141568" xlink:href="#id53">May</textPath></text><path d="M 118.30583269289576 110.29060199501025 l 3.391185737459002 1.9063510139524582 a24.89028468037275,24.89028468037275 0 0,0 -0.21316514356971653,0.37167139555722406 l -3.357868597736906 -1.9644422553679974" fill="#ff1402" stroke="none" /><path d="M 118.12598468904814 110.60418214915192 l 24.957162805471757 14.600602662715799 a49.9143143341378,49.9143143341378 0 0,0 -0.44024217100440133,0.7378712012857408 l -24.70213975876913 -15.028035957887644" fill="#a2ff22" stroke="none" /><path d="M 116.498646956653 112.99209946851258 l 25.46635523442188 20.053851759805465 a53.41438290836368,53.41438290836368 0 0,0 -0.5750492959154468,0.7174624145258582 l -25.117388026451575 -20.489242007909574" fill="#7bff26" stroke="none" /><path d="M 116.0416608686014 113.55231037782055 l 22.21294021480003 18.76592845720644 a50.078768609541754,50.078768609541754 0 0,0 -0.5619731873481082,0.6537017772222 l -21.886624517881145 -19.145507333590167" fill="#a0ff22" stroke="none" /><path d="M 115.32070863581623 114.36230785411682 l 5.89404568944218 5.5253383319425575 a29.078931753125886,29.078931753125886 0 0,0 -0.34547633168110053,0.3622305525714615 l -5.798062806382115 -5.625976001096526" fill="#ff5107" stroke="none" /><path d="M 114.55890576462653 115.13401014063108 l 6.571697040796426 6.83129153141542 a30.479121582889448,30.479121582889448 0 0,0 -0.38122728757479923,0.360474195409503 l -6.45313391883082 -6.943400363570845" fill="#ff6509" stroke="none" /><path d="M 114.29624159901734 115.38237550388516 l 15.503846390540772 16.681726122356885 a43.77387185620417,43.77387185620417 0 0,0 -0.556346005714317,0.5082088853835512 l -15.214400835359593 -16.946127774327017" fill="#ebff1a" stroke="none" /><path d="M 114.0293411484842 115.62618273729858 l 2.6119796952244054 2.909279316235023 a24.909775449835642,24.909775449835642 0 0,0 -0.3215231010979855,0.2837067538690219 l -2.561514241219832 -2.9538092118763335" fill="#ff1402" stroke="none" /><line stroke="#e1ed5e" stroke-width="0.3" x1="143.8653032363475" x2="146.44561519142675" y1="172.8068346515853" y2="177.08958963109032" /><path d="M 144.38136562736335 173.6633856474863 a86.0,86.0 0 0,1 -40.68145358897372,12.25698825130547" fill="none" id="id54" stroke="none" /><text fill="#e1ed5e" style="font-size:6.75px; font-family:Arial;" text-anchor="middle"><textPath startOffset="21.466115282336833" xlink:href="#id54">June</textPath></text><line stroke="#e1ed5e" stroke-width="0.3" x1="102.19456741930631" x2="102.32365962044197" y1="184.97166512339345" y2="189.96999836594603" /><path d="M 102.22038585953345 185.97133177190398 a86.0,86.0 0 0,1 -42.740103519485714,-10.115201625700543" fill="none" id="id55" stroke="none" /><text fill="#e1ed5e" style="font-size:6.75px; font-family:Arial;" text-anchor="middle"><textPath startOffset="22.20632615414155" xlink:href="#id55">July</textPath></text><line stroke="#e1ed5e" stroke-width="0.3" x1="58.666819895761336" x2="56.23545636021788" y1="174.27360380694188" y2="178.64263932499728" /><path d="M 58.180547188652646 175.14741091055294 a86.0,86.0 0 0,1 -31.652253787137756,-30.449443065178592" fill="none" id="id56" stroke="none" /><text fill="#e1ed5e" style="font-size:6.75px; font-family:Arial;" text-anchor="middle"><textPath startOffset="22.20632615414155" xlink:href="#id56">August</textPath></text><line stroke="#e1ed5e" stroke-width="0.3" x1="26.63291911575756" x2="22.317208475507996" y1="142.92168965132927" y2="145.44649492493687" /><path d="M 25.769776987707644 143.4266507060508 a86.0,86.0 0 0,1 -11.730757126820373,-40.83630448921669" fill="none" id="id57" stroke="none" /><text fill="#e1ed5e" style="font-size:6.75px; font-family:Arial;" text-anchor="middle"><textPath startOffset="21.46611528233685" xlink:href="#id57">September</textPath></text><line stroke="#e1ed5e" stroke-width="0.3" x1="15.007084014347285" x2="10.007500721073583" y1="101.09737516637583" y2="101.16192664675087" /><path d="M 14.007167355692545 101.11028546245083 a86.0,86.0 0 0,1 10.666146001902534,-42.60595125391555" fill="none" id="id58" stroke="none" /><text fill="#e1ed5e" style="font-size:6.75px; font-family:Arial;" text-anchor="middle"><textPath startOffset="22.20632615414155" xlink:href="#id58">October</textPath></text><line stroke="#e1ed5e" stroke-width="0.3" x1="26.266209847984243" x2="21.928928074336255" y1="57.711370442889674" y2="55.22380399835377" /><path d="M 25.398753493254645 57.213857153982495 a86.0,86.0 0 0,1 29.58750427330803,-30.492523968695096" fill="none" id="id59" stroke="none" /><text fill="#e1ed5e" style="font-size:6.75px; font-family:Arial;" text-anchor="middle"><textPath startOffset="21.46611528233685" xlink:href="#id59">November</textPath></text><line stroke="#e1ed5e" stroke-width="0.3" x1="56.762969772571076" x2="54.21961505331055" y1="26.818313649435495" y2="22.513508569990535" /><path d="M 56.25429882871897 25.957352633546506 a86.0,86.0 0 0,1 42.265352541879196,-11.944610805530505" fill="none" id="id60" stroke="none" /><text fill="#e1ed5e" style="font-size:6.75px; font-family:Arial;" text-anchor="middle"><textPath startOffset="22.20632615414155" xlink:href="#id60">December</textPath></text></svg>