<?xml version="1.0" encoding="utf-8" ?>
<svg baseProfile="full" height="200mm" version="1.1" viewBox="0,0,200,200" width="200mm" xmlns="http://www.w3.org/2000/svg" xmlns:ev="http://www.w3.org/2001/xml-events" xmlns:xlink="http://www.w3.org/1999/xlink"><defs /><rect fill="#1a1a1a" height="200" width="200" x="0" y="0" /><text alignment-baseline="middle" fill="#e1ed5e" style="dominant-baseline: central; font-size:9.0px; font-family:Arial;" text-anchor="middle" x="100.0" y="100.0">2020</text><line stroke="#e1ed5e" stroke-width="0.3" x1="100.0" x2="100.0" y1="15.0" y2="10.0" /><path d="M 100.0 14.0 a86.0,86.0 0 0,1 42.35913384403234,11.155469271406648" fill="none" id="id13" stroke="none" /><text fill="#e1ed5e" style="font-size:6.75px; font-family:Arial;" text-anchor="middle"><textPath startOffset="22.145653131862478" xlink:href="#id13">January</textPath></text><line stroke="#e1ed5e" stroke-width="0.3" x1="143.13028292997686" x2="145.6673583964461" y1="26.7553504044142" y2="22.446841604673864" /><path d="M 143.63769802327073 25.89364864446614 a86.0,86.0 0 0,1 29.32050498858742,28.57503671076993" fill="none" id="id14" stroke="none" /><text fill="#e1ed5e" style="font-size:6.75px; font-family:Arial;" text-anchor="middle"><textPath startOffset="20.669276256404974" xlink:href="#id14">February</textPath></text><line stroke="#e1ed5e" stroke-width="0.3" x1="172.87174338648825" x2="177.1583165268699" y1="56.24261187166439" y2="53.66864786411523" /><path d="M 173.72905801456457 55.72781907015455 a86.0,86.0 0 0,1 12.242430191666344,42.057860355516425" fill="none" id="id15" stroke="none" /><text fill="#e1ed5e" style="font-size:6.75px; font-family:Arial;" text-anchor="middle"><textPath startOffset="22.145653131862474" xlink:href="#id15">March</textPath></text><path d="M 120.93736805541906 98.37931529534042 l 11.007462690156137 -0.8520472282775636 a32.040390362409966,32.040390362409966 0 0,0 0.03774058763290549,0.54873986126204 l -11.020467238954108 0.6629639428611894" fill="#ff6509" stroke="none" /><path d="M 120.96210409425399 98.7389718711861 l 11.133978736597237 -0.6697925126854857 a32.1541070694632,32.1541070694632 0 0,0 0.02841567236440081,0.5512564525614964 l -11.143835998418211 0.4785642667472587" fill="#ff6609" stroke="none" /><path d="M 120.98066250479742 99.09900007780936 l 10.849774985528517 -0.4659360215871103 a31.859775025883952,31.859775025883952 0 0,0 0.018774985150253085,0.5466132073439282 l -10.85617465767562 0.2796165496790622" fill="#ff6209" stroke="none" /><line stroke="#e1ed5e" stroke-width="0.3" x1="184.99686870605535" x2="189.99668451229388" y1="99.2704041080226" y2="99.22748670261217" /><path d="M 185.99683186730306 99.26182062694052 a86.0,86.0 0 0,1 -10.086455211305974,41.156179273409016" fill="none" id="id16" stroke="none" /><text fill="#e1ed5e" style="font-size:6.75px; font-family:Arial;" text-anchor="middle"><textPath startOffset="21.40746469413373" xlink:href="#id16">April</textPath></text><path d="M 120.99922638620191 99.81974689727618 l 8.561015317525912 -0.07348602015473445 a29.561330706267075,29.561330706267075 0 0,0 0.0,0.5074782457571216 l -8.561015317525912 -0.0734860201547334" fill="#ff4006" stroke="none" /><path d="M 120.98066250479742 100.90099992219065 l 5.408994679484349 0.23228550500874953 a26.413980051544996,26.413980051544996 0 0,0 -0.02334292789916532,0.4528465651305027 l -5.40421016212861 -0.32510386351598286" fill="#ff1101" stroke="none" /><path d="M 120.96210409425399 101.26102812881392 l 10.94868008135307 0.65864540572315 a31.968473425882824,31.968473425882824 0 0,0 -0.03765587619791383,0.5475081755888515 l -10.93576024399009 -0.8464970054663449" fill="#ff6409" stroke="none" /><line stroke="#e1ed5e" stroke-width="0.3" x1="174.33088141563837" x2="178.70328620479359" y1="141.23008692659167" y2="143.65538615756765" /><path d="M 175.20536237346943 141.71514677278685 a86.0,86.0 0 0,1 -30.301960400862466,31.631185727798858" fill="none" id="id17" stroke="none" /><text fill="#e1ed5e" style="font-size:6.75px; font-family:Arial;" text-anchor="middle"><textPath startOffset="22.145653131862474" xlink:href="#id17">May</textPath></text><path d="M 118.36410011445183 110.18625677009912 l 13.308633742768956 7.382074793654894 a36.21889484681077,36.21889484681077 0 0,0 -0.3062508228853681,0.5411158596513643 l -13.17994955486221 -7.609447423405381" fill="#ffa00e" stroke="none" /><path d="M 118.18653347947321 110.5 l 9.04558890274026 5.222473187975777 a31.44494637595156,31.44494637595156 0 0,0 -0.27390987503434755,0.46515885022673037 l -8.954605317576146 -5.376983206496058" fill="#ff5c08" stroke="none" /><path d="M 117.81537515405839 111.11811171558189 l 8.887529701365432 5.54647585250672 a31.476238760886126,31.476238760886126 0 0,0 -0.2900045397328993,0.455935304933843 l -8.791007470006642 -5.6982248321192355" fill="#ff5d08" stroke="none" /><path d="M 117.62189284568427 111.42229804090321 l 8.604627175883099 5.577415377251184 a31.25412946701688,31.25412946701688 0 0,0 -0.2956872241858966,0.4477081442226074 l -8.507615512776475 -5.724303399812853" fill="#ff5908" stroke="none" /><path d="M 117.21940702142032 112.02048342749411 l 7.17831645396156 5.0110223810155325 a29.75434591595819,29.75434591595819 0 0,0 -0.2959635054743045,0.4163097349748371 l -7.091237849957295 -5.133509342699874" fill="#ff4306" stroke="none" /><path d="M 116.79662413953412 112.60449989151573 l 10.946473229769213 8.21443758524997 a34.68584162600245,34.68584162600245 0 0,0 -0.3614727549358283,0.47317943964232123 l -10.80384849747908 -8.401137938133168" fill="#ff8b0c" stroke="none" /><path d="M 116.35404254752997 113.17365903436017 l 9.724513881666596 7.833380020851584 a33.487113869337584,33.487113869337584 0 0,0 -0.36445649473120834,0.44457766377495583 l -9.58861056769676 -7.999159966325032" fill="#ff7a0b" stroke="none" /><path d="M 115.6541949942343 113.99807769240083 l 10.31550818968749 9.224191031798593 a34.83818663707869,34.83818663707869 0 0,0 -0.4024678179359518,0.4423826338960822 l -10.155642670909657 -9.399911241252347" fill="#ff8d0d" stroke="none" /><path d="M 115.16444852881244 114.52719865689866 l 12.152870003313128 11.642174554132646 a37.82951210422696,37.82951210422696 0 0,0 -0.4532573595928003,0.46508198073620294 l -11.951225842569519 -11.849079226936587" fill="#ffb610" stroke="none" /><path d="M 114.65682725009322 115.03919595460226 l 9.95131709590358 10.210928003584515 a35.25804203380006,35.25804203380006 0 0,0 -0.4370780207578812,0.4187108567812241 l -9.774566589280386 -10.38025099067132" fill="#ff930d" stroke="none" /><path d="M 114.39649973595853 115.28858382429668 l 12.317875729747884 13.081157162191378 a38.967936308754624,38.967936308754624 0 0,0 -0.49094075336333187,0.4544074319932244 l -12.091505205070584 -13.290682340316982" fill="#ffc512" stroke="none" /><path d="M 114.13192950727249 115.5334660781643 l 7.183820376354289 7.896277013715587 a31.675133061327912,31.675133061327912 0 0,0 -0.4053436206477091,0.3624607650559817 l -7.047211728883202 -8.018433308654956" fill="#ff5f08" stroke="none" /><path d="M 113.31354834802062 116.24036423190432 l 8.54963583536928 10.429165567809124 a34.485687500391144,34.485687500391144 0 0,0 -0.4610395333097291,0.3713808127581406 l -8.369345531704298 -10.574394674360667" fill="#ff880c" stroke="none" /><path d="M 112.45986205192187 116.90419585922612 l 8.060881572192788 10.93613398981055 a34.585905872042794,34.585905872042794 0 0,0 -0.4809400613359518,0.3481635153672958 l -7.871960500482867 -11.072898276550923" fill="#ff890c" stroke="none" /><path d="M 111.27062007382361 117.71928675628689 l 7.573479797495565 11.906768163221628 a35.11129775519536,35.11129775519536 0 0,0 -0.5113473494420905,0.3191185651383104 l -7.36796831926376 -12.035022525201486" fill="#ff900d" stroke="none" /><line stroke="#e1ed5e" stroke-width="0.3" x1="143.1302829299769" x2="145.66735839644613" y1="173.24464959558577" y2="177.55315839532614" /><path d="M 143.63769802327073 174.10635135553383 a86.0,86.0 0 0,1 -40.68552437913181,11.842963189579606" fill="none" id="id18" stroke="none" /><text fill="#e1ed5e" style="font-size:6.75px; font-family:Arial;" text-anchor="middle"><textPath startOffset="21.407464694133747" xlink:href="#id18">June</textPath></text><path d="M 110.34350942703117 118.27599006163325 l 5.083129065416482 8.981402002571103 a31.32006700692733,31.32006700692733 0 0,0 -0.4701825310130665,0.2608023240923794 l -4.92820234624732 -9.067337242096626" fill="#ff5a08" stroke="none" /><path d="M 109.71004243097381 118.62028667847754 l 6.172881223571472 11.837313671096364 a34.350148221957916,34.350148221957916 0 0,0 -0.5251855963892513,0.2681635076118792 l -5.968768405468638 -11.94153513038108" fill="#ff860c" stroke="none" /><path d="M 109.06512990194946 118.94263497670748 l 5.815749469007635 12.152679608452255 a34.472585629787396,34.472585629787396 0 0,0 -0.5359851557217389,0.2508681163548372 l -5.606275599414389 -12.250723956377625" fill="#ff880c" stroke="none" /><path d="M 107.407793817531 119.65005319985036 l 4.492737149419029 11.917519058117144 a33.73624542769003,33.73624542769003 0 0,0 -0.5436529254851982,0.1996368846158299 l -4.287495072279704 -11.992886791741697" fill="#ff7d0b" stroke="none" /><path d="M 106.0420521117495 120.11202640906438 l 3.7862906184047507 12.60333004438446 a34.15978437721165,34.15978437721165 0 0,0 -0.563050825779763,0.16389588939382846 l -3.569379780243381 -12.666469628080806" fill="#ff830c" stroke="none" /><path d="M 105.3480935250658 120.30758222061773 l 3.287806701508339 12.484337568789439 a33.910009970483,33.910009970483 0 0,0 -0.5641894281124172,0.14341474638057763 l -3.073011980170525 -12.538937547005288" fill="#ff800b" stroke="none" /><path d="M 103.94208987418118 120.62667999033965 l 2.571757558699054 13.456522268417602 a34.70007038307266,34.70007038307266 0 0,0 -0.5860433194385493,0.10679661493181869 l -2.3403795057094476 -13.498687057280785" fill="#ff8b0c" stroke="none" /><path d="M 101.44090949804482 120.95050786540614 l 0.7209693790488036 10.482736540341092 a31.507500284069867,31.507500284069867 0 0,0 -0.5399119965433572,0.032479764992289314 l -0.5409130303729813 -10.493568283158073" fill="#ff5d08" stroke="none" /><path d="M 101.08105385017728 120.97215588758144 l 0.7040403549168998 13.658194799494995 a34.67632838163458,34.67632838163458 0 0,0 -0.5947390571433858,0.02554065411839762 l -0.4694755371726843 -13.668268022039223" fill="#ff8a0c" stroke="none" /><line stroke="#e1ed5e" stroke-width="0.3" x1="101.45913802915013" x2="101.54496967792366" y1="184.9874750549273" y2="189.98673829345242" /><path d="M 101.47630435890484 185.9873277026323 a86.0,86.0 0 0,1 -42.54439059252881,-10.42667462771756" fill="none" id="id19" stroke="none" /><text fill="#e1ed5e" style="font-size:6.75px; font-family:Arial;" text-anchor="middle"><textPath startOffset="22.145653131862474" xlink:href="#id19">July</textPath></text><path d="M 98.19965949673042 120.92268563240118 l -1.1765811936922763 13.673656950955472 a34.72418440992991,34.72418440992991 0 0,0 -0.5934535688487186,-0.056200669981323156 l 1.4111343259260103 -13.651444525468966" fill="#ff8b0c" stroke="none" /><path d="M 96.41257539226777 120.69131181640829 l -2.690292131339174 15.516890096251325 a36.74838245697278,36.74838245697278 0 0,0 -0.6206368978890432,-0.11310071729822416 l 2.9562637627792747 -15.468421205021736" fill="#ffa70f" stroke="none" /><path d="M 95.00130118170881 120.39639698878247 l -3.074957613294346 12.546876394099446 a33.918183756719316,33.918183756719316 0 0,0 -0.5643254222860319,-0.14344931556771304 l 3.2898883288057563 -12.49224184669647" fill="#ff800b" stroke="none" /><path d="M 94.30408787586889 120.21278271476187 l -3.07824496397787 10.923605428548642 a32.34904170478162,32.34904170478162 0 0,0 -0.5332046140552379,-0.15520809214417322 l 3.2653095904147147 -10.869153642101955" fill="#ff6909" stroke="none" /><path d="M 93.95794788825049 120.11202640906438 l -3.1851394679763874 10.602293378423974 a32.070399193914994,32.070399193914994 0 0,0 -0.5258924938081256,-0.16292283887665449 l 3.3666725946561464 -10.54605395174067" fill="#ff6509" stroke="none" /><path d="M 93.61358852112213 120.00534299687104 l -3.1847730176621885 9.976256117575861 a31.472271257826495,31.472271257826495 0 0,0 -0.5132636809708583,-0.16871996664722605 l 3.3555594362807906 -9.920115229526614" fill="#ff5d08" stroke="none" /><path d="M 93.27111125876986 119.89276391827306 l -3.2511652326326357 9.6114923160752 a31.14647031789143,31.14647031789143 0 0,0 -0.5050092078291947,-0.17566841735271113 l 3.415680212506852 -9.554265466153899" fill="#ff5808" stroke="none" /><path d="M 90.6110303473126 118.78422872680471 l -5.001816163521318 10.006982910858651 a32.18739790621037,32.18739790621037 0 0,0 -0.4921189176932089,-0.2512794258602662 l 5.17286230292811 -9.919645533325548" fill="#ff6709" stroke="none" /><line stroke="#e1ed5e" stroke-width="0.3" x1="58.13341422392154" x2="55.67067388415222" y1="173.97424548756322" y2="178.32567169271397" /><path d="M 57.64086615596768 174.84453072859336 a86.0,86.0 0 0,1 -31.369924170532247,-30.572349798747897" fill="none" id="id20" stroke="none" /><text fill="#e1ed5e" style="font-size:6.75px; font-family:Arial;" text-anchor="middle"><textPath startOffset="22.145653131862474" xlink:href="#id20">August</textPath></text><path d="M 88.72937992617639 117.7192867562869 l -6.718698753735538 10.562910387073227 a33.51862567492083,33.51862567492083 0 0,0 -0.482850754936316,-0.3129780257124012 l 6.899035140928864 -10.446018519656931" fill="#ff7a0b" stroke="none" /><path d="M 88.1277618465304 117.32195027204791 l -5.949441196311519 8.680412506622764 a31.52356459729789,31.52356459729789 0 0,0 -0.4437390685077219,-0.3097643323311581 l 6.097575355993007 -8.577003358486477" fill="#ff5d08" stroke="none" /><path d="M 87.2517909369889 116.68781488649013 l -6.156679348680162 8.059290899484491 a31.14183762466045,31.14183762466045 0 0,0 -0.4220312997029927,-0.3281740912825416 l 6.294120593018382 -7.952415756581156" fill="#ff5808" stroke="none" /><path d="M 86.96720088162412 116.46651593811092 l -3.0613453334044864 3.86790982249471 a25.932804642929668,25.932804642929668 0 0,0 -0.3466959488585711,-0.2792737150819385 l 3.127292052618319 -3.814787813619361" fill="#ff0a01" stroke="none" /><path d="M 86.68645165197938 116.24036423190432 l -2.9056112574597432 3.5443732883189965 a25.583138530136964,25.583138530136964 0 0,0 -0.3372413979920811,-0.2813387686109485 l 2.966026989613717 -3.493972335796178" fill="#ff0400" stroke="none" /><path d="M 84.3458050057657 113.99807769240083 l -46.962584982702914 41.99423307720247 a84.0,84.0 0 0,0 -0.9519557441656299,-1.0831508887547994 l 47.67655179082713 -41.18186991063638" fill="#4dd2ff" stroke="none" /><path d="M 83.64595745247003 113.17365903436017 l -8.197983047507103 6.60371483830063 a31.52691672394181,31.52691672394181 0 0,0 -0.3358871242625593,-0.4243824089390984 l 8.310136602411223 -6.462012485446851" fill="#ff5d08" stroke="none" /><line stroke="#e1ed5e" stroke-width="0.3" x1="26.387840678322732" x2="22.057713659400548" y1="142.50000000000003" y2="145.00000000000006" /><path d="M 25.521815274538298 143.00000000000003 a86.0,86.0 0 0,1 -11.493303480769221,-40.785679425670985" fill="none" id="id21" stroke="none" /><text fill="#e1ed5e" style="font-size:6.75px; font-family:Arial;" text-anchor="middle"><textPath startOffset="21.40746469413373" xlink:href="#id21">September</textPath></text><path d="M 80.41425534168474 107.57618678355246 l -4.011790320535867 1.5518466790550909 a25.30147529241301,25.30147529241301 0 0,0 -0.15321768149629078,-0.40642810352452524 l 4.037838685846593 -1.4827502953364207" fill="#ff0000" stroke="none" /><path d="M 79.64726062577567 105.17358676015961 l -9.558383418790637 2.429703687288974 a30.862360447105825,30.862360447105825 0 0,0 -0.1261131184529457,-0.514584559495213 l 9.598684063759876 -2.2652633031856615" fill="#ff5407" stroke="none" /><path d="M 79.56144815229197 104.8234425847677 l -5.633399855296832 1.329467026897508 a26.788149661616057,26.788149661616057 0 0,0 -0.1017811134268874,-0.44846636563462366 l 5.655391830281387 -1.2325663273238578" fill="#ff1702" stroke="none" /><path d="M 79.0935383218832 101.97986365728391 l -9.52537121887492 0.902062557918571 a30.567989011060227,30.567989011060227 0 0,0 -0.04498789532129241,-0.5228275369916612 l 9.539452736893953 -0.7384139735512478" fill="#ff4f07" stroke="none" /><line stroke="#e1ed5e" stroke-width="0.3" x1="15.003131293944662" x2="10.003315487706104" y1="100.72959589197737" y2="100.7725132973878" /><path d="M 14.003168132696942 100.73817937305945 a86.0,86.0 0 0,1 10.791469493833604,-42.45332614584628" fill="none" id="id22" stroke="none" /><text fill="#e1ed5e" style="font-size:6.75px; font-family:Arial;" text-anchor="middle"><textPath startOffset="22.145653131862435" xlink:href="#id22">October</textPath></text><line stroke="#e1ed5e" stroke-width="0.3" x1="26.387840678322718" x2="22.05771365940052" y1="57.49999999999999" y2="54.99999999999999" /><path d="M 25.521815274538284 56.99999999999999 a86.0,86.0 0 0,1 29.574782752854787,-30.34633250058573" fill="none" id="id23" stroke="none" /><text fill="#e1ed5e" style="font-size:6.75px; font-family:Arial;" text-anchor="middle"><textPath startOffset="21.40746469413373" xlink:href="#id23">November</textPath></text><path d="M 86.40962598614128 83.9905735841838 l -5.092912948565993 -5.999438647463287 a28.869626826371583,28.869626826371583 0 0,0 0.38056446041464415,-0.31748040812196204 l 4.989174153989439 6.085981239497131" fill="#ff3605" stroke="none" /><line stroke="#e1ed5e" stroke-width="0.3" x1="56.869717070023135" x2="54.33264160355391" y1="26.7553504044142" y2="22.446841604673864" /><path d="M 56.362301976729285 25.89364864446614 a86.0,86.0 0 0,1 42.16139366436587,-11.88097634709845" fill="none" id="id24" stroke="none" /><text fill="#e1ed5e" style="font-size:6.75px; font-family:Arial;" text-anchor="middle"><textPath startOffset="22.145653131862474" xlink:href="#id24">December</textPath></text><path d="M 90.61103034731259 81.2157712731953 l -5.991704445294336 -11.987422574276431 a34.401448508800534,34.401448508800534 0 0,0 0.5305026909578229,-0.25949544997632745 l 5.78504150507446 12.088511774349973" fill="#ff870c" stroke="none" /><path d="M 92.93061703081487 80.22567764915836 l -4.482687660741705 -12.538875201418653 a34.31607599785003,34.31607599785003 0 0,0 0.5564012287301382,-0.1935452299657566 l 4.266780659966562 12.613978863952996" fill="#ff850c" stroke="none" /><path d="M 95.00130118170881 79.60360301121753 l -1.849995821578997 -7.548614264664413 a28.772005008783434,28.772005008783434 0 0,0 0.4807224490484039,-0.1134491890360568 l 1.720141218790687 7.579259597346701" fill="#ff3505" stroke="none" /><path d="M 96.41257539226777 79.30868818359171 l -1.393895942489072 -8.039621382844823 a29.159562358238535,29.159562358238535 0 0,0 0.49393868247391615,-0.08127742223537078 l 1.255679756962083 8.062364803575862" fill="#ff3a05" stroke="none" /></svg>