<?xml version="1.0" encoding="utf-8" ?>
<svg baseProfile="full" height="200mm" version="1.1" viewBox="0,0,200,200" width="200mm" xmlns="http://www.w3.org/2000/svg" xmlns:ev="http://www.w3.org/2001/xml-events" xmlns:xlink="http://www.w3.org/1999/xlink"><defs /><rect fill="#1a1a1a" height="200" width="200" x="0" y="0" /><text alignment-baseline="middle" fill="#e1ed5e" style="dominant-baseline: central; font-size:9.0px; font-family:Arial;" text-anchor="middle" x="100.0" y="100.0">2023</text><line stroke="#e1ed5e" stroke-width="0.3" x1="100.0" x2="100.0" y1="15.0" y2="10.0" /><path d="M 100.0 14.0 a86.0,86.0 0 0,1 42.46469731375804,11.215312516191453" fill="none" id="id49" stroke="none" /><text fill="#e1ed5e" style="font-size:6.75px; font-family:Arial;" text-anchor="middle"><textPath startOffset="22.20632615414155" xlink:href="#id49">January</textPath></text><path d="M 106.74666289553966 80.11325718540242 l 4.930738849742222 -14.53404993090661 a36.34766408931482,36.34766408931482 0 0,0 0.590767231616488,0.20610708709232387 l -5.1801880854219835 14.447021990642078" fill="#ffb610" stroke="none" /><path d="M 109.08828744355905 81.06846463323043 l 7.78279518855651 -16.2121041262733 a38.983442972583035,38.983442972583035 0 0,0 0.6024403502601646,0.29561486350294736 l -8.060706805827106 16.075734102635522" fill="#ffd814" stroke="none" /><path d="M 109.73455568895987 81.39251694778311 l 9.765554390331378 -18.66673668729192 a42.06687236167748,42.06687236167748 0 0,0 0.6387252680753404,0.3411849177490034 l -10.08542470493503 18.49587304304116" fill="#ffff18" stroke="none" /><path d="M 110.36928655335952 81.73862282372117 l 11.803195070565572 -20.786637148045617 a44.903968243752615,44.903968243752615 0 0,0 0.6688622853294739,0.38744820773605776 l -12.159254088360374 20.580384782919513" fill="#dcff1b" stroke="none" /><line stroke="#e1ed5e" stroke-width="0.3" x1="143.23703022742887" x2="145.7803849466894" y1="26.81831364943548" y2="22.513508569990506" /><path d="M 143.74570117128098 25.957352633546492 a86.0,86.0 0 0,1 28.547481713284135,27.462654790039103" fill="none" id="id50" stroke="none" /><text fill="#e1ed5e" style="font-size:6.75px; font-family:Arial;" text-anchor="middle"><textPath startOffset="19.985693538727396" xlink:href="#id50">February</textPath></text><path d="M 110.99172775467656 82.1063720568725 l 3.7879954344202007 -6.166544738605129 a28.23707008563596,28.23707008563596 0 0,0 0.41196654606480737,0.25797341335189883 l -3.893581132857271 6.100426983930285" fill="#ff4606" stroke="none" /><path d="M 111.2981086023043 82.29822771554956 l 16.61581106733371 -26.03349942798425 a51.884110314078754,51.884110314078754 0 0,0 0.7486950601434186,0.4869720934252691 l -17.061473153261407 25.743628410399452" fill="#8bff24" stroke="none" /><path d="M 113.6212207817346 84.01681056812373 l 19.398766307983458 -22.76258212193184 a50.90731146608543,50.90731146608543 0 0,0 0.6620524978861247,0.5741254021931994 l -19.787712604516347 22.425291726318967" fill="#96ff23" stroke="none" /><path d="M 114.42810811169701 84.74124197986012 l 20.516961843197276 -21.69815707299745 a50.862279612241295,50.862279612241295 0 0,0 0.6309750527171111,0.6069975007929818 l -20.887420139526807 21.341776485442164" fill="#97ff23" stroke="none" /><path d="M 114.94478906791727 85.2469230424477 l 23.324794820975693 -23.025583797077157 a53.775349923941874,53.775349923941874 0 0,0 0.6446274908441174,0.6643452936710457 l -23.71768657552292 22.620674307856" fill="#77ff27" stroke="none" /><path d="M 115.19652480421416 85.50635884689758 l 16.42850855340577 -15.668642056090793 a43.702472049784,43.702472049784 0 0,0 0.5145085333990044,0.5488418303600022 l -16.69578440877524 15.383530808852736" fill="#ebff1a" stroke="none" /><path d="M 116.38621287248628 86.86637796730983 l 24.06192198619541 -19.285736808496512 a51.836921602461416,51.836921602461416 0 0,0 0.5520531424267185,0.701051429007576 l -24.390329209216095 18.868692985535898" fill="#8cff24" stroke="none" /><path d="M 116.82858285166822 87.43820079747576 l 14.599403020609353 -10.897814203258404 a39.21825795642707,39.21825795642707 0 0,0 0.39916228558920985,0.5444569089560832 l -14.784827918712189 10.644894850630827" fill="#ffdb14" stroke="none" /><path d="M 117.45458315368197 88.32363383020206 l 25.87484859033839 -17.309161958711073 a52.13060997291616,52.13060997291616 0 0,0 0.4925184961652515,0.7501394594114563 l -26.168963721861566 16.861204435321945" fill="#89ff24" stroke="none" /><path d="M 117.65298651832404 88.62581576622439 l 27.95932365312627 -18.014770359242895 a54.26042288120406,54.26042288120406 0 0,0 0.49912458650824454,0.7894952308273242 l -28.26527583588047 17.53082748070136" fill="#72ff27" stroke="none" /><line stroke="#e1ed5e" stroke-width="0.3" x1="172.23445277983987" x2="176.4835382374775" y1="55.19839476539836" y2="52.563006222186495" /><path d="M 173.08426987136738 54.67131705675599 a86.0,86.0 0 0,1 12.851231095245387,41.99856678651699" fill="none" id="id51" stroke="none" /><text fill="#e1ed5e" style="font-size:6.75px; font-family:Arial;" text-anchor="middle"><textPath startOffset="22.20632615414155" xlink:href="#id51">March</textPath></text><path d="M 118.3937258080291 89.86733742301442 l 30.686287947075147 -16.90434035785211 a56.03434016654113,56.03434016654113 0 0,0 0.45812582724917006,0.8488375806378369 l -30.97272187354278 16.373621793881814" fill="#5fff29" stroke="none" /><path d="M 118.56541770881063 90.18545643968196 l 32.29161777127401 -17.070851527294433 a57.526189921109896,57.526189921109896 0 0,0 0.4552528624346693,0.8794036261480143 l -32.580680066868794 16.512475178886074" fill="#4fff2b" stroke="none" /><path d="M 119.04729006885535 91.15688171328212 l 27.622131076261503 -12.8241745442839 a51.45392549305312,51.45392549305312 0 0,0 0.36605225008584336,0.8065476109996857 l -27.838785643310697 12.346804924442152" fill="#90ff24" stroke="none" /><path d="M 119.34039704204932 91.81776055985345 l 13.533562527431869 -5.725572687928068 a35.694879968501134,35.694879968501134 0 0,0 0.2345294916596881,0.5679317667663442 l -13.630113705977754 5.491766350708421" fill="#ffad10" stroke="none" /><path d="M 119.47837535516314 92.15188598940014 l 2.2606418200678937 -0.9108446889190874 a23.437240137116568,23.437240137116568 0 0,0 0.1475502056713481,0.3754991793633015 l -2.275985575620942 0.8717965046600016" fill="#ff0000" stroke="none" /><path d="M 119.7369772167798 92.82701384747503 l 8.432611371945761 -3.064653920214653 a29.972237078953945,29.972237078953945 0 0,0 0.17205051624313766,0.48640997799103514 l -8.484114968998709 2.9190463157970035" fill="#ff5f08" stroke="none" /><path d="M 120.18372546131832 94.20196356495316 l 15.604183692318687 -4.482503775659175 a37.23525142405941,37.23525142405941 0 0,0 0.17166023519698187,0.6175531993025366 l -15.679030698082032 4.2132392729376855" fill="#ffc212" stroke="none" /><path d="M 120.28053869075195 94.5502522615342 l 31.584814119408012 -8.48741110587947 a53.705299727074234,53.705299727074234 0 0,0 0.23222086729634153,0.894841730546363 l -31.72623131857466 7.942472949784256" fill="#78ff26" stroke="none" /><path d="M 120.37134235888165 94.90015583598534 l 3.478949763300977 -0.8709343417192777 a24.58630981416245,24.58630981416245 0 0,0 0.0992434588031659,0.411428207985427 l -3.4934260223649627 0.8109209020744446" fill="#ff1101" stroke="none" /><path d="M 120.45610955862082 95.25157060432595 l 29.679678831159986 -6.889475196257542 a51.46880706559832,51.46880706559832 0 0,0 0.19289923858913213,0.8647294628554358 l -29.793872456751156 6.377567563852142" fill="#90ff24" stroke="none" /><path d="M 120.53481517161879 95.60439243477599 l 58.67807612897821 -12.560414748792441 a81.00733819175656,81.00733819175656 0 0,0 0.28013380645415825,1.3660319277668753 l -58.88558923134737 11.548507164862155" fill="#49eeff" stroke="none" /><path d="M 120.91429891909075 98.10471618934814 l 33.39585277676195 -3.0263801505167423 a54.53269985406186,54.53269985406186 0 0,0 0.07667171961465427,0.9355891816430679 l -33.442998980196094 2.4510770516659055" fill="#6fff28" stroke="none" /><path d="M 120.94382443527127 98.46500227214037 l 34.56241713878809 -2.533120535905095 a55.65512051811416,55.65512051811416 0 0,0 0.061802119907640486,0.9560514407054571 l -34.60089984970015 1.9378100309466024" fill="#63ff29" stroke="none" /><path d="M 120.96714384426684 98.82574320788733 l 27.5949629353613 -1.5454452402111798 a48.63820508633756,48.63820508633756 0 0,0 0.039620199572687365,0.8363197928794863 l -27.61747674316748 1.0702143407086937" fill="#b0ff20" stroke="none" /><path d="M 120.98425023603335 99.18683210126433 l 29.836175568470367 -1.1561919020418494 a50.858569159739304,50.858569159739304 0 0,0 0.026369697169521356,0.8750818712697186 l -29.851656960095532 0.6424398833471316" fill="#97ff23" stroke="none" /><line stroke="#e1ed5e" stroke-width="0.3" x1="184.98032266829074" x2="189.97916517819016" y1="98.17113171792111" y2="98.06355123074" /><path d="M 185.9800911702706 98.14961562048488 a86.0,86.0 0 0,1 -9.607161424134198,41.387399972396054" fill="none" id="id52" stroke="none" /><text fill="#e1ed5e" style="font-size:6.75px; font-family:Arial;" text-anchor="middle"><textPath startOffset="21.466115282336823" xlink:href="#id52">April</textPath></text><path d="M 120.99980553446 99.90962569577887 l 3.745184174996022 -0.01611769277767058 a24.74521885671066,24.74521885671066 0 0,0 -0.0018331525736774248,0.42596009887982655 l -3.7449067251328416 -0.04835188430584067" fill="#ff1302" stroke="none" /><path d="M 120.99824983174949 100.27111621757518 l 7.882589777723399 0.10177504993782298 a28.88324677811492,28.88324677811492 0 0,0 -0.010697718233030392,0.4970809304122898 l -7.879669996805361 -0.2374457961402276" fill="#ff4f07" stroke="none" /><path d="M 120.9764740272857 100.99374915477107 l 27.969705616363548 1.3250497333013092 a49.00107478404642,49.00107478404642 0 0,0 -0.04716621580088811,0.8421844675964496 l -27.94275304967513 -1.8063059172331821" fill="#acff21" stroke="none" /><path d="M 120.95626037817324 101.35467743843564 l 16.061566496114906 1.0382692983182589 a37.095089979399035,37.095089979399035 0 0,0 -0.046675234948179316,0.6368464972210867 l -16.04131470250239 -1.314588932036116" fill="#ffc011" stroke="none" /><path d="M 120.92983693683757 101.71520430193887 l 11.683609975351278 0.9574741624779401 a32.72277692477088,32.72277692477088 0 0,0 -0.05083780038599301,0.5609908910138519 l -11.665397578688209 -1.1584464420403626" fill="#ff850c" stroke="none" /><path d="M 120.89721153311464 102.0752229133903 l 7.86496546101918 0.7810399254401212 a28.903651375671636,28.903651375671636 0 0,0 -0.05342729641045374,0.4946704102560045 l -7.850355863107674 -0.9163066575809171" fill="#ff5007" stroke="none" /><path d="M 120.8583938346157 102.4346265915055 l 3.687426707734783 0.43040260856423307 a24.71246038771792,24.71246038771792 0 0,0 -0.052953496202112225,0.42209146614049803 l -3.6794717022858223 -0.493811828992126" fill="#ff1302" stroke="none" /><path d="M 120.70491114924044 103.5080841355445 l 20.67550763393663 3.5031022254641795 a41.970177422306755,41.970177422306755 0 0,0 -0.1268170034809915,0.7112571034761429 l -20.61214418811645 -3.858478079673541" fill="#fffe18" stroke="none" /><path d="M 120.64145759157962 103.86396538481128 l 7.533860876738792 1.4102966087810527 a28.664724146033876,28.664724146033876 0 0,0 -0.09496222762255599,0.48421035277093055 l -7.508468716140571 -1.539770688619928" fill="#ff4c07" stroke="none" /><path d="M 120.5718875245553 104.21870165774334 l 7.638585967788796 1.5664539895360037 a28.797549210401506,28.797549210401506 0 0,0 -0.10376163063738976,0.48473979431236885 l -7.610490298426963 -1.6977076032645415" fill="#ff4e07" stroke="none" /><path d="M 119.79798401119884 107.00284435728193 l 3.481312668037866 1.2313925882308465 a24.69267729418518,24.69267729418518 0 0,0 -0.1451879322218559,0.3994948337388619 l -3.4596004748107836 -1.2911352189758394" fill="#ff1302" stroke="none" /><path d="M 119.26925614724726 108.34839909993367 l 35.04917267726525 15.185042919993638 a59.197251653002546,59.197251653002546 0 0,0 -0.41313738043590076,0.9315157277997945 l -34.782594212098076 -15.78610698428612" fill="#3eff2d" stroke="none" /><path d="M 118.81262510543309 109.33194174019688 l 3.1504102677097316 1.56275080756777 a24.51671365644754,24.51671365644754 0 0,0 -0.19078828372408574,0.37644338387678794 l -3.123043314199377 -1.6167484031472523" fill="#ff1001" stroke="none" /><path d="M 118.64920377521936 109.65438752849418 l 3.47215691999032 1.7974788022785189 a24.90983423199466,24.90983423199466 0 0,0 -0.20040257209662835,0.3790861427256623 l -3.4407018396687987 -1.8569799600903154" fill="#ff1602" stroke="none" /><line stroke="#e1ed5e" stroke-width="0.3" x1="174.80103733775053" x2="179.2010983576182" y1="140.37084112569926" y2="142.7455964860345" /><path d="M 175.68104954172406 140.8457921977663 a86.0,86.0 0 0,1 -30.038265399797805,32.042727171017184" fill="none" id="id53" stroke="none" /><text fill="#e1ed5e" style="font-size:6.75px; font-family:Arial;" text-anchor="middle"><textPath startOffset="22.206326154141568" xlink:href="#id53">May</textPath></text><path d="M 118.30583269289576 110.29060199501025 l 3.230095705059741 1.8157944445467171 a24.70548616630694,24.70548616630694 0 0,0 -0.21158249386168115,0.3689119123893235 l -3.1983612150456806 -1.8711262027943558" fill="#ff1302" stroke="none" /><path d="M 118.12598468904814 110.60418214915192 l 23.771633472613832 13.907036536270606 a48.540810140180334,48.540810140180334 0 0,0 -0.4281279212887054,0.7175670219518927 l -23.5287246756269 -14.314165652108603" fill="#b1ff20" stroke="none" /><path d="M 116.498646956653 112.99209946851258 l 24.256637953386726 19.101242295206337 a51.87461646760751,51.87461646760751 0 0,0 -0.5584724572547792,0.6967802594912106 l -23.924247584077094 -19.515950388275797" fill="#8cff24" stroke="none" /><path d="M 116.0416608686014 113.55231037782055 l 21.157768503218648 17.874498657363414 a48.697452415120736,48.697452415120736 0 0,0 -0.5464723536401797,0.6356708056893501 l -20.84695364000769 -18.23604656221429" fill="#afff20" stroke="none" /><path d="M 115.32070863581623 114.36230785411682 l 5.614063381016222 5.26287056998021 a28.69516174504676,28.69516174504676 0 0,0 -0.340916898214768,0.3574500048103866 l -5.522639931422489 -5.358727691373104" fill="#ff4d07" stroke="none" /><path d="M 114.55890576462653 115.13401014063108 l 6.2595245527116985 6.506787638287743 a30.028838961670253,30.028838961670253 0 0,0 -0.37559523476571066,0.35514873794349805 l -6.14659348355518 -6.613571012977162" fill="#ff6008" stroke="none" /><path d="M 114.29624159901734 115.38237550388516 l 14.767373867146425 15.889301286452852 a42.69205445096779,42.69205445096779 0 0,0 -0.5425965984356419,0.4956491278297816 l -14.491677719243919 -16.141143180869218" fill="#f7ff18" stroke="none" /><path d="M 114.0293411484842 115.62618273729858 l 2.4879039511322567 2.7710810765650375 a24.72405107416055,24.72405107416055 0 0,0 -0.31912586241806246,0.2815914694561518 l -2.4398357358076064 -2.813495687793478" fill="#ff1302" stroke="none" /><path d="M 113.75828350139079 115.86535959552629 l 20.444967746740488 23.576107091279606 a52.206241871534985,52.206241871534985 0 0,0 -0.683987594144199,0.5829090665236425 l -20.036114676019242 -23.924540548026197" fill="#88ff25" stroke="none" /><path d="M 113.48314897796784 116.09983520530334 l 8.907775459982753 10.636515044513184 a34.87385728402978,34.87385728402978 0 0,0 -0.4635397762305724,0.38146167821046595 l -8.723365555207488 -10.788271841580828" fill="#ffa20f" stroke="none" /><path d="M 113.20401910651253 116.32954008644616 l 5.152170006159108 6.371739238567488 a29.194139167518827,29.194139167518827 0 0,0 -0.39348487371110064,0.3126081813614099 l -5.041727639730656 -6.459481333934025" fill="#ff5407" stroke="none" /><path d="M 112.92097659922987 116.55440617244103 l 9.312467584061803 11.93117019215391 a36.13521967658031,36.13521967658031 0 0,0 -0.49362649594226277,0.3784917477749106 l -9.105712359626047 -12.089701281756193" fill="#ffb310" stroke="none" /><path d="M 112.34349029814194 116.9893568818739 l 30.03476635317744 41.339309394089334 a72.09819655399006,72.09819655399006 0 0,0 -1.0103109027247141,0.7208300036758833 l -29.318728122603837 -41.850183659609435" fill="#3effb4" stroke="none" /><path d="M 111.7513745106137 117.40417183066458 l 4.582669755132035 6.787084505686667 a29.189345405582422,29.189345405582422 0 0,0 -0.41883277609144604,0.27757952574018296 l -4.465162280300625 -6.864962052518168" fill="#ff5407" stroke="none" /><path d="M 111.45004920935366 117.60387380957326 l 14.984695565913542 23.038214508433917 a48.48272964863068,48.48272964863068 0 0,0 -0.703503333827457,0.449009112756895 l -14.585910430039155 -23.29273805001462" fill="#b2ff20" stroke="none" /><line stroke="#e1ed5e" stroke-width="0.3" x1="143.8653032363475" x2="146.44561519142675" y1="172.8068346515853" y2="177.08958963109032" /><path d="M 144.38136562736335 173.6633856474863 a86.0,86.0 0 0,1 -40.68145358897372,12.25698825130547" fill="none" id="id54" stroke="none" /><text fill="#e1ed5e" style="font-size:6.75px; font-family:Arial;" text-anchor="middle"><textPath startOffset="21.466115282336833" xlink:href="#id54">June</textPath></text><path d="M 110.8373102113329 117.98757091392108 l 6.123309819726442 10.163358569828354 a32.865444811184354,32.865444811184354 0 0,0 -0.48708487419924373,0.2877783292419791 l -5.947457074498816 -10.267255471364082" fill="#ff870c" stroke="none" /><path d="M 110.5260780823613 118.17145234162733 l 8.08971060568428 13.965485490277915 a37.13933711968629,37.13933711968629 0 0,0 -0.5559426866334604,0.31567876668333544 l -7.84811915212962 -14.10266742275588" fill="#ffc011" stroke="none" /><path d="M 110.21172684928248 118.3499491758327 l 13.398681446490869 24.076743061684542 a48.55384221779085,48.55384221779085 0 0,0 -0.7338039007645597,0.40012839470332495 l -12.98225473385766 -24.30381210814764" fill="#b1ff20" stroke="none" /><path d="M 109.89434966115114 118.52300852407294 l 2.293344036791507 4.293322208827082 a25.86744722209651,25.86744722209651 0 0,0 -0.3945513654120591,0.20641062673445637 l -2.219101768852952 -4.332162254506255" fill="#ff2403" stroke="none" /><path d="M 109.57404056367764 118.69057910512821 l 8.21641623966216 16.040205456271394 a39.022144348073084,39.022144348073084 0 0,0 -0.6004692123770986,0.30108772862224553 l -7.939093119602299 -16.17926102580294" fill="#ffd914" stroke="none" /><path d="M 109.2508944713604 118.85261126421891 l 27.607277736921763 56.261508208619006 a83.66992173245504,83.66992173245504 0 0,0 -1.298427026762815,0.6233238781266244 l -26.634738042158713 -56.72838636324519" fill="#4dd5ff" stroke="none" /><path d="M 108.92500713936063 119.00905698771935 l 8.856742502373868 18.863662552234306 a41.83937745322356,41.83937745322356 0 0,0 -0.6545511681214752,0.30047233757710096 l -8.530723338484972 -19.01332196014548" fill="#fffc17" stroke="none" /><path d="M 108.59647513512805 119.15986991738527 l 13.310288798677396 29.666043109155176 a53.51519493496003,53.51519493496003 0 0,0 -0.8437035540297789,0.3698548439247508 l -12.797664569989863 -29.89076250637438" fill="#7aff26" stroke="none" /><path d="M 108.2653958097858 119.30500536409082 l 12.696857562833074 29.655313429441403 a53.25907324411659,53.25907324411659 0 0,0 -0.8458771889346679,0.35357673357736247 l -12.184508914400944 -29.869475206038736" fill="#7cff26" stroke="none" /><path d="M 107.93186726928326 119.44442032107085 l 1.4307888362921273 3.5074792074872794 a24.78808224369717,24.78808224369717 0 0,0 -0.3964663995713679,0.15776216252342945 l -1.3702013606788932 -3.531588214416778" fill="#ff1402" stroke="none" /><path d="M 107.59598834532513 119.57807347666477 l 22.787965035975386 58.73422042999433 a84.0,84.0 0 0,0 -1.3525191169589008,0.5114069995734765 l -21.77357569825621 -59.11777567967444" fill="#4dd2ff" stroke="none" /><line stroke="#e1ed5e" stroke-width="0.3" x1="102.19456741930631" x2="102.32365962044197" y1="184.97166512339345" y2="189.96999836594603" /><path d="M 102.22038585953345 185.97133177190398 a86.0,86.0 0 0,1 -42.740103519485714,-10.115201625700543" fill="none" id="id55" stroke="none" /><text fill="#e1ed5e" style="font-size:6.75px; font-family:Arial;" text-anchor="middle"><textPath startOffset="22.20632615414155" xlink:href="#id55">July</textPath></text><line stroke="#e1ed5e" stroke-width="0.3" x1="58.666819895761336" x2="56.23545636021788" y1="174.27360380694188" y2="178.64263932499728" /><path d="M 58.180547188652646 175.14741091055294 a86.0,86.0 0 0,1 -31.652253787137756,-30.449443065178592" fill="none" id="id56" stroke="none" /><text fill="#e1ed5e" style="font-size:6.75px; font-family:Arial;" text-anchor="middle"><textPath startOffset="22.20632615414155" xlink:href="#id56">August</textPath></text><line stroke="#e1ed5e" stroke-width="0.3" x1="26.63291911575756" x2="22.317208475507996" y1="142.92168965132927" y2="145.44649492493687" /><path d="M 25.769776987707644 143.4266507060508 a86.0,86.0 0 0,1 -11.730757126820373,-40.83630448921669" fill="none" id="id57" stroke="none" /><text fill="#e1ed5e" style="font-size:6.75px; font-family:Arial;" text-anchor="middle"><textPath startOffset="21.46611528233685" xlink:href="#id57">September</textPath></text><line stroke="#e1ed5e" stroke-width="0.3" x1="15.007084014347285" x2="10.007500721073583" y1="101.09737516637583" y2="101.16192664675087" /><path d="M 14.007167355692545 101.11028546245083 a86.0,86.0 0 0,1 10.666146001902534,-42.60595125391555" fill="none" id="id58" stroke="none" /><text fill="#e1ed5e" style="font-size:6.75px; font-family:Arial;" text-anchor="middle"><textPath startOffset="22.20632615414155" xlink:href="#id58">October</textPath></text><line stroke="#e1ed5e" stroke-width="0.3" x1="26.266209847984243" x2="21.928928074336255" y1="57.711370442889674" y2="55.22380399835377" /><path d="M 25.398753493254645 57.213857153982495 a86.0,86.0 0 0,1 29.58750427330803,-30.492523968695096" fill="none" id="id59" stroke="none" /><text fill="#e1ed5e" style="font-size:6.75px; font-family:Arial;" text-anchor="middle"><textPath startOffset="21.46611528233685" xlink:href="#id59">November</textPath></text><line stroke="#e1ed5e" stroke-width="0.3" x1="56.762969772571076" x2="54.21961505331055" y1="26.818313649435495" y2="22.513508569990535" /><path d="M 56.25429882871897 25.957352633546506 a86.0,86.0 0 0,1 42.265352541879196,-11.944610805530505" fill="none" id="id60" stroke="none" /><text fill="#e1ed5e" style="font-size:6.75px; font-family:Arial;" text-anchor="middle"><textPath startOffset="22.20632615414155" xlink:href="#id60">December</textPath></text></svg>