<?xml version="1.0" encoding="utf-8" ?>
<svg baseProfile="full" height="200mm" version="1.1" viewBox="0,0,200,200" width="200mm" xmlns="http://www.w3.org/2000/svg" xmlns:ev="http://www.w3.org/2001/xml-events" xmlns:xlink="http://www.w3.org/1999/xlink"><defs /><rect fill="#1a1a1a" height="200" width="200" x="0" y="0" /><text alignment-baseline="middle" fill="#e1ed5e" style="dominant-baseline: central; font-size:9.0px; font-family:Arial;" text-anchor="middle" x="100.0" y="100.0">2023</text><line stroke="#e1ed5e" stroke-width="0.3" x1="100.0" x2="100.0" y1="15.0" y2="10.0" /><path d="M 100.0 14.0 a86.0,86.0 0 0,1 42.46469731375804,11.215312516191453" fill="none" id="id49" stroke="none" /><text fill="#e1ed5e" style="font-size:6.75px; font-family:Arial;" text-anchor="middle"><textPath startOffset="22.20632615414155" xlink:href="#id49">January</textPath></text><path d="M 106.74666289553966 80.11325718540242 l 4.307607256802445 -12.697281454355561 a34.40807356073119,34.40807356073119 0 0,0 0.5592426053234395,0.19510876398094262 l -4.525531866189159 12.621251837202411" fill="#ffad10" stroke="none" /><path d="M 109.08828744355905 81.06846463323043 l 6.799229497661568 -14.1632683276306 a36.71075082490761,36.71075082490761 0 0,0 0.567318735823953,0.27838083983059514 l -7.042019500495953 14.044132327665173" fill="#ffca12" stroke="none" /><path d="M 109.73455568895987 81.39251694778311 l 8.53141369689243 -16.307691983971708 a39.40450590240387,39.40450590240387 0 0,0 0.5983010426707559,0.3195916965174559 l -8.810859786091498 16.158421560952497" fill="#ffec16" stroke="none" /><path d="M 110.36928655335952 81.73862282372117 l 10.311543622327756 -18.15968595216146 a41.88305834297981,41.88305834297981 0 0,0 0.6238646430490179,0.36138266893037824 l -10.622604997842103 17.979499125841034" fill="#f4ff19" stroke="none" /><line stroke="#e1ed5e" stroke-width="0.3" x1="143.23703022742887" x2="145.7803849466894" y1="26.81831364943548" y2="22.513508569990506" /><path d="M 143.74570117128098 25.957352633546492 a86.0,86.0 0 0,1 28.547481713284135,27.462654790039103" fill="none" id="id50" stroke="none" /><text fill="#e1ed5e" style="font-size:6.75px; font-family:Arial;" text-anchor="middle"><textPath startOffset="19.985693538727396" xlink:href="#id50">February</textPath></text><path d="M 110.99172775467656 82.1063720568725 l 3.3092802355363133 -5.387235802764348 a27.322471452833717,27.322471452833717 0 0,0 0.3986229506192302,0.2496176551080222 l -3.4015223385278066 5.329473806333381" fill="#ff4e07" stroke="none" /><path d="M 111.2981086023043 82.29822771554956 l 14.515956028587272 -22.743465933469597 a47.981071551937504,47.981071551937504 0 0,0 0.6923736580209946,0.4503390868031213 l -14.905296712392548 22.490227922506946" fill="#adff20" stroke="none" /><path d="M 113.6212207817346 84.01681056812373 l 16.94720995528955 -19.885917084641655 a47.12771753456295,47.12771753456295 0 0,0 0.6128986625863224,0.5314996805911472 l -17.287002416522636 19.591252410630837" fill="#b7ff1f" stroke="none" /><path d="M 114.42810811169701 84.74124197986012 l 17.924091381946933 -18.95601079577954 a47.0883766677441,47.0883766677441 0 0,0 0.5841576739541608,0.5619592195163843 l -18.247732299513512 18.644668489500855" fill="#b7ff1f" stroke="none" /><path d="M 114.94478906791727 85.2469230424477 l 20.37707907396389 -20.115681417925384 a49.63330212347234,49.63330212347234 0 0,0 0.5949750407094453,0.6131740792336793 l -20.720318378376444 19.76194314314159" fill="#9bff22" stroke="none" /><path d="M 115.19652480421416 85.50635884689758 l 14.352324229621583 -13.688487320431763 a40.83340353831898,40.83340353831898 0 0,0 0.4807310338018751,0.5128103488578365 l -14.585822585393922 13.43940755469587" fill="#fffd18" stroke="none" /><path d="M 116.38621287248628 86.86637796730983 l 21.021050377828963 -16.848464775903675 a47.93984640438936,47.93984640438936 0 0,0 0.5105500488235145,0.6483467148366506 l -21.307954507246443 16.484125667113986" fill="#aeff20" stroke="none" /><path d="M 116.82858285166822 87.43820079747576 l 12.754375421819026 -9.520582001152803 a36.915890614143336,36.915890614143336 0 0,0 0.3757288579333208,0.5124937399684663 l -12.916366892265971 9.299625817512842" fill="#ffcd13" stroke="none" /><path d="M 117.45458315368197 88.32363383020206 l 22.60486490016262 -15.121683369300868 a48.19641934292076,48.19641934292076 0 0,0 0.45534913149218426,0.6935279669708418 l -22.861810667012733 14.730337338352353" fill="#abff21" stroke="none" /><path d="M 117.65298651832404 88.62581576622439 l 24.425910423098447 -15.738119152905703 a50.057073054048075,50.057073054048075 0 0,0 0.4604592917496318,0.7283360200098197 l -24.693197311094035 15.315335485181677" fill="#96ff23" stroke="none" /><line stroke="#e1ed5e" stroke-width="0.3" x1="172.23445277983987" x2="176.4835382374775" y1="55.19839476539836" y2="52.563006222186495" /><path d="M 173.08426987136738 54.67131705675599 a86.0,86.0 0 0,1 12.851231095245387,41.99856678651699" fill="none" id="id51" stroke="none" /><text fill="#e1ed5e" style="font-size:6.75px; font-family:Arial;" text-anchor="middle"><textPath startOffset="22.20632615414155" xlink:href="#id51">March</textPath></text><path d="M 118.3937258080291 89.86733742301442 l 26.80824936653478 -14.76802187581869 a51.60680813516777,51.60680813516777 0 0,0 0.421927189618807,0.7817670027290495 l -27.05848465537205 14.304373889757182" fill="#85ff25" stroke="none" /><path d="M 118.56541770881063 90.18545643968196 l 28.21070255073494 -14.913489876393472 a52.91012251150618,52.91012251150618 0 0,0 0.4187220596073762,0.8088377426066894 l -28.463234043502432 14.425679411526438" fill="#78ff26" stroke="none" /><path d="M 119.04729006885535 91.15688171328212 l 24.131331205803555 -11.203494853990604 a47.60525216395406,47.60525216395406 0 0,0 0.3386721130319214,0.7462191083760686 l -24.320605635798824 10.786453736772472" fill="#b1ff20" stroke="none" /><path d="M 119.34039704204932 91.81776055985345 l 11.823232568198765 -5.0019924419964426 a33.837786287031946,33.837786287031946 0 0,0 0.22232765101857285,0.5383840418125656 l -11.907581906103536 4.797733829730574" fill="#ffa60f" stroke="none" /><path d="M 119.47837535516314 92.15188598940014 l 1.974948867889172 -0.7957349418359391 a23.12922923341649,23.12922923341649 0 0,0 0.14561110909154254,0.370564390075071 l -1.9883535268624148 0.7616215468650837" fill="#ff1302" stroke="none" /><path d="M 119.7369772167798 92.82701384747503 l 7.36692391272911 -2.6773523945594624 a28.83835338451854,28.83835338451854 0 0,0 0.16554165023912915,0.4680085373043806 l -7.411918643778049 2.5501462308284673" fill="#ff6309" stroke="none" /><path d="M 120.18372546131832 94.20196356495316 l 13.632175006190897 -3.916018751162068 a35.183490341198414,35.183490341198414 0 0,0 0.16220130107993286,0.5835243805765663 l -13.697563077837193 3.6807830671665496" fill="#ffb711" stroke="none" /><path d="M 120.28053869075195 94.5502522615342 l 27.593222567979087 -7.41479822502939 a49.572104654784,49.572104654784 0 0,0 0.2143489971220776,0.8259741243702567 l -27.71676789697147 6.938727675110282" fill="#9cff22" stroke="none" /><path d="M 120.37134235888165 94.90015583598534 l 3.039290804709705 -0.7608683414220078 a24.13308302292985,24.13308302292985 0 0,0 0.09741399375842485,0.40384389427843864 l -3.051937598728949 0.708439215484163" fill="#ff2103" stroke="none" /><path d="M 120.45610955862082 95.25157060432595 l 25.928852411105606 -6.018804535249511 a47.61825304918482,47.61825304918482 0 0,0 0.17846779981562783,0.8000361525545906 l -26.02861459792327 5.571590213144956" fill="#b1ff20" stroke="none" /><path d="M 120.53481517161879 95.60439243477599 l 51.26252155122904 -10.973068209275658 a73.42379556762023,73.42379556762023 0 0,0 0.2539089395578053,1.238150163208348 l -51.44380978670185 10.089042389903899" fill="#40ffc6" stroke="none" /><path d="M 120.91429891909075 98.10471618934814 l 29.175387736425474 -2.6439155460221424 a50.29494050148018,50.29494050148018 0 0,0 0.070713527598762,0.8628841475022205 l -29.216575747843734 2.141317481312153" fill="#94ff23" stroke="none" /><path d="M 120.94382443527127 98.46500227214037 l 30.1945252865015 -2.212992562644146 a51.27551309820358,51.27551309820358 0 0,0 0.056938793399783756,0.8808179321881766 l -30.228144670905696 1.692915566202934" fill="#89ff24" stroke="none" /><path d="M 120.96714384426684 98.82574320788733 l 24.107596490893304 -1.3501366295382922 a45.145373831981814,45.145373831981814 0 0,0 0.0367749738673875,0.7762615751467284 l -24.127265072994188 0.934963947768564" fill="#cdff1d" stroke="none" /><path d="M 120.98425023603335 99.18683210126433 l 26.065571572644522 -1.0100759296453248 a47.08513513080396,47.08513513080396 0 0,0 0.02441320656673496,0.8101554731089234 l -26.0790964736669 0.5612503091114022" fill="#b7ff1f" stroke="none" /><line stroke="#e1ed5e" stroke-width="0.3" x1="184.98032266829074" x2="189.97916517819016" y1="98.17113171792111" y2="98.06355123074" /><path d="M 185.9800911702706 98.14961562048488 a86.0,86.0 0 0,1 -9.607161424134198,41.387399972396054" fill="none" id="id52" stroke="none" /><text fill="#e1ed5e" style="font-size:6.75px; font-family:Arial;" text-anchor="middle"><textPath startOffset="21.466115282336823" xlink:href="#id52">April</textPath></text><path d="M 120.99980553446 99.90962569577887 l 3.2718793312523458 -0.014080788394549806 a24.27190962999868,24.27190962999868 0 0,0 -0.0017980893143012791,0.4178126322448206 l -3.2716369446485416 -0.04224132205395554" fill="#ff2303" stroke="none" /><path d="M 120.99824983174949 100.27111621757518 l 6.886412353940273 0.08891303251570855 a27.88698632464537,27.88698632464537 0 0,0 -0.010328725311292667,0.47993527926898244 l -6.883861565943973 -0.20743812757480584" fill="#ff5607" stroke="none" /><path d="M 120.9764740272857 100.99374915477107 l 24.434980345790276 1.1575940281427126 a45.462385174654344,45.462385174654344 0 0,0 -0.04376003341602157,0.7813647929707566 l -24.411433961486722 -1.5780305374488925" fill="#caff1d" stroke="none" /><path d="M 120.95626037817324 101.35467743843564 l 14.031755179631281 0.9070560214692235 a35.061042068324554,35.061042068324554 0 0,0 -0.044115875631407744,0.601926072764183 l -14.014062745335535 -1.1484552307301767" fill="#ffb510" stroke="none" /><path d="M 120.92983693683757 101.71520430193887 l 10.207071323216347 0.8364715261094069 a31.241288474172443,31.241288474172443 0 0,0 -0.04853617377591567,0.5355926331631005 l -10.191160553163357 -1.012045547821078" fill="#ff830c" stroke="none" /><path d="M 120.89721153311464 102.0752229133903 l 6.8710153441117665 0.6823345046664149 a27.904812251993366,27.904812251993366 0 0,0 -0.05158098041274438,0.47757581716575015 l -6.858252062197971 -0.8005066437169565" fill="#ff5607" stroke="none" /><path d="M 120.8583938346157 102.4346265915055 l 3.22142107485492 0.3760096522035272 a24.243291075446304,24.243291075446304 0 0,0 -0.051948167108782854,0.41407800411454465 l -3.214471398499289 -0.4314054106054668" fill="#ff2303" stroke="none" /><path d="M 120.70491114924044 103.5080841355445 l 18.062600643851976 3.0603909530757654 a39.320030971724634,39.320030971724634 0 0,0 -0.11880932630901023,0.6663457973059957 l -18.007244875203778 -3.3708555011149794" fill="#ffeb16" stroke="none" /><path d="M 120.64145759157962 103.86396538481128 l 6.581754737644784 1.2320676659942642 a27.69607990992477,27.69607990992477 0 0,0 -0.09175324455451565,0.46784781724167046 l -6.559571560114604 -1.3451792103038798" fill="#ff5307" stroke="none" /><path d="M 120.5718875245553 104.21870165774334 l 6.673244994160779 1.3684903578142655 a27.812118951656856,27.812118951656856 0 0,0 -0.10021098645653573,0.4681523667697316 l -6.6486999689798 -1.4831565440001662" fill="#ff5507" stroke="none" /><path d="M 119.79798401119884 107.00284435728193 l 3.0413550928218793 1.0757729846741433 a24.226008108357494,24.226008108357494 0 0,0 -0.14244401209870527,0.39194474402675183 l -3.0223868197179473 -1.1279655257070262" fill="#ff2203" stroke="none" /><path d="M 119.26925614724726 108.34839909993367 l 30.619766158859317 13.266003954040453 a54.3700006073096,54.3700006073096 0 0,0 -0.3794480148651109,0.8555551021704304 l -30.386877059262932 -13.791107392703571" fill="#68ff28" stroke="none" /><path d="M 118.81262510543309 109.33194174019688 l 2.7522711189218345 1.36525517258022 a24.072282213324208,24.072282213324208 0 0,0 -0.18732973240865608,0.36961933401859687 l -2.728362716726909 -1.4124287183015112" fill="#ff2003" stroke="none" /><path d="M 118.64920377521936 109.65438752849418 l 3.0333564200199064 1.570318966101462 a24.415721421043283,24.415721421043283 0 0,0 -0.1964273759030958,0.3715665696192983 l -3.0058765358919173 -1.6223005508068948" fill="#ff2503" stroke="none" /><line stroke="#e1ed5e" stroke-width="0.3" x1="174.80103733775053" x2="179.2010983576182" y1="140.37084112569926" y2="142.7455964860345" /><path d="M 175.68104954172406 140.8457921977663 a86.0,86.0 0 0,1 -30.038265399797805,32.042727171017184" fill="none" id="id53" stroke="none" /><text fill="#e1ed5e" style="font-size:6.75px; font-family:Arial;" text-anchor="middle"><textPath startOffset="22.206326154141568" xlink:href="#id53">May</textPath></text><path d="M 118.30583269289576 110.29060199501025 l 2.821886156069524 1.5863199338979226 a24.237198234661996,24.237198234661996 0 0,0 -0.20757198673157287,0.36191925516132767 l -2.7941621731855717 -1.6346590349175654" fill="#ff2203" stroke="none" /><path d="M 118.12598468904814 110.60418214915192 l 20.767447632728036 12.14950808181372 a45.060287359218265,45.060287359218265 0 0,0 -0.39742985549812615,0.6661152979374366 l -20.555236901531682 -12.50518547363726" fill="#ceff1d" stroke="none" /><path d="M 116.498646956653 112.99209946851258 l 21.191158740662345 16.68728611110163 a47.972777508549534,47.972777508549534 0 0,0 -0.5164659858886105,0.644370727671674 l -20.90077484271888 -17.049584672351557" fill="#adff20" stroke="none" /><path d="M 116.0416608686014 113.55231037782055 l 18.48391486946741 15.615574556780587 a45.197133665789664,45.197133665789664 0 0,0 -0.5071925282987648,0.589979494764306 l -18.212379831597865 -15.931431150706421" fill="#cdff1d" stroke="none" /><path d="M 115.32070863581623 114.36230785411682 l 4.904575337929049 4.597765192947499 a27.722670898898844,27.722670898898844 0 0,0 -0.3293630841691569,0.3453358769751032 l -4.824705702380927 -4.681508186505109" fill="#ff5307" stroke="none" /><path d="M 114.55890576462653 115.13401014063108 l 5.4684651142705825 5.6844798524720215 a28.88780209558751,28.88780209558751 0 0,0 -0.36132335398671295,0.34165378386107254 l -5.369805925893062 -5.777768273079015" fill="#ff6309" stroke="none" /><path d="M 114.29624159901734 115.38237550388516 l 12.901118629992002 13.881260316721704 a39.950679404330586,39.950679404330586 0 0,0 -0.5077549681962245,0.4638221246931533 l -12.660264112328914 -14.10127520800144" fill="#fff316" stroke="none" /><path d="M 114.0293411484842 115.62618273729858 l 2.1734903106225283 2.420880382911284 a24.253416966626734,24.253416966626734 0 0,0 -0.3130511493785375,0.2762312414935451 l -2.131496808337403 -2.4579347661771176" fill="#ff2303" stroke="none" /><path d="M 113.75828350139079 115.86535959552629 l 17.861195677713802 20.596631273395673 a48.26249311508034,48.26249311508034 0 0,0 -0.6323180020200556,0.5388751191675853 l -17.5040121991167 -20.901030782786208" fill="#aaff21" stroke="none" /><path d="M 113.48314897796784 116.09983520530334 l 7.782038226460623 9.292305025488977 a33.120521921304466,33.120521921304466 0 0,0 -0.4402346203060217,0.3622831214914981 l -7.62093347760991 -9.424883265837654" fill="#ff9c0e" stroke="none" /><path d="M 113.20401910651253 116.32954008644616 l 4.50105462550935 5.566498453663011 a28.15858909118632,28.15858909118632 0 0,0 -0.37952750751958203,0.3015196055272869 l -4.404569625272417 -5.643151973195423" fill="#ff5908" stroke="none" /><path d="M 112.92097659922987 116.55440617244103 l 8.135586606039649 10.423345642114901 a34.22247721871236,34.22247721871236 0 0,0 -0.4674974073254505,0.3584570768250361 l -7.954960470220705 -10.561842060767308" fill="#ffab0f" stroke="none" /><path d="M 112.34349029814194 116.9893568818739 l 26.239065065487484 36.11497476620373 a65.64056381671739,65.64056381671739 0 0,0 -0.9198201959929164,0.6562672871000252 l -25.61351754164568 -36.561286315147974" fill="#36ff71" stroke="none" /><path d="M 111.7513745106137 117.40417183066458 l 4.003526062583474 5.929353664868256 a28.154401150122332,28.154401150122332 0 0,0 -0.403982543255072,0.2677376011746805 l -3.900868820588438 -5.997389287134255" fill="#ff5908" stroke="none" /><path d="M 111.45004920935366 117.60387380957326 l 13.090975881652945 20.126715898873766 a45.00954690134733,45.00954690134733 0 0,0 -0.6531060963077487,0.41684321130905233 l -12.742587983298264 -20.34907353900663" fill="#cfff1d" stroke="none" /><line stroke="#e1ed5e" stroke-width="0.3" x1="143.8653032363475" x2="146.44561519142675" y1="172.8068346515853" y2="177.08958963109032" /><path d="M 144.38136562736335 173.6633856474863 a86.0,86.0 0 0,1 -40.68145358897372,12.25698825130547" fill="none" id="id54" stroke="none" /><text fill="#e1ed5e" style="font-size:6.75px; font-family:Arial;" text-anchor="middle"><textPath startOffset="21.466115282336833" xlink:href="#id54">June</textPath></text><path d="M 110.8373102113329 117.98757091392108 l 5.349464779803189 8.878944609116086 a31.365926432408557,31.365926432408557 0 0,0 -0.4648611457488409,0.2746481587485955 l -5.195835763025966 -8.969711340158431" fill="#ff850c" stroke="none" /><path d="M 110.5260780823613 118.17145234162733 l 7.067357889436613 12.200570436991494 a35.09969739126953,35.09969739126953 0 0,0 -0.5254111026494451,0.2983421364718166 l -6.856298019865969 -12.32041573925794" fill="#ffb610" stroke="none" /><path d="M 110.21172684928248 118.3499491758327 l 11.7053973429369 21.03399841143531 a45.07167248298916,45.07167248298916 0 0,0 -0.6811771750965857,0.3714321078096757 l -11.341597355971665 -21.232371171004758" fill="#ceff1d" stroke="none" /><path d="M 109.89434966115114 118.52300852407294 l 2.003518279160977 3.7507453682122116 a25.25231423016897,25.25231423016897 0 0,0 -0.3851688561991788,0.20150214135904815 l -1.9386585204353026 -3.7846769285159763" fill="#ff3104" stroke="none" /><path d="M 109.57404056367764 118.69057910512821 l 7.17805085554846 14.01309368222759 a36.74456123973376,36.74456123973376 0 0,0 -0.5654219704062603,0.2835143139292587 l -6.93577497745944 -14.13457583706615" fill="#ffcb12" stroke="none" /><path d="M 109.2508944713604 118.85261126421891 l 24.11835498575269 49.15135204347068 a75.74988999915864,75.74988999915864 0 0,0 -1.175520454814365,0.5643212545712911 l -23.26872186293809 -49.55922757454153" fill="#43ffdd" stroke="none" /><path d="M 108.92500713936063 119.00905698771935 l 7.737454656892012 16.47973096448317 a39.20576109997067,39.20576109997067 0 0,0 -0.6133498700779575,0.2815588424413791 l -7.452636791046635 -16.610476877258623" fill="#ffea16" stroke="none" /><path d="M 108.59647513512805 119.15986991738527 l 11.628175485772594 25.916939929660206 a49.40602472092036,49.40602472092036 0 0,0 -0.7789196824973643,0.34145549846742845 l -11.180335128617477 -26.11325998142209" fill="#9dff22" stroke="none" /><path d="M 108.2653958097858 119.30500536409082 l 11.092267800616963 25.907566233829485 a49.182270900707515,49.182270900707515 0 0,0 -0.7811281443863555,0.3265116277048649 l -10.644668196733146 -26.094662904554323" fill="#a0ff22" stroke="none" /><path d="M 107.93186726928326 119.44442032107085 l 1.2499701488928194 3.06421478558853 a24.309356074124164,24.309356074124164 0 0,0 -0.3888095409662832,0.15471534046491384 l -1.19703953188467 -3.0852769704595127" fill="#ff2303" stroke="none" /><path d="M 107.59598834532513 119.57807347666477 l 21.044341130591857 54.240164438415945 a79.1795473678433,79.1795473678433 0 0,0 -1.2749029938947722,0.4820592231782702 l -20.10756791593681 -54.59437191170085" fill="#47ffff" stroke="none" /><path d="M 107.2578585660854 119.70592522655815 l 9.84037750033553 26.71776274738106 a49.47230014548268,49.47230014548268 0 0,0 -0.8016407633410705,0.28743985672188 l -9.379017176364725 -26.8831901451429" fill="#9dff22" stroke="none" /><path d="M 106.57524785965236 119.94407469862006 l 9.857910658616197 29.901063920981827 a52.484155160332634,52.484155160332634 0 0,0 -0.860436873458938,0.2754847151806542 l -9.341752440066317 -30.06632148282219" fill="#7cff26" stroke="none" /><path d="M 106.2309692047433 120.05430185196036 l 10.304015572886692 33.163354174285764 a55.72723422640232,55.72723422640232 0 0,0 -0.9185043033803766,0.2767378120028163 l -9.731636295066071 -33.33580735539431" fill="#5aff2a" stroke="none" /><path d="M 105.53697534728816 120.25689768951611 l 0.7394919104326887 2.705414243752493 a23.80465942957327,23.80465942957327 0 0,0 -0.3961883798215841,0.10463695201102977 l -0.6928130877996073 -2.717742545067107" fill="#ff1c02" stroke="none" /><path d="M 105.18746579009965 120.34920634021253 l 0.8002095405479873 3.139033530996035 a24.239423840361347,24.239423840361347 0 0,0 -0.40519857708933094,0.09958795181615623 l -0.7460576787154453 -3.1523427411262213" fill="#ff2203" stroke="none" /><path d="M 104.48393922423573 120.51570834832081 l 3.3464668628685073 15.31134449478013 a36.672782481171325,36.672782481171325 0 0,0 -0.6178639797610255,0.12947940433787283 l -3.082411421678104 -15.366679879844545" fill="#ffca12" stroke="none" /><path d="M 104.13013068566511 120.58985236759428 l 3.0799365155558767 15.354341783169495 a36.66019861094485,36.66019861094485 0 0,0 -0.619788464910421,0.11878393440906118 l -2.815180436073751 -15.405082915927025" fill="#ffca12" stroke="none" /><path d="M 103.7750983002368 120.6578951692458 l 3.4040757964288053 18.627605259015898 a39.93608749751514,39.93608749751514 0 0,0 -0.6772989827439154,0.11775710981693384 l -3.08292784221284 -18.683440947353837" fill="#fff316" stroke="none" /><path d="M 103.06178313531738 120.77559828337769 l 0.4842766215647704 3.286038266919279 a24.321531474764623,24.321531474764623 0 0,0 -0.41470690665061016,0.05747459844383509 l -0.42764112372732976 -3.293887430855717" fill="#ff2403" stroke="none" /><path d="M 101.98527174616119 120.90594882070398 l 1.4800387522016936 15.585581402655459 a36.655697441085735,36.655697441085735 0 0,0 -0.6286551295501837,0.054243009820420164 l -1.211539304909968 -15.608748664754543" fill="#ffca12" stroke="none" /><path d="M 101.62511606390274 120.93702456842531 l 1.89759841571383 24.447524415821274 a45.52105890473527,45.52105890473527 0 0,0 -0.781742333801115,0.05391352830154596 l -1.4764933211337845 -24.476566288639106" fill="#c9ff1d" stroke="none" /><path d="M 101.26447882468166 120.96189622390904 l 0.9417244343219546 15.611435698613576 a36.63981360125962,36.63981360125962 0 0,0 -0.629876661007657,0.03255742866649561 l -0.672859704900818 -15.625332934042273" fill="#ffca12" stroke="none" /><path d="M 100.90346689309514 120.98055641714683 l 1.1688506262004172 27.143370380958462 a48.16852530823604,48.16852530823604 0 0,0 -0.8286813277957203,0.02854146047277067 l -0.7014489467300447 -27.159468639857327" fill="#abff21" stroke="none" /><line stroke="#e1ed5e" stroke-width="0.3" x1="102.19456741930631" x2="102.32365962044197" y1="184.97166512339345" y2="189.96999836594603" /><path d="M 102.22038585953345 185.97133177190398 a86.0,86.0 0 0,1 -42.740103519485714,-10.115201625700543" fill="none" id="id55" stroke="none" /><text fill="#e1ed5e" style="font-size:6.75px; font-family:Arial;" text-anchor="middle"><textPath startOffset="22.20632615414155" xlink:href="#id55">July</textPath></text><path d="M 100.54218724476979 120.99299961872073 l 0.08719293257481228 3.376031468750906 a24.377157249150148,24.377157249150148 0 0,0 -0.41956606074609654,0.007223210231063552 l -0.029067181936047806 -3.377032156261129" fill="#ff2403" stroke="none" /><path d="M 100.18074693466247 120.99922214144158 l 0.17532849787409152 20.369706858148668 a41.37046139804093,41.37046139804093 0 0,0 -0.7121508650730799,0.0 l 0.17532849787407748 -20.369706858148668" fill="#faff18" stroke="none" /><path d="M 99.45781275523022 120.99299961872073 l -1.0064634389848406 38.96935384349854 a59.98234866749062,59.98234866749062 0 0,0 -1.0319238967771407,-0.03554154549266241 l 1.6771076874366242 -38.946255499579784" fill="#30ff2f" stroke="none" /><path d="M 98.73552117531835 120.96189622390904 l -0.943425995927087 15.639643334114773 a36.66807251157945,36.66807251157945 0 0,0 -0.6297082113397151,-0.04342836508380374 l 1.2124969680457323 -15.621086624514684" fill="#ffca12" stroke="none" /><path d="M 97.65516085044442 120.86867818915974 l -4.399167422775675 39.15185792745764 a60.39823159972334,60.39823159972334 0 0,0 -1.0321556674919867,-0.12497967714713908 l 5.072450513319051 -39.07033272158515" fill="#30ff33" stroke="none" /><path d="M 97.2962882734958 120.8252237178851 l -0.42390652228822023 3.2651218233006896 a24.29252445103038,24.29252445103038 0 0,0 -0.4142123073242287,-0.05740605148399534 l 0.48004742079928 -3.257341206324089" fill="#ff2303" stroke="none" /><path d="M 96.58105272829116 120.7198165907248 l -3.309504662702848 20.056562493599966 a41.32777705928842,41.32777705928842 0 0,0 -0.7009014431637806,-0.12186070009895668 l 3.6542550773386786 -19.99662321498" fill="#fbff18" stroke="none" /><path d="M 96.22490169976321 120.6578951692458 l -0.5901605239793489 3.2294455052012414 a24.282926699627648,24.282926699627648 0 0,0 -0.41053454244521337,-0.07867992214006912 l 0.6456626809962573 -3.218808384712704" fill="#ff2303" stroke="none" /><path d="M 94.81253420990036 120.34920634021253 l -15.562397370298923 61.0476190206376 a84.0,84.0 0 0,0 -1.398038228754043,-0.36923460278567344 l 16.610926041864456 -60.77069306854834" fill="#4dd2ff" stroke="none" /><path d="M 94.11515582081647 120.15858648285463 l -0.8414498700103283 2.8823940718075836 a24.002704359228844,24.002704359228844 0 0,0 -0.3956160314210146,-0.11919586497936055 l 0.8909408758715887 -2.8674828377224975" fill="#ff1f03" stroke="none" /><path d="M 93.42475214034765 119.94407469862007 l -0.4124817627446198 1.2511417460743655 a22.317382584281013,22.317382584281013 0 0,0 -0.3638055019151917,-0.12342257874239261 l 0.43395699759703726 -1.2438561804338497" fill="#ff0701" stroke="none" /><path d="M 92.7421414339146 119.70592522655815 l -1.9224998961766755 5.219809515047748 a26.562590873341517,26.562590873341517 0 0,0 -0.4276953803827567,-0.16171779642182318 l 2.012065497319715 -5.185943468519292" fill="#ff4306" stroke="none" /><path d="M 91.7346041902142 119.30500536409082 l -0.33531719343843797 0.783180910748022 a21.851944809935205,21.851944809935205 0 0,0 -0.34451081643283693,-0.15102341768452013 l 0.3487486845290182 -0.7772929397690497" fill="#ff0000" stroke="none" /><line stroke="#e1ed5e" stroke-width="0.3" x1="58.666819895761336" x2="56.23545636021788" y1="174.27360380694188" y2="178.64263932499728" /><path d="M 58.180547188652646 175.14741091055294 a86.0,86.0 0 0,1 -31.652253787137756,-30.449443065178592" fill="none" id="id56" stroke="none" /><text fill="#e1ed5e" style="font-size:6.75px; font-family:Arial;" text-anchor="middle"><textPath startOffset="22.20632615414155" xlink:href="#id56">August</textPath></text><path d="M 88.24862548938628 117.40417183066458 l -11.14663627959447 16.508534637268607 a40.9193176645052,40.9193176645052 0 0,0 -0.580358907252468,-0.3991761484032957 l 11.429152071469828 -16.31421769950021" fill="#ffff18" stroke="none" /><path d="M 87.95078237400918 117.19931262002967 l -16.42028351397444 23.438666163450787 a49.61811982295471,49.61811982295471 0 0,0 -0.6952979384483332,-0.4960766177776396 l 16.821308780271657 -23.152545283828925" fill="#9bff22" stroke="none" /><path d="M 87.36589467227662 116.77436683061367 l -2.5939096385472498 3.4439472106488025 a25.311512449556883,25.311512449556883 0 0,0 -0.3457688457217773,-0.265120806559492 l 2.652807212762514 -3.3987870622619436" fill="#ff3204" stroke="none" /><path d="M 85.18274418774928 114.88116024355367 l -11.031691755398242 11.079269660299845 a36.63484695133797,36.63484695133797 0 0,0 -0.44303632537847587,-0.44879345856167424 l 11.220768705832251 -10.887735707757507" fill="#ffc912" stroke="none" /><line stroke="#e1ed5e" stroke-width="0.3" x1="26.63291911575756" x2="22.317208475507996" y1="142.92168965132927" y2="145.44649492493687" /><path d="M 25.769776987707644 143.4266507060508 a86.0,86.0 0 0,1 -11.730757126820373,-40.83630448921669" fill="none" id="id57" stroke="none" /><text fill="#e1ed5e" style="font-size:6.75px; font-family:Arial;" text-anchor="middle"><textPath startOffset="21.46611528233685" xlink:href="#id57">September</textPath></text><line stroke="#e1ed5e" stroke-width="0.3" x1="15.007084014347285" x2="10.007500721073583" y1="101.09737516637583" y2="101.16192664675087" /><path d="M 14.007167355692545 101.11028546245083 a86.0,86.0 0 0,1 10.666146001902534,-42.60595125391555" fill="none" id="id58" stroke="none" /><text fill="#e1ed5e" style="font-size:6.75px; font-family:Arial;" text-anchor="middle"><textPath startOffset="22.20632615414155" xlink:href="#id58">October</textPath></text><line stroke="#e1ed5e" stroke-width="0.3" x1="26.266209847984243" x2="21.928928074336255" y1="57.711370442889674" y2="55.22380399835377" /><path d="M 25.398753493254645 57.213857153982495 a86.0,86.0 0 0,1 29.58750427330803,-30.492523968695096" fill="none" id="id59" stroke="none" /><text fill="#e1ed5e" style="font-size:6.75px; font-family:Arial;" text-anchor="middle"><textPath startOffset="21.46611528233685" xlink:href="#id59">November</textPath></text><line stroke="#e1ed5e" stroke-width="0.3" x1="56.762969772571076" x2="54.21961505331055" y1="26.818313649435495" y2="22.513508569990535" /><path d="M 56.25429882871897 25.957352633546506 a86.0,86.0 0 0,1 42.265352541879196,-11.944610805530505" fill="none" id="id60" stroke="none" /><text fill="#e1ed5e" style="font-size:6.75px; font-family:Arial;" text-anchor="middle"><textPath startOffset="22.20632615414155" xlink:href="#id60">December</textPath></text></svg>