<?xml version="1.0" encoding="utf-8" ?>
<svg baseProfile="full" height="200mm" version="1.1" viewBox="0,0,200,200" width="200mm" xmlns="http://www.w3.org/2000/svg" xmlns:ev="http://www.w3.org/2001/xml-events" xmlns:xlink="http://www.w3.org/1999/xlink"><defs /><rect fill="#1a1a1a" height="200" width="200" x="0" y="0" /><text alignment-baseline="middle" fill="#e1ed5e" style="dominant-baseline: central; font-size:9.0px; font-family:Arial;" text-anchor="middle" x="100.0" y="100.0">2019</text><line stroke="#e1ed5e" stroke-width="0.3" x1="100.0" x2="100.0" y1="15.0" y2="10.0" /><path d="M 100.0 14.0 a86.0,86.0 0 0,1 42.46469731375804,11.215312516191453" fill="none" id="id1" stroke="none" /><text fill="#e1ed5e" style="font-size:6.75px; font-family:Arial;" text-anchor="middle"><textPath startOffset="22.20632615414155" xlink:href="#id1">January</textPath></text><line stroke="#e1ed5e" stroke-width="0.3" x1="143.23703022742887" x2="145.7803849466894" y1="26.81831364943548" y2="22.513508569990506" /><path d="M 143.74570117128098 25.957352633546492 a86.0,86.0 0 0,1 28.547481713284135,27.462654790039103" fill="none" id="id2" stroke="none" /><text fill="#e1ed5e" style="font-size:6.75px; font-family:Arial;" text-anchor="middle"><textPath startOffset="19.985693538727396" xlink:href="#id2">February</textPath></text><line stroke="#e1ed5e" stroke-width="0.3" x1="172.23445277983987" x2="176.4835382374775" y1="55.19839476539836" y2="52.563006222186495" /><path d="M 173.08426987136738 54.67131705675599 a86.0,86.0 0 0,1 12.851231095245387,41.99856678651699" fill="none" id="id3" stroke="none" /><text fill="#e1ed5e" style="font-size:6.75px; font-family:Arial;" text-anchor="middle"><textPath startOffset="22.20632615414155" xlink:href="#id3">March</textPath></text><path d="M 118.03404312379186 89.2402003453031 l 8.460981296874794 -5.048144945179019 a30.852510943592073,30.852510943592073 0 0,0 0.2681822567167184,0.4584104092846416 l -8.54662322806184 4.901755123540482" fill="#ff4b07" stroke="none" /><path d="M 120.28053869075195 94.5502522615342 l 6.296031685474821 -1.6918576455206187 a27.51938626537878,27.51938626537878 0 0,0 0.11899339131306691,0.4585300771884718 l -6.3242214086581905 1.5832311427832966" fill="#ff1902" stroke="none" /><line stroke="#e1ed5e" stroke-width="0.3" x1="184.98032266829074" x2="189.97916517819016" y1="98.17113171792111" y2="98.06355123074" /><path d="M 185.9800911702706 98.14961562048488 a86.0,86.0 0 0,1 -9.607161424134198,41.387399972396054" fill="none" id="id4" stroke="none" /><text fill="#e1ed5e" style="font-size:6.75px; font-family:Arial;" text-anchor="middle"><textPath startOffset="21.466115282336823" xlink:href="#id4">April</textPath></text><line stroke="#e1ed5e" stroke-width="0.3" x1="174.80103733775053" x2="179.2010983576182" y1="140.37084112569926" y2="142.7455964860345" /><path d="M 175.68104954172406 140.8457921977663 a86.0,86.0 0 0,1 -30.038265399797805,32.042727171017184" fill="none" id="id5" stroke="none" /><text fill="#e1ed5e" style="font-size:6.75px; font-family:Arial;" text-anchor="middle"><textPath startOffset="22.206326154141568" xlink:href="#id5">May</textPath></text><line stroke="#e1ed5e" stroke-width="0.3" x1="143.8653032363475" x2="146.44561519142675" y1="172.8068346515853" y2="177.08958963109032" /><path d="M 144.38136562736335 173.6633856474863 a86.0,86.0 0 0,1 -40.68145358897372,12.25698825130547" fill="none" id="id6" stroke="none" /><text fill="#e1ed5e" style="font-size:6.75px; font-family:Arial;" text-anchor="middle"><textPath startOffset="21.466115282336833" xlink:href="#id6">June</textPath></text><path d="M 110.8373102113329 117.98757091392108 l 6.791633706343636 11.272630434301039 a34.16048955432407,34.16048955432407 0 0,0 -0.5062781852716665,0.299118075733027 l -6.596587650043588 -11.387867082327816" fill="#ff7c0b" stroke="none" /><path d="M 110.5260780823613 118.17145234162733 l 10.410976445380523 17.97274928295021 a41.77036704861172,41.77036704861172 0 0,0 -0.6252650660897718,0.35504182294159814 l -10.100062612369552 -18.14929427168644" fill="#ffe515" stroke="none" /><path d="M 107.93186726928326 119.44442032107085 l 4.182187436430755 10.25234129804212 a32.0725423388208,32.0725423388208 0 0,0 -0.5129757623507056,0.20412364245254092 l -4.0050905980381835 -10.32281178490073" fill="#ff5d08" stroke="none" /><path d="M 106.91757812671514 119.82793768551818 l 2.664095599145357 7.6361293736773455 a29.08751365828359,29.08751365828359 0 0,0 -0.47416839613487044,0.1608636645158622 l -2.5322574700732594 -7.680856025091331" fill="#ff3104" stroke="none" /><path d="M 106.57524785965236 119.94407469862006 l 6.036256902574121 18.30920463146832 a40.27857286291842,40.27857286291842 0 0,0 -0.6603358517572431,0.21141868701376623 l -5.720199705725937 -18.41039616514179" fill="#ffd113" stroke="none" /><path d="M 105.53697534728816 120.25689768951611 l 11.280807019436736 41.27057451318154 a63.784540755486006,63.784540755486006 0 0,0 -1.0615860283296148,0.2803745186871176 l -10.568730548295623 -41.458640381172245" fill="#32ff4b" stroke="none" /><path d="M 105.18746579009965 120.34920634021253 l 2.681237748811965 10.517864098857691 a31.854238852526407,31.854238852526407 0 0,0 -0.5324917102945037,0.13087350693144367 l -2.4997927537742504 -10.562458864103165" fill="#ff5a08" stroke="none" /><path d="M 102.70371172650421 120.8252237178851 l 1.3391149600193348 10.314475597746753 a31.4010401274421,31.4010401274421 0 0,0 -0.5366177233048648,0.06497693315295408 l -1.1613698136630897 -10.335998059625057" fill="#ff5307" stroke="none" /><path d="M 101.98527174616119 120.90594882070398 l 2.045628302335206 21.54153489440286 a42.63844543302709,42.63844543302709 0 0,0 -0.7312608764462818,0.06309626540508219 l -1.6745231081473828 -21.573555412086606" fill="#fff016" stroke="none" /><line stroke="#e1ed5e" stroke-width="0.3" x1="102.19456741930631" x2="102.32365962044197" y1="184.97166512339345" y2="189.96999836594603" /><path d="M 102.22038585953345 185.97133177190398 a86.0,86.0 0 0,1 -42.740103519485714,-10.115201625700543" fill="none" id="id7" stroke="none" /><text fill="#e1ed5e" style="font-size:6.75px; font-family:Arial;" text-anchor="middle"><textPath startOffset="22.20632615414155" xlink:href="#id7">July</textPath></text><path d="M 97.2962882734958 120.8252237178851 l -8.111135179512582 62.47567115365527 a84.0,84.0 0 0,0 -1.4322856352526758,-0.19850173802958038 l 9.185349405952088 -62.32679485013308" fill="#4dd2ff" stroke="none" /><line stroke="#e1ed5e" stroke-width="0.3" x1="58.666819895761336" x2="56.23545636021788" y1="174.27360380694188" y2="178.64263932499728" /><path d="M 58.180547188652646 175.14741091055294 a86.0,86.0 0 0,1 -31.652253787137756,-30.449443065178592" fill="none" id="id8" stroke="none" /><text fill="#e1ed5e" style="font-size:6.75px; font-family:Arial;" text-anchor="middle"><textPath startOffset="22.20632615414155" xlink:href="#id8">August</textPath></text><path d="M 83.28015986056508 112.70617746262583 l -5.525845458252325 4.1993447567718185 a27.940422495404356,27.940422495404356 0 0,0 -0.2877048365909709,-0.3854276446660497 l 5.5973115615383815 -4.103604232596461" fill="#ff1f03" stroke="none" /><line stroke="#e1ed5e" stroke-width="0.3" x1="26.63291911575756" x2="22.317208475507996" y1="142.92168965132927" y2="145.44649492493687" /><path d="M 25.769776987707644 143.4266507060508 a86.0,86.0 0 0,1 -11.730757126820373,-40.83630448921669" fill="none" id="id9" stroke="none" /><text fill="#e1ed5e" style="font-size:6.75px; font-family:Arial;" text-anchor="middle"><textPath startOffset="21.46611528233685" xlink:href="#id9">September</textPath></text><path d="M 81.51974371655577 109.97397251340807 l -5.779999790028491 3.1195216207523395 a27.56809049230221,27.56809049230221 0 0,0 -0.22178855912875353,-0.41954037067079575 l 5.832840857382131 -3.0195662349954175" fill="#ff1a02" stroke="none" /><path d="M 81.35079622478065 109.6543875284942 l -6.550581597278518 3.391128867452437 a28.37630491901421,28.37630491901421 0 0,0 -0.22082349982932406,-0.43570571469411973 l 6.607983766894109 -3.2778689410556323" fill="#ff2603" stroke="none" /><path d="M 79.76711848015287 105.62410040840567 l -6.732015331278414 1.8712870995115802 a27.987255958483708,27.987255958483708 0 0,0 -0.1250256342562133,-0.46526689574493263 l 6.763229041876402 -1.7551292705911088" fill="#ff2003" stroke="none" /><path d="M 79.4281124754447 104.21870165774334 l -8.07443714932385 1.6558345142873958 a29.242470698588285,29.242470698588285 0 0,0 -0.09687622125989985,-0.49396976509246415 l 8.101743303559417 -1.5166010221269768" fill="#ff3304" stroke="none" /><path d="M 79.23777060512086 103.15116336523772 l -7.7108191198697265 1.1703006581991144 a28.799123997599335,28.799123997599335 0 0,0 -0.07016830996322888,-0.49075699645422993 l 7.729821480849554 -1.037398189764484" fill="#ff2c04" stroke="none" /><line stroke="#e1ed5e" stroke-width="0.3" x1="15.007084014347285" x2="10.007500721073583" y1="101.09737516637583" y2="101.16192664675087" /><path d="M 14.007167355692545 101.11028546245083 a86.0,86.0 0 0,1 10.666146001902534,-42.60595125391555" fill="none" id="id10" stroke="none" /><text fill="#e1ed5e" style="font-size:6.75px; font-family:Arial;" text-anchor="middle"><textPath startOffset="22.20632615414155" xlink:href="#id10">October</textPath></text><path d="M 79.16333360222342 97.38593545837743 l -8.19190000401222 -1.0277150346511816 a29.25611433231054,29.25611433231054 0 0,0 0.06698814424375905,-0.49913948322505236 l 8.172995860710627 1.1685728599408935" fill="#ff3304" stroke="none" /><path d="M 79.62865764111835 94.90015583598534 l -7.187252241265884 -1.7992857688114217 a28.409050145425443,28.409050145425443 0 0,0 0.1228402838707147,-0.47335372345933013 l 7.155215625524861 1.9227359178196155" fill="#ff2703" stroke="none" /><path d="M 80.65960295795068 91.81776055985345 l -7.738347488933646 -3.2738217259888636 a29.402376482462707,29.402376482462707 0 0,0 0.20120926920157015,-0.46441873478189216 l 7.680847509889395 3.406539605357355" fill="#ff3605" stroke="none" /><path d="M 81.6062741919709 89.86733742301443 l -4.302121585747145 -2.369935642647964 a25.911704906531412,25.911704906531412 0 0,0 0.21857431072749867,-0.38881930960722855 l 4.260689633727216 2.4436384621899774" fill="#ff0000" stroke="none" /><line stroke="#e1ed5e" stroke-width="0.3" x1="26.266209847984243" x2="21.928928074336255" y1="57.711370442889674" y2="55.22380399835377" /><path d="M 25.398753493254645 57.213857153982495 a86.0,86.0 0 0,1 29.58750427330803,-30.492523968695096" fill="none" id="id11" stroke="none" /><text fill="#e1ed5e" style="font-size:6.75px; font-family:Arial;" text-anchor="middle"><textPath startOffset="21.46611528233685" xlink:href="#id11">November</textPath></text><path d="M 81.78341655067845 89.55222093294921 l -6.947824427496675 -3.9847941199889156 a29.009422479431194,29.009422479431194 0 0,0 0.25216140108682106,-0.4310255737764925 l 6.878203351939529 4.1037991061193" fill="#ff3004" stroke="none" /><path d="M 82.7489923806493 88.02491185347247 l -7.141067361565089 -4.957096594120643 a29.69296553000486,29.69296553000486 0 0,0 0.2950736755576411,-0.4173607881437702 l 7.054681066203569 5.0792838825962" fill="#ff3a05" stroke="none" /><line stroke="#e1ed5e" stroke-width="0.3" x1="56.762969772571076" x2="54.21961505331055" y1="26.818313649435495" y2="22.513508569990535" /><path d="M 56.25429882871897 25.957352633546506 a86.0,86.0 0 0,1 42.265352541879196,-11.944610805530505" fill="none" id="id12" stroke="none" /><text fill="#e1ed5e" style="font-size:6.75px; font-family:Arial;" text-anchor="middle"><textPath startOffset="22.20632615414155" xlink:href="#id12">December</textPath></text><path d="M 91.23893434514133 80.91482961587045 l -5.170999722611033 -11.264544137685748 a33.3947243923015,33.3947243923015 0 0,0 0.5244846311168959,-0.23532096562211358 l 4.976332973027363 11.35188543382439" fill="#ff710a" stroke="none" /></svg>